<svg xmlns="http://www.w3.org/2000/svg" xmlns:xlink="http://www.w3.org/1999/xlink" width="1148.571" height="655.457" viewBox="0 0 1148.571 655.457">
  <defs>
    <linearGradient id="linear-gradient" x1="0.689" y1="0.909" x2="0.081" y2="0.5" gradientUnits="objectBoundingBox">
      <stop offset="0" stop-color="#fed547"/>
      <stop offset="1" stop-color="#fda22c"/>
    </linearGradient>
    <filter id="Tracé_1224" x="0" y="258.189" width="1148.571" height="397.267" filterUnits="userSpaceOnUse">
      <feOffset dx="1" dy="8" input="SourceAlpha"/>
      <feGaussianBlur stdDeviation="5" result="blur"/>
      <feFlood flood-opacity="0.078"/>
      <feComposite operator="in" in2="blur"/>
      <feComposite in="SourceGraphic"/>
    </filter>
    <filter id="Tracé_1410" x="60.461" y="0" width="1032.516" height="504.271" filterUnits="userSpaceOnUse">
      <feOffset dx="2" dy="-7" input="SourceAlpha"/>
      <feGaussianBlur stdDeviation="5" result="blur-2"/>
      <feFlood flood-opacity="0.051"/>
      <feComposite operator="in" in2="blur-2"/>
      <feComposite in="SourceGraphic"/>
    </filter>
    <filter id="Tracé_96" x="520.738" y="340.774" width="20" height="24.035" filterUnits="userSpaceOnUse">
      <feOffset dy="3" input="SourceAlpha"/>
      <feGaussianBlur stdDeviation="3" result="blur-3"/>
      <feFlood flood-opacity="0.161"/>
      <feComposite operator="in" in2="blur-3"/>
      <feComposite in="SourceGraphic"/>
    </filter>
    <filter id="Tracé_90" x="517.614" y="345.33" width="26.248" height="20" filterUnits="userSpaceOnUse">
      <feOffset dy="3" input="SourceAlpha"/>
      <feGaussianBlur stdDeviation="3" result="blur-4"/>
      <feFlood flood-opacity="0.161"/>
      <feComposite operator="in" in2="blur-4"/>
      <feComposite in="SourceGraphic"/>
    </filter>
  </defs>
  <g id="Groupe_1746" data-name="Groupe 1746" transform="translate(-459.221 -330)">
    <g transform="matrix(1, 0, 0, 1, 459.22, 330)" filter="url(#Tracé_1224)">
      <path id="Tracé_1224-2" data-name="Tracé 1224" d="M512.042,0C651.1,0,994.808,120.166,1073.021,202.648S876.061,323.922,824.893,329.927c-262.39,30.794-498.67,57.857-699,15.53S-53.632,234.8,23.578,160.618C112.142,75.527,365.112,0,512.042,0Z" transform="translate(45.66 265.19)" fill="url(#linear-gradient)"/>
    </g>
    <g transform="matrix(1, 0, 0, 1, 459.22, 330)" filter="url(#Tracé_1410)">
      <path id="Tracé_1410-2" data-name="Tracé 1410" d="M34.451,0H968.065a34.451,34.451,0,0,1,34.451,34.451v405.37a34.451,34.451,0,0,1-34.451,34.451H34.451A34.451,34.451,0,0,1,0,439.821V34.451A34.451,34.451,0,0,1,34.451,0Z" transform="translate(73.46 22)" fill="#fff"/>
    </g>
    <g id="Rectangle_9" data-name="Rectangle 9" transform="translate(576.32 485.209)" fill="none" stroke="#364f6b" stroke-width="0.8">
      <rect width="440.969" height="209.001" rx="8" stroke="none"/>
      <rect x="0.4" y="0.4" width="440.169" height="208.201" rx="7.6" fill="none"/>
    </g>
    <g id="Rectangle_24" data-name="Rectangle 24" transform="translate(1047.146 485.209)" fill="none" stroke="#364f6b" stroke-width="0.8">
      <rect width="439.821" height="209.001" rx="8" stroke="none"/>
      <rect x="0.4" y="0.4" width="439.021" height="208.201" rx="7.6" fill="none"/>
    </g>
    <g id="Groupe_1348" data-name="Groupe 1348" transform="translate(983.384 662.056)">
      <g id="Groupe_38" data-name="Groupe 38" transform="translate(0 0)">
        <g transform="matrix(1, 0, 0, 1, -524.16, -332.06)" filter="url(#Tracé_96)">
          <path id="Tracé_96-2" data-name="Tracé 96" d="M0,0V4.035" transform="translate(530.74 347.77)" fill="none" stroke="#47b8ce" stroke-linecap="round" stroke-width="2"/>
        </g>
        <path id="Tracé_82" data-name="Tracé 82" d="M13.008,50s.285,7.764-6.5,7.789S-.009,50-.009,50Z" transform="translate(0.01 -40.855)" fill="#55cfe8"/>
        <rect id="Rectangle_56" data-name="Rectangle 56" width="8.038" height="13.78" rx="4.019" transform="translate(2.899)" fill="#fdae33"/>
        <g transform="matrix(1, 0, 0, 1, -524.16, -332.06)" filter="url(#Tracé_90)">
          <path id="Tracé_90-2" data-name="Tracé 90" d="M0,0H6.248" transform="translate(527.61 352.33)" fill="none" stroke="#53c9e0" stroke-linecap="round" stroke-width="2"/>
        </g>
      </g>
    </g>
    <g id="speaker" transform="translate(949.978 662.669)">
      <path id="Tracé_115" data-name="Tracé 115" d="M11.654,16.057a.666.666,0,0,0-.707.08l-6.5,5.2H1.337A1.339,1.339,0,0,0,0,22.676v5.348A1.338,1.338,0,0,0,1.337,29.36H4.444l6.5,5.2a.669.669,0,0,0,.709.079.667.667,0,0,0,.378-.6V16.66A.671.671,0,0,0,11.654,16.057Z" transform="translate(0 -15.99)" fill="#5cd6ef"/>
      <path id="Tracé_116" data-name="Tracé 116" d="M342.89,122.445a.669.669,0,0,0-.94.952,5.332,5.332,0,0,1,0,7.551.668.668,0,1,0,.94.949,6.668,6.668,0,0,0,0-9.452Z" transform="translate(-327.473 -117.813)" fill="#fdae33"/>
      <path id="Tracé_117" data-name="Tracé 117" d="M388.007,77.319a.669.669,0,0,0-.943.949,7.977,7.977,0,0,1,0,11.322.669.669,0,0,0,.943.949,9.316,9.316,0,0,0,0-13.221Z" transform="translate(-370.704 -74.571)" fill="#fdae33"/>
    </g>
    <g id="mark-as-favorite-star" transform="translate(1452.243 666.78)">
      <g id="star" transform="translate(0 0)">
        <path id="Tracé_1235" data-name="Tracé 1235" d="M10.136,28.23,16.4,32.007l-1.657-7.124,5.529-4.791-7.288-.625L10.136,12.75,7.288,19.467,0,20.092l5.529,4.791L3.872,32.007Z" transform="translate(0 -12.75)" fill="none" stroke="#fdae33" stroke-width="1"/>
      </g>
    </g>
    <g id="speaker-2" data-name="speaker" transform="translate(1420.853 667.809)">
      <path id="Tracé_115-2" data-name="Tracé 115" d="M11.654,16.057a.666.666,0,0,0-.707.08l-6.5,5.2H1.337A1.339,1.339,0,0,0,0,22.676v5.348A1.338,1.338,0,0,0,1.337,29.36H4.444l6.5,5.2a.669.669,0,0,0,.709.079.667.667,0,0,0,.378-.6V16.66A.671.671,0,0,0,11.654,16.057Z" transform="translate(0 -15.99)" fill="#5cd6ef"/>
      <path id="Tracé_116-2" data-name="Tracé 116" d="M342.89,122.445a.669.669,0,0,0-.94.952,5.332,5.332,0,0,1,0,7.551.668.668,0,1,0,.94.949,6.668,6.668,0,0,0,0-9.452Z" transform="translate(-327.473 -117.813)" fill="#fdae33"/>
      <path id="Tracé_117-2" data-name="Tracé 117" d="M388.007,77.319a.669.669,0,0,0-.943.949,7.977,7.977,0,0,1,0,11.322.669.669,0,0,0,.943.949,9.316,9.316,0,0,0,0-13.221Z" transform="translate(-370.704 -74.571)" fill="#fda62e"/>
    </g>
  </g>
</svg>
