<svg xmlns="http://www.w3.org/2000/svg" width="101.764" height="151.863" viewBox="0 0 101.764 151.863">
  <g id="Groupe_1345" data-name="Groupe 1345" transform="translate(-230.822 -1007.581)">
    <path id="Union_66" data-name="Union 66" d="M2.263,5.062V4.778a2.424,2.424,0,0,1-.283-.033v.317a.283.283,0,0,1-.565,0V4.571a2.4,2.4,0,0,1-.284-.151V4.5a.283.283,0,0,1-.565,0V3.933A2.388,2.388,0,0,1,2.4,0a2.4,2.4,0,0,1,2.4,2.39A2.37,2.37,0,0,1,4.47,3.616l.214.437a.279.279,0,0,1-.131.375A.283.283,0,0,1,4.176,4.3l-.1-.194a2.413,2.413,0,0,1-.4.314V4.78a.283.283,0,0,1-.566,0v-.1a2.4,2.4,0,0,1-.283.068v.317a.283.283,0,0,1-.566,0Z" transform="translate(243.802 1118.247) rotate(-8)" fill="#5cd6ef"/>
    <path id="Tracé_1162" data-name="Tracé 1162" d="M-20115.213-22254.486l-6.941,12.121,13.982,8.605" transform="translate(20355 23353.943)" fill="none" stroke="#5cd6ef" stroke-width="3"/>
    <path id="Tracé_1075" data-name="Tracé 1075" d="M79.935,87.73V40.142c0-15.078-7.594-28.247-18.89-35.3A35.412,35.412,0,0,0,46.278,1.618L15.412,0S8.925,1.087,4.684,11.191C1.662,18.386,0,29.024,0,37.875v62.686c4.882,2.5,10.518-1.358,10.518-7.167V60.537A4.379,4.379,0,0,1,14.725,56v59.973c5.562,3.46,12.621-.842,12.621-7.852V60.537A4.379,4.379,0,0,1,31.553,56c.026,0,0-1.41,0,69.037,5.614,3.492,12.621-.9,12.621-7.852V60.537A4.379,4.379,0,0,1,48.382,56v64.5C53.944,123.97,61,119.668,61,112.657V57.444a3.11,3.11,0,0,1,1.4-1.54,7.741,7.741,0,0,1,2.721-.569L65.21,87.5a14.186,14.186,0,0,0,10.518,4.762A4.375,4.375,0,0,0,79.935,87.73Z" transform="translate(320.967 1133.676) rotate(177)" fill="#5cd6ef"/>
    <path id="Tracé_1076" data-name="Tracé 1076" d="M108.881,129.12a51.662,51.662,0,0,0,2.95,24.087" transform="translate(195.679 1003.032)" fill="none" stroke="#5cd6ef" stroke-miterlimit="10" stroke-width="3"/>
    <path id="Tracé_1077" data-name="Tracé 1077" d="M77.132,131.46c.726,10.027.726,18.734-2.022,22.457" transform="translate(189.34 1001.808)" fill="none" stroke="#5cd6ef" stroke-miterlimit="10" stroke-width="3"/>
    <circle id="Ellipse_302" data-name="Ellipse 302" cx="8" cy="8" r="8" transform="translate(285 1089)" fill="#fff"/>
    <ellipse id="Ellipse_303" data-name="Ellipse 303" cx="9" cy="8" rx="9" ry="8" transform="translate(255 1089)" fill="#fff"/>
    <ellipse id="Ellipse_304" data-name="Ellipse 304" cx="2" cy="2.5" rx="2" ry="2.5" transform="translate(262 1095)"/>
    <circle id="Ellipse_305" data-name="Ellipse 305" cx="2.5" cy="2.5" r="2.5" transform="translate(291 1095)"/>
    <path id="Tracé_1082" data-name="Tracé 1082" d="M3097.593,691.777c1.259-.881,5.194,2.814,10.172,3.143s8.511-2.808,9.74-1.826c2.543,2.033-4.761,7.143-9.74,6.814S3095.158,693.48,3097.593,691.777Z" transform="translate(-2826.677 419.71)" fill="#fff"/>
    <path id="Tracé_1075-2" data-name="Tracé 1075" d="M79.935,87.73V40.142c0-15.078-7.594-28.247-18.89-35.3A35.412,35.412,0,0,0,46.278,1.618L15.412,0S8.925,1.087,4.684,11.191C1.662,18.386,0,29.024,0,37.875v62.686c4.882,2.5,10.518-1.358,10.518-7.167V60.537A4.379,4.379,0,0,1,14.725,56v59.973c5.562,3.46,12.621-.842,12.621-7.852V60.537A4.379,4.379,0,0,1,31.553,56c.026,0,0-1.41,0,69.037,5.614,3.492,12.621-.9,12.621-7.852V60.537A4.379,4.379,0,0,1,48.382,56v64.5C53.944,123.97,61,119.668,61,112.657V57.444a3.11,3.11,0,0,1,1.4-1.54,7.741,7.741,0,0,1,2.721-.569L65.21,87.5a14.186,14.186,0,0,0,10.518,4.762A4.375,4.375,0,0,0,79.935,87.73Z" transform="translate(320.967 1133.676) rotate(177)" fill="#5cd6ef"/>
    <path id="Tracé_1076-2" data-name="Tracé 1076" d="M108.881,129.12a51.662,51.662,0,0,0,2.95,24.087" transform="translate(195.679 1003.032)" fill="none" stroke="#5cd6ef" stroke-miterlimit="10" stroke-width="3"/>
    <path id="Tracé_1077-2" data-name="Tracé 1077" d="M77.132,131.46c.726,10.027.726,18.734-2.022,22.457" transform="translate(189.34 1001.808)" fill="none" stroke="#5cd6ef" stroke-miterlimit="10" stroke-width="3"/>
    <path id="Union_52" data-name="Union 52" d="M2.263,5.062V4.778a2.424,2.424,0,0,1-.283-.033v.317a.283.283,0,0,1-.565,0V4.571a2.4,2.4,0,0,1-.284-.151V4.5a.283.283,0,0,1-.565,0V3.933A2.388,2.388,0,0,1,2.4,0a2.4,2.4,0,0,1,2.4,2.39A2.37,2.37,0,0,1,4.47,3.616l.214.437a.279.279,0,0,1-.131.375A.283.283,0,0,1,4.176,4.3l-.1-.194a2.413,2.413,0,0,1-.4.314V4.78a.283.283,0,0,1-.566,0v-.1a2.4,2.4,0,0,1-.283.068v.317a.283.283,0,0,1-.566,0Z" transform="translate(262.338 1153.28) rotate(11)" fill="#5cd6ef"/>
    <path id="Union_53" data-name="Union 53" d="M0,2.953A2.373,2.373,0,0,1,.567,1.411V.845a.283.283,0,1,1,.565,0V.924a2.4,2.4,0,0,1,.283-.15V.283a.283.283,0,0,1,.566,0V.6A2.424,2.424,0,0,1,2.263.567V.283a.283.283,0,0,1,.566,0V.6a2.4,2.4,0,0,1,.283.068v-.1a.283.283,0,0,1,.566,0V.925a2.411,2.411,0,0,1,.4.314l.1-.194A.283.283,0,0,1,4.554.916a.28.28,0,0,1,.131.375l-.214.438a2.369,2.369,0,0,1,.339,1.224A2.4,2.4,0,0,1,0,2.953Z" transform="translate(310.343 1158.526) rotate(169)" fill="#5cd6ef"/>
    <path id="Tracé_1153" data-name="Tracé 1153" d="M-19951.785-22642.7c0-1.205,2.709-1.76,6.861-1.166s4.746,2.26,8.291,2.723a13.449,13.449,0,0,0,3.576-.342c1.623-.242,2.314-.533-5.031,2.439a14.861,14.861,0,0,1-6.836,0C-19948.348-22639.955-19951.785-22641.715-19951.785-22642.7Z" transform="translate(20225.975 23757.66)" fill="#fff"/>
    <ellipse id="Ellipse_358" data-name="Ellipse 358" cx="8.5" cy="9" rx="8.5" ry="9" transform="translate(287 1091)" fill="#fff"/>
    <ellipse id="Ellipse_359" data-name="Ellipse 359" cx="8.5" cy="9" rx="8.5" ry="9" transform="translate(258 1091)" fill="#fff"/>
    <circle id="Ellipse_360" data-name="Ellipse 360" cx="2" cy="2" r="2" transform="translate(265 1098)"/>
    <circle id="Ellipse_361" data-name="Ellipse 361" cx="2" cy="2" r="2" transform="translate(294 1098)"/>
    <path id="Tracé_1157" data-name="Tracé 1157" d="M-20176.584-22602.848s26.615,4.059,34.822,3.709,31.945-6.662,31.945-6.662l-1.164,3.311s-20.6,5.836-28.969,6.326-34.082-4.258-34.082-4.258Z" transform="translate(20426.172 23726.773)" stroke="#c1c1c1" stroke-linejoin="round" stroke-width="1"/>
    <path id="Tracé_1161" data-name="Tracé 1161" d="M-20108.693-22597.125l-.256.27-.184.2-3.355,3.52,3.787,3.313-.012-6.855Z" transform="translate(20393.58 23722.533)" stroke="#c1c1c1" stroke-linejoin="round" stroke-width="1"/>
    <path id="Tracé_1158" data-name="Tracé 1158" d="M-20113.4-22587.98l2.412,1.348,3.813-2.285-1.467-1.617-.684.367Z" transform="translate(20394.059 23719.088)" stroke="#c1c1c1" stroke-linejoin="round" stroke-width="1"/>
    <path id="Tracé_1159" data-name="Tracé 1159" d="M-20140.551-22587.928l17.182-9.176v3.73l-14.875,7.758Z" transform="translate(20408.258 23722.521)" stroke="#c1c1c1" stroke-linejoin="round" stroke-width="1"/>
    <path id="Tracé_1156" data-name="Tracé 1156" d="M-20113.965-22595.262l2.768-1.23s2.588,1.293,7.076,3.371c1.793.832,4.3,1.516,6.307,2.426a32.55,32.55,0,0,1,4.557,2.52l-1.955,2.355a15.94,15.94,0,0,0-3.969-2.719c-2.783-1.457-7.174-3.109-7.174-3.109Z" transform="translate(20394.354 23722.203)" stroke="#c1c1c1" stroke-linejoin="round" stroke-width="1"/>
    <path id="Tracé_1160" data-name="Tracé 1160" d="M-20104.533-22597.023v7.254l3.078-1.484.295-4.111-1.986-.977Z" transform="translate(20389.42 23722.479)" stroke="#c1c1c1" stroke-linejoin="round" stroke-width="1"/>
    <path id="Union_67" data-name="Union 67" d="M0,2.953A2.373,2.373,0,0,1,.567,1.411V.845a.283.283,0,1,1,.565,0V.924A2.4,2.4,0,0,1,1.416.773V.283a.283.283,0,1,1,.565,0V.6A2.424,2.424,0,0,1,2.263.567V.283a.283.283,0,0,1,.566,0V.6a2.4,2.4,0,0,1,.283.068v-.1a.283.283,0,0,1,.566,0v.36a2.412,2.412,0,0,1,.4.314l.095-.194A.284.284,0,0,1,4.555.916a.279.279,0,0,1,.13.375l-.214.437A2.369,2.369,0,0,1,4.81,2.953a2.4,2.4,0,0,1-4.81,0Z" transform="translate(320.97 1120.332) rotate(-172)" fill="#5cd6ef"/>
    <path id="Tracé_1165" data-name="Tracé 1165" d="M-20123.967-22257.172l12.619,13.738-11.652,8.422" transform="translate(20441.688 23351.986)" fill="none" stroke="#5cd6ef" stroke-width="3"/>
    <path id="Tracé_1166" data-name="Tracé 1166" d="M-20128.369-22337.318a302.9,302.9,0,0,0,40,1.488,300.723,300.723,0,0,0,39.887-4.744l.143,2.477.242,4.779a95.4,95.4,0,0,1-34.924,7.67c-16.779.563-44.984-4.428-44.984-4.428Z" transform="translate(20366.443 23416.9)" fill="#fff"/>
    <path id="Tracé_1154" data-name="Tracé 1154" d="M-19988.723-22691.93s.57-2.488,4.629-2.148,7.365,2.914,11.609,3.508c6.184.863,5.418-1.82,5.418-1.82" transform="translate(20243.707 23782.545)" fill="none" stroke="#000" stroke-width="1"/>
    <path id="Tracé_1155" data-name="Tracé 1155" d="M-19967.039-22691.93s-.57-2.488-4.629-2.148-7.363,2.914-11.607,3.508c-6.186.863-5.416-1.82-5.416-1.82" transform="translate(20273.1 23782.545)" fill="none" stroke="#000" stroke-width="1"/>
    <path id="Tracé_1167" data-name="Tracé 1167" d="M0,0,10.149,1.812l3.029.662L.024.688Z" transform="matrix(0.999, 0.035, -0.035, 0.999, 238.036, 1081.215)" fill="#f0f0f0"/>
    <path id="Tracé_1168" data-name="Tracé 1168" d="M0,0,10.149,1.812l2.625.61L.094.642Z" transform="matrix(0.999, 0.035, -0.035, 0.999, 238.036, 1083.353)" fill="#f0f0f0"/>
    <path id="Tracé_1169" data-name="Tracé 1169" d="M0,2.475,10.149.662,13.178,0,.024,1.787Z" transform="translate(318.509 1080.438) rotate(173)" fill="#f0f0f0"/>
    <path id="Tracé_1170" data-name="Tracé 1170" d="M0,2.422,10.149.61,12.774,0,.094,1.781Z" transform="translate(318.689 1082.517) rotate(173)" fill="#f0f0f0"/>
  </g>
</svg>
