<svg xmlns="http://www.w3.org/2000/svg" width="258.873" height="396.57" viewBox="0 0 258.873 396.57">
  <g id="Groupe_944" data-name="Groupe 944" transform="translate(2.024 0)">
    <path id="Union_66" data-name="Union 66" d="M5.911,13.217v-.741a6.329,6.329,0,0,1-.738-.086v.827a.739.739,0,0,1-1.478,0V11.935a6.278,6.278,0,0,1-.738-.393v.205a.739.739,0,0,1-1.478,0V10.269A6.2,6.2,0,0,1,0,6.243a6.279,6.279,0,0,1,12.559,0,6.188,6.188,0,0,1-.885,3.2l.56,1.141a.733.733,0,0,1-.34.982.741.741,0,0,1-.988-.338l-.248-.506A6.3,6.3,0,0,1,9.6,11.54v.941a.739.739,0,1,1-1.478,0v-.269a6.267,6.267,0,0,1-.738.177v.828a.739.739,0,0,1-1.478,0Z" transform="translate(28.61 288.99) rotate(-8)" fill="#5cd6ef"/>
    <path id="Tracé_1162" data-name="Tracé 1162" d="M-20104.029-22254.484l-18.123,31.648,36.5,22.473" transform="translate(20122.152 22494.406)" fill="none" stroke="#5cd6ef" stroke-width="3"/>
    <path id="Tracé_1075" data-name="Tracé 1075" d="M208.741,229.1V104.825c0-39.375-19.83-73.764-49.329-92.19A92.475,92.475,0,0,0,120.85,4.224L40.248,0S23.307,2.838,12.231,29.223C4.339,48.011,0,75.794,0,98.907V262.6c12.75,6.53,27.466-3.548,27.466-18.714V158.084c0-6.516,4.9-11.835,10.986-11.835V302.861c14.525,9.036,32.959-2.2,32.959-20.5V158.085c0-6.537,4.919-11.835,10.986-11.835.069,0,0-3.681,0,180.282,14.659,9.119,32.959-2.337,32.959-20.5V158.085c0-6.516,4.9-11.835,10.986-11.835V314.7c14.525,9.036,32.959-2.2,32.959-20.5V150.007a8.12,8.12,0,0,1,3.658-4.023c2.691-1.377,7.1-1.487,7.1-1.487l.223,84a37.047,37.047,0,0,0,27.466,12.435C203.833,240.931,208.741,235.636,208.741,229.1Z" transform="translate(230.118 329.282) rotate(177)" fill="#5cd6ef"/>
    <path id="Tracé_1076" data-name="Tracé 1076" d="M109.4,129.12c-2.205,21.122-.186,42.12,7.7,62.9" transform="translate(77.875 196.182)" fill="none" stroke="#5cd6ef" stroke-miterlimit="10" stroke-width="3"/>
    <path id="Tracé_1077" data-name="Tracé 1077" d="M80.391,131.46c1.895,26.185,1.895,48.923-5.281,58.645" transform="translate(7.422 196.755)" fill="none" stroke="#5cd6ef" stroke-miterlimit="10" stroke-width="3"/>
    <ellipse id="Ellipse_302" data-name="Ellipse 302" cx="22.541" cy="23.204" rx="22.541" ry="23.204" transform="translate(133.764 210.769)" fill="#fff"/>
    <ellipse id="Ellipse_303" data-name="Ellipse 303" cx="22.541" cy="23.204" rx="22.541" ry="23.204" transform="translate(58.187 210.769)" fill="#fff"/>
    <ellipse id="Ellipse_304" data-name="Ellipse 304" cx="5.967" cy="5.967" rx="5.967" ry="5.967" transform="translate(75.424 228.006)"/>
    <ellipse id="Ellipse_305" data-name="Ellipse 305" cx="5.304" cy="5.967" rx="5.304" ry="5.967" transform="translate(152.327 228.006)"/>
    <path id="Tracé_1082" data-name="Tracé 1082" d="M3098.347,691.995c3.287-2.3,13.563,7.348,26.563,8.208s22.226-7.332,25.434-4.768c6.641,5.308-12.434,18.653-25.434,17.793S3091.989,696.443,3098.347,691.995Z" transform="translate(-2998.93 -420.658)" fill="#fff"/>
    <path id="Tracé_1075-2" data-name="Tracé 1075" d="M208.741,229.1V104.825c0-39.375-19.83-73.764-49.329-92.19A92.475,92.475,0,0,0,120.85,4.224L40.248,0S23.307,2.838,12.231,29.223C4.339,48.011,0,75.794,0,98.907V262.6c12.75,6.53,27.466-3.548,27.466-18.714V158.084c0-6.516,4.9-11.835,10.986-11.835V302.861c14.525,9.036,32.959-2.2,32.959-20.5V158.085c0-6.537,4.919-11.835,10.986-11.835.069,0,0-3.681,0,180.282,14.659,9.119,32.959-2.337,32.959-20.5V158.085c0-6.516,4.9-11.835,10.986-11.835V314.7c14.525,9.036,32.959-2.2,32.959-20.5V150.007a8.12,8.12,0,0,1,3.658-4.023c2.691-1.377,7.1-1.487,7.1-1.487l.223,84a37.047,37.047,0,0,0,27.466,12.435C203.833,240.931,208.741,235.636,208.741,229.1Z" transform="translate(230.118 329.282) rotate(177)" fill="#5cd6ef"/>
    <path id="Tracé_1076-2" data-name="Tracé 1076" d="M109.4,129.12c-2.205,21.122-.186,42.12,7.7,62.9" transform="translate(77.875 196.182)" fill="none" stroke="#5cd6ef" stroke-miterlimit="10" stroke-width="3"/>
    <path id="Tracé_1077-2" data-name="Tracé 1077" d="M80.391,131.46c1.895,26.185,1.895,48.923-5.281,58.645" transform="translate(7.422 196.755)" fill="none" stroke="#5cd6ef" stroke-miterlimit="10" stroke-width="3"/>
    <path id="Union_52" data-name="Union 52" d="M5.911,13.217v-.741a6.329,6.329,0,0,1-.738-.086v.827a.739.739,0,0,1-1.478,0V11.935a6.278,6.278,0,0,1-.738-.393v.205a.739.739,0,0,1-1.478,0V10.269A6.2,6.2,0,0,1,0,6.243a6.279,6.279,0,0,1,12.559,0,6.188,6.188,0,0,1-.885,3.2l.56,1.141a.733.733,0,0,1-.34.982.741.741,0,0,1-.988-.338l-.248-.506A6.3,6.3,0,0,1,9.6,11.54v.941a.739.739,0,1,1-1.478,0v-.269a6.267,6.267,0,0,1-.738.177v.828a.739.739,0,0,1-1.478,0Z" transform="translate(77.017 380.474) rotate(11)" fill="#5cd6ef"/>
    <path id="Union_53" data-name="Union 53" d="M0,7.712A6.2,6.2,0,0,1,1.48,3.687V2.208a.739.739,0,0,1,1.478,0v.205A6.278,6.278,0,0,1,3.7,2.02V.739a.739.739,0,0,1,1.478,0v.826a6.329,6.329,0,0,1,.738-.086V.739a.739.739,0,0,1,1.478,0v.827a6.268,6.268,0,0,1,.738.178V1.474a.739.739,0,0,1,1.478,0v.941a6.3,6.3,0,0,1,1.052.821l.249-.506a.741.741,0,0,1,.987-.338.732.732,0,0,1,.34.982l-.559,1.141a6.186,6.186,0,0,1,.885,3.2A6.279,6.279,0,0,1,0,7.712Z" transform="translate(202.376 394.173) rotate(169)" fill="#5cd6ef"/>
    <path id="Tracé_1153" data-name="Tracé 1153" d="M-19951.785-22640.43c0-3.148,7.074-4.594,17.914-3.041s12.389,5.9,21.648,7.105c3.115.4,6.766-.5,9.34-.889,4.242-.637,6.043-1.391-13.139,6.369a38.773,38.773,0,0,1-17.85,0C-19942.811-22633.273-19951.785-22637.869-19951.785-22640.43Z" transform="translate(20059.752 22920.844)" fill="#fff"/>
    <ellipse id="Ellipse_358" data-name="Ellipse 358" cx="21.878" cy="23.204" rx="21.878" ry="23.204" transform="translate(141.72 217.398)" fill="#fff"/>
    <ellipse id="Ellipse_359" data-name="Ellipse 359" cx="22.541" cy="23.204" rx="22.541" ry="23.204" transform="translate(66.142 217.398)" fill="#fff"/>
    <ellipse id="Ellipse_360" data-name="Ellipse 360" cx="5.967" cy="5.967" rx="5.967" ry="5.967" transform="translate(83.379 235.961)"/>
    <ellipse id="Ellipse_361" data-name="Ellipse 361" cx="5.967" cy="5.967" rx="5.967" ry="5.967" transform="translate(158.957 235.961)"/>
    <path id="Tracé_1157" data-name="Tracé 1157" d="M-20176.586-22598.092s69.5,10.6,90.934,9.689,83.424-17.4,83.424-17.4l-3.037,8.648s-53.791,15.238-75.652,16.523-89-11.121-89-11.121Z" transform="translate(20220.303 22901.912)" stroke="#c1c1c1" stroke-linejoin="round" stroke-width="1"/>
    <path id="Tracé_1161" data-name="Tracé 1161" d="M-20102.578-22597.125l-.668.7-.484.5-8.76,9.2,9.887,8.648-.031-17.9Z" transform="translate(20238.477 22904.816)" stroke="#c1c1c1" stroke-linejoin="round" stroke-width="1"/>
    <path id="Tracé_1158" data-name="Tracé 1158" d="M-20113.4-22583.867l6.3,3.52,9.955-5.961-3.832-4.227-1.787.961Z" transform="translate(20238.26 22906.438)" stroke="#c1c1c1" stroke-linejoin="round" stroke-width="1"/>
    <path id="Tracé_1159" data-name="Tracé 1159" d="M-20140.553-22573.141l44.865-23.961v9.744l-38.838,20.252Z" transform="translate(20231.588 22904.811)" stroke="#c1c1c1" stroke-linejoin="round" stroke-width="1"/>
    <path id="Tracé_1156" data-name="Tracé 1156" d="M-20113.967-22593.283l7.229-3.209s6.756,3.377,18.477,8.8c4.682,2.178,11.227,3.963,16.471,6.342a84.4,84.4,0,0,1,11.9,6.574l-5.113,6.143s-3.086-3.289-10.357-7.094-18.738-8.121-18.738-8.121Z" transform="translate(20238.121 22904.973)" stroke="#c1c1c1" stroke-linejoin="round" stroke-width="1"/>
    <path id="Tracé_1160" data-name="Tracé 1160" d="M-20104.537-22597.023v18.941l8.043-3.869.766-10.744-5.184-2.545Z" transform="translate(20240.436 22904.842)" stroke="#c1c1c1" stroke-linejoin="round" stroke-width="1"/>
    <path id="Union_67" data-name="Union 67" d="M0,7.712A6.2,6.2,0,0,1,1.48,3.687V2.208a.739.739,0,0,1,1.478,0v.205A6.278,6.278,0,0,1,3.7,2.02V.739a.739.739,0,0,1,1.478,0v.826a6.323,6.323,0,0,1,.739-.086V.739a.738.738,0,1,1,1.477,0v.827a6.273,6.273,0,0,1,.739.178V1.474a.738.738,0,0,1,1.477,0v.941a6.3,6.3,0,0,1,1.052.821l.248-.506a.742.742,0,0,1,.988-.338.733.733,0,0,1,.34.983l-.56,1.14a6.187,6.187,0,0,1,.885,3.2A6.28,6.28,0,0,1,0,7.712Z" transform="translate(230.127 294.433) rotate(-172)" fill="#5cd6ef"/>
    <path id="Tracé_1165" data-name="Tracé 1165" d="M-20123.971-22257.178l32.961,35.875-30.436,22" transform="translate(20345.613 22484.975)" fill="none" stroke="#5cd6ef" stroke-width="3"/>
    <path id="Tracé_1166" data-name="Tracé 1166" d="M-20128.373-22332.07s52.813,5.949,104.443,3.883,104.162-12.385,104.162-12.385l.371,6.465.631,12.479s-37.885,18.25-91.2,20.033c-43.816,1.469-117.473-11.562-117.473-11.562Z" transform="translate(20142.027 22520.09)" fill="#fff"/>
    <path id="Tracé_1154" data-name="Tracé 1154" d="M-19988.723-22688.41s1.488-6.506,12.086-5.621,19.234,7.619,30.316,9.168c16.148,2.254,14.145-4.756,14.145-4.756" transform="translate(20046.537 22905.254)" fill="none" stroke="#000" stroke-width="1"/>
    <path id="Tracé_1155" data-name="Tracé 1155" d="M-19932.1-22688.41s-1.488-6.506-12.092-5.621-19.229,7.619-30.307,9.168c-16.152,2.254-14.143-4.756-14.143-4.756" transform="translate(20123.285 22905.254)" fill="none" stroke="#000" stroke-width="1"/>
    <path id="Tracé_1167" data-name="Tracé 1167" d="M0,0,26.5,4.733l7.911,1.728L.062,1.8Z" transform="matrix(0.999, 0.035, -0.035, 0.999, 13.555, 192.286)" fill="#f0f0f0"/>
    <path id="Tracé_1168" data-name="Tracé 1168" d="M0,0,26.5,4.733l6.855,1.592L.246,1.676Z" transform="matrix(0.999, 0.035, -0.035, 0.999, 13.555, 197.867)" fill="#f0f0f0"/>
    <path id="Tracé_1169" data-name="Tracé 1169" d="M0,6.462,26.5,1.728,34.412,0,.063,4.666Z" transform="translate(223.701 190.257) rotate(173)" fill="#f0f0f0"/>
    <path id="Tracé_1170" data-name="Tracé 1170" d="M0,6.326,26.5,1.592,33.357,0,.245,4.65Z" transform="translate(224.171 195.684) rotate(173)" fill="#f0f0f0"/>
  </g>
</svg>
