<svg xmlns="http://www.w3.org/2000/svg" width="156.525" height="117.886" viewBox="0 0 156.525 117.886">
  <g id="Groupe_962" data-name="Groupe 962" transform="matrix(0.999, -0.035, 0.035, 0.999, -393.422, -1318.295)">
    <g id="Groupe_958" data-name="Groupe 958" transform="translate(411.267 1335.254) rotate(3)">
      <path id="Tracé_1132" data-name="Tracé 1132" d="M60.531,66.434V30.4a31.365,31.365,0,0,0-14.3-26.733A26.816,26.816,0,0,0,35.044,1.225L11.671,0S6.758.823,3.547,8.474C1.258,13.922,0,21.979,0,28.681V76.15c3.7,1.893,7.965-1.029,7.965-5.427V45.841a3.316,3.316,0,0,1,3.186-3.432V87.824c4.212,2.62,9.558-.637,9.558-5.946V45.842a3.316,3.316,0,0,1,3.186-3.432c.02,0,0-1.067,0,52.278,4.251,2.644,9.557-.678,9.557-5.946v-42.9a3.316,3.316,0,0,1,3.186-3.432V91.256c4.212,2.62,9.558-.638,9.558-5.946V43.5a2.355,2.355,0,0,1,1.061-1.166,5.862,5.862,0,0,1,2.06-.431L49.38,66.26a10.743,10.743,0,0,0,7.965,3.606A3.313,3.313,0,0,0,60.531,66.434Z" transform="translate(75.466 95.486) rotate(177)" fill="#5cd6ef"/>
      <path id="Tracé_1133" data-name="Tracé 1133" d="M.243,0A39.121,39.121,0,0,0,2.476,18.24" transform="translate(62.799 94.331)" fill="none" stroke="#5cd6ef" stroke-miterlimit="10" stroke-width="3"/>
      <path id="Tracé_1134" data-name="Tracé 1134" d="M1.531,0C2.081,7.593,2.081,14.187,0,17.006" transform="translate(32.668 95.175)" fill="none" stroke="#5cd6ef" stroke-miterlimit="10" stroke-width="3"/>
      <circle id="Ellipse_345" data-name="Ellipse 345" cx="6.474" cy="6.474" r="6.474" transform="translate(47.645 61.272)" fill="#fff"/>
      <circle id="Ellipse_346" data-name="Ellipse 346" cx="6.474" cy="6.474" r="6.474" transform="translate(25.794 61.272)" fill="#fff"/>
      <circle id="Ellipse_347" data-name="Ellipse 347" cx="1.821" cy="1.821" r="1.821" transform="translate(30.649 66.128)"/>
      <ellipse id="Ellipse_348" data-name="Ellipse 348" cx="1.619" cy="1.821" rx="1.619" ry="1.821" transform="translate(52.905 66.128)"/>
      <path id="Tracé_1135" data-name="Tracé 1135" d="M.354.1c.953-.667,3.933,2.131,7.7,2.38S14.5.356,15.432,1.1c1.926,1.539-3.606,5.409-7.375,5.16S-1.49,1.392.354.1Z" transform="translate(37.21 78.58)" fill="#fff"/>
      <path id="Tracé_1136" data-name="Tracé 1136" d="M60.531,66.434V30.4a31.365,31.365,0,0,0-14.3-26.733A26.816,26.816,0,0,0,35.044,1.225L11.671,0S6.758.823,3.547,8.474C1.258,13.922,0,21.979,0,28.681V76.15c3.7,1.893,7.965-1.029,7.965-5.427V45.841a3.316,3.316,0,0,1,3.186-3.432V87.824c4.212,2.62,9.558-.637,9.558-5.946V45.842a3.316,3.316,0,0,1,3.186-3.432c.02,0,0-1.067,0,52.278,4.251,2.644,9.557-.678,9.557-5.946v-42.9a3.316,3.316,0,0,1,3.186-3.432V91.256c4.212,2.62,9.558-.638,9.558-5.946V43.5a2.355,2.355,0,0,1,1.061-1.166,5.862,5.862,0,0,1,2.06-.431L49.38,66.26a10.743,10.743,0,0,0,7.965,3.606A3.313,3.313,0,0,0,60.531,66.434Z" transform="translate(75.466 95.486) rotate(177)" fill="#5cd6ef"/>
      <path id="Tracé_1137" data-name="Tracé 1137" d="M.243,0A39.121,39.121,0,0,0,2.476,18.24" transform="translate(62.799 94.331)" fill="none" stroke="#5cd6ef" stroke-miterlimit="10" stroke-width="3"/>
      <path id="Tracé_1138" data-name="Tracé 1138" d="M1.531,0C2.081,7.593,2.081,14.187,0,17.006" transform="translate(32.668 95.175)" fill="none" stroke="#5cd6ef" stroke-miterlimit="10" stroke-width="3"/>
      <circle id="Ellipse_349" data-name="Ellipse 349" cx="6.474" cy="6.474" r="6.474" transform="translate(47.645 61.272)" fill="#fff"/>
      <circle id="Ellipse_350" data-name="Ellipse 350" cx="6.474" cy="6.474" r="6.474" transform="translate(25.794 61.272)" fill="#fff"/>
      <circle id="Ellipse_351" data-name="Ellipse 351" cx="1.821" cy="1.821" r="1.821" transform="translate(30.649 66.128)"/>
      <ellipse id="Ellipse_352" data-name="Ellipse 352" cx="1.619" cy="1.821" rx="1.619" ry="1.821" transform="translate(52.905 66.128)"/>
      <path id="Tracé_1139" data-name="Tracé 1139" d="M.354.1c.953-.667,3.933,2.131,7.7,2.38S14.5.356,15.432,1.1c1.926,1.539-3.606,5.409-7.375,5.16S-1.49,1.392.354.1Z" transform="translate(37.21 78.58)" fill="#fff"/>
      <path id="Tracé_1140" data-name="Tracé 1140" d="M15.855,0C14.31.8,14.79,4.032,0,.512" transform="translate(71.892 79.29)" fill="none" stroke="#5cd6ef" stroke-miterlimit="10" stroke-width="2"/>
      <path id="Union_61" data-name="Union 61" d="M2.575,6.974V5.435A2.751,2.751,0,0,1,2.253,5.4V6.974a.322.322,0,0,1-.644,0V5.2a2.733,2.733,0,0,1-.331-.177l-.2.76a.322.322,0,1,1-.622-.167l.28-1.043A2.717,2.717,0,0,1,2.735,0,2.727,2.727,0,0,1,5.47,2.72a2.7,2.7,0,0,1-.386,1.394l.539,1.1c.119.243.086.5-.075.579s-.385-.056-.5-.3l-.4-.824a2.744,2.744,0,0,1-.458.357V6.653a.322.322,0,1,1-.643,0V5.32a2.727,2.727,0,0,1-.321.077V6.974a.322.322,0,0,1-.643,0Z" transform="translate(86.743 82.84) rotate(-106)" fill="#5cd6ef"/>
      <path id="Union_62" data-name="Union 62" d="M2.575,6.974V5.435A2.751,2.751,0,0,1,2.253,5.4V6.974a.322.322,0,0,1-.644,0V5.2a2.733,2.733,0,0,1-.331-.177l-.2.76a.322.322,0,1,1-.622-.167l.28-1.043A2.717,2.717,0,0,1,2.735,0,2.727,2.727,0,0,1,5.47,2.72a2.7,2.7,0,0,1-.386,1.394l.539,1.1c.119.243.086.5-.075.579s-.385-.056-.5-.3l-.4-.824a2.744,2.744,0,0,1-.458.357V6.653a.322.322,0,1,1-.643,0V5.32a2.727,2.727,0,0,1-.321.077V6.974a.322.322,0,0,1-.643,0Z" transform="translate(86.743 82.84) rotate(-106)" fill="#5cd6ef"/>
      <path id="Tracé_1143" data-name="Tracé 1143" d="M0,0C1.294.669.892,3.378,13.284.429" transform="translate(3.462 79.378)" fill="none" stroke="#fec34f" stroke-miterlimit="10" stroke-width="2"/>
      <path id="Union_63" data-name="Union 63" d="M0,3.834A2.265,2.265,0,0,1,.614,2.281L.38,1.408a.269.269,0,1,1,.52-.14l.171.636a2.287,2.287,0,0,1,.278-.149V.269a.27.27,0,0,1,.539,0V1.59a2.309,2.309,0,0,1,.27-.031V.269a.27.27,0,0,1,.539,0V1.59a2.283,2.283,0,0,1,.269.065V.538a.27.27,0,1,1,.539,0V1.9a2.3,2.3,0,0,1,.384.3l.338-.691c.1-.2.288-.315.422-.25s.162.282.063.485l-.452.923a2.26,2.26,0,0,1,.323,1.168A2.291,2.291,0,0,1,0,3.834Z" transform="translate(0 81.155) rotate(-74)" fill="#5cd6ef"/>
      <path id="Union_64" data-name="Union 64" d="M1.715,3.833V3.618A1.834,1.834,0,0,1,1.5,3.593v.24a.214.214,0,0,1-.428,0V3.461a1.821,1.821,0,0,1-.214-.114v.059a.214.214,0,0,1-.428,0V2.978A1.8,1.8,0,0,1,0,1.811a1.821,1.821,0,0,1,3.642,0,1.793,1.793,0,0,1-.257.927l.162.331a.214.214,0,0,1-.385.186l-.072-.147a1.827,1.827,0,0,1-.305.238v.273a.214.214,0,0,1-.428,0V3.541a1.819,1.819,0,0,1-.214.052v.241a.214.214,0,0,1-.428,0Z" transform="translate(31.069 110.33) rotate(11)" fill="#5cd6ef"/>
      <path id="Union_65" data-name="Union 65" d="M0,2.237A1.8,1.8,0,0,1,.429,1.069V.64a.214.214,0,0,1,.428,0V.7A1.821,1.821,0,0,1,1.072.586V.214a.214.214,0,0,1,.428,0V.454A1.832,1.832,0,0,1,1.715.429V.214a.214.214,0,1,1,.428,0v.24a1.817,1.817,0,0,1,.214.052V.428a.214.214,0,0,1,.428,0V.7a1.826,1.826,0,0,1,.305.238L3.163.792a.214.214,0,0,1,.384.186l-.162.331a1.8,1.8,0,0,1,.257.928A1.821,1.821,0,0,1,0,2.237Z" transform="translate(67.421 114.302) rotate(169)" fill="#5cd6ef"/>
      <path id="Tracé_1147" data-name="Tracé 1147" d="M.088,2.661C1.3-1.686,15.724-.332,19.595,4.015s1.066,16.034-4.021,16.034S-1.127,7.008.088,2.661Z" transform="translate(43.702 67.294) rotate(141)"/>
      <path id="Tracé_1148" data-name="Tracé 1148" d="M.089,17.387C1.3,21.734,15.724,20.38,19.595,16.034S20.661,0,15.574,0-1.127,13.041.089,17.387Z" transform="translate(55.393 51.714) rotate(39)"/>
      <line id="Ligne_65" data-name="Ligne 65" x2="10.116" transform="translate(40.563 66.735)" fill="none" stroke="#000" stroke-width="3"/>
      <path id="Tracé_1150" data-name="Tracé 1150" d="M6.908,0a9.981,9.981,0,0,1-2.1,4.412A17.432,17.432,0,0,1,0,7.942" transform="translate(66.461 57.578)" fill="none" stroke="#000" stroke-linecap="round" stroke-width="1"/>
      <path id="Tracé_1149" data-name="Tracé 1149" d="M0,0A6.96,6.96,0,0,0,3.546,2.329a15.67,15.67,0,0,0,5.478,0" transform="translate(13.33 63.203)" fill="none" stroke="#000" stroke-linecap="round" stroke-width="1"/>
    </g>
    <g id="Groupe_957" data-name="Groupe 957" transform="translate(344.258 1333.581)">
      <path id="Tracé_1075" data-name="Tracé 1075" d="M60.531,66.434V30.4a31.365,31.365,0,0,0-14.3-26.733A26.816,26.816,0,0,0,35.044,1.225L11.671,0S6.758.823,3.547,8.474C1.258,13.922,0,21.979,0,28.681V76.15c3.7,1.893,7.965-1.029,7.965-5.427V45.841a3.316,3.316,0,0,1,3.186-3.432V87.824c4.212,2.62,9.558-.637,9.558-5.946V45.842a3.316,3.316,0,0,1,3.186-3.432c.02,0,0-1.067,0,52.278,4.251,2.644,9.557-.678,9.557-5.946v-42.9a3.316,3.316,0,0,1,3.186-3.432V91.256c4.212,2.62,9.558-.638,9.558-5.946V43.5a2.355,2.355,0,0,1,1.061-1.166,5.862,5.862,0,0,1,2.06-.431L49.38,66.26a10.743,10.743,0,0,0,7.965,3.606A3.313,3.313,0,0,0,60.531,66.434Z" transform="translate(75.466 95.486) rotate(177)" fill="#5cd6ef"/>
      <path id="Tracé_1076" data-name="Tracé 1076" d="M111.037,147.36" transform="translate(-45.762 -34.789)" fill="none" stroke="#5cd6ef" stroke-miterlimit="10" stroke-width="3"/>
      <path id="Tracé_1077" data-name="Tracé 1077" d="M76.641,131.46c.549,7.593.549,14.187-1.531,17.006" transform="translate(-42.442 -36.284)" fill="none" stroke="#5cd6ef" stroke-miterlimit="10" stroke-width="3"/>
      <circle id="Ellipse_302" data-name="Ellipse 302" cx="6.5" cy="6.5" r="6.5" transform="translate(47.742 61.419)" fill="#fff"/>
      <circle id="Ellipse_303" data-name="Ellipse 303" cx="6.5" cy="6.5" r="6.5" transform="translate(25.742 61.419)" fill="#fff"/>
      <ellipse id="Ellipse_304" data-name="Ellipse 304" cx="2" cy="1.5" rx="2" ry="1.5" transform="translate(30.742 66.419)"/>
      <circle id="Ellipse_305" data-name="Ellipse 305" cx="1.5" cy="1.5" r="1.5" transform="translate(52.742 66.419)"/>
      <path id="Tracé_1082" data-name="Tracé 1082" d="M3097.48,691.744c.953-.667,3.933,2.131,7.7,2.38s6.445-2.126,7.375-1.383c1.926,1.539-3.606,5.409-7.375,5.16S3095.636,693.034,3097.48,691.744Z" transform="translate(-3059.915 -613.061)" fill="#fff"/>
      <path id="Tracé_1075-2" data-name="Tracé 1075" d="M60.531,66.434V30.4a31.365,31.365,0,0,0-14.3-26.733A26.816,26.816,0,0,0,35.044,1.225L11.671,0S6.758.823,3.547,8.474C1.258,13.922,0,21.979,0,28.681V76.15c3.7,1.893,7.965-1.029,7.965-5.427V45.841a3.316,3.316,0,0,1,3.186-3.432V87.824c4.212,2.62,9.558-.637,9.558-5.946V45.842a3.316,3.316,0,0,1,3.186-3.432c.02,0,0-1.067,0,52.278,4.251,2.644,9.557-.678,9.557-5.946v-42.9a3.316,3.316,0,0,1,3.186-3.432V91.256c4.212,2.62,9.558-.638,9.558-5.946V43.5a2.355,2.355,0,0,1,1.061-1.166,5.862,5.862,0,0,1,2.06-.431L49.38,66.26a10.743,10.743,0,0,0,7.965,3.606A3.313,3.313,0,0,0,60.531,66.434Z" transform="translate(75.466 95.486) rotate(177)" fill="#5cd6ef"/>
      <path id="Tracé_1076-2" data-name="Tracé 1076" d="M108.686,129.12q.054,10.393-.125,20.633" transform="translate(-45.762 -34.789)" fill="none" stroke="#5cd6ef" stroke-miterlimit="10" stroke-width="3"/>
      <path id="Tracé_1077-2" data-name="Tracé 1077" d="M76.641,131.46c.549,7.593.549,14.187-1.531,17.006" transform="translate(-42.442 -36.284)" fill="none" stroke="#5cd6ef" stroke-miterlimit="10" stroke-width="3"/>
      <circle id="Ellipse_306" data-name="Ellipse 306" cx="6.5" cy="6.5" r="6.5" transform="translate(47.742 61.419)" fill="#fff"/>
      <circle id="Ellipse_307" data-name="Ellipse 307" cx="6.5" cy="6.5" r="6.5" transform="translate(25.742 61.419)" fill="#fff"/>
      <circle id="Ellipse_309" data-name="Ellipse 309" cx="1.5" cy="1.5" r="1.5" transform="translate(52.742 66.419)"/>
      <circle id="Ellipse_407" data-name="Ellipse 407" cx="1.5" cy="1.5" r="1.5" transform="translate(31.72 66.685)"/>
      <path id="Tracé_1083" data-name="Tracé 1083" d="M3097.48,691.744c.953-.667,3.933,2.131,7.7,2.38s6.445-2.126,7.375-1.383c1.926,1.539-3.606,5.409-7.375,5.16S3095.636,693.034,3097.48,691.744Z" transform="translate(-3059.915 -613.061)" fill="#fff"/>
      <path id="Tracé_1095" data-name="Tracé 1095" d="M132.855,101.25c-1.545.8-1.064,4.032-15.855.512" transform="translate(-45.108 -21.96)" fill="none" stroke="#5cd6ef" stroke-miterlimit="10" stroke-width="2"/>
      <path id="Union_44" data-name="Union 44" d="M2.575,6.974V5.435A2.751,2.751,0,0,1,2.253,5.4V6.974a.322.322,0,0,1-.644,0V5.2a2.733,2.733,0,0,1-.331-.177l-.2.76a.322.322,0,1,1-.622-.167l.28-1.043A2.717,2.717,0,0,1,2.735,0,2.727,2.727,0,0,1,5.47,2.72a2.7,2.7,0,0,1-.386,1.394l.539,1.1c.119.243.086.5-.075.579s-.385-.056-.5-.3l-.4-.824a2.744,2.744,0,0,1-.458.357V6.653a.322.322,0,1,1-.643,0V5.32a2.727,2.727,0,0,1-.321.077V6.974a.322.322,0,0,1-.643,0Z" transform="translate(86.743 82.841) rotate(-106)" fill="#5cd6ef"/>
      <path id="Union_45" data-name="Union 45" d="M2.575,6.974V5.435A2.751,2.751,0,0,1,2.253,5.4V6.974a.322.322,0,0,1-.644,0V5.2a2.733,2.733,0,0,1-.331-.177l-.2.76a.322.322,0,1,1-.622-.167l.28-1.043A2.717,2.717,0,0,1,2.735,0,2.727,2.727,0,0,1,5.47,2.72a2.7,2.7,0,0,1-.386,1.394l.539,1.1c.119.243.086.5-.075.579s-.385-.056-.5-.3l-.4-.824a2.744,2.744,0,0,1-.458.357V6.653a.322.322,0,1,1-.643,0V5.32a2.727,2.727,0,0,1-.321.077V6.974a.322.322,0,0,1-.643,0Z" transform="translate(86.743 82.841) rotate(-106)" fill="#5cd6ef"/>
      <path id="Tracé_1101" data-name="Tracé 1101" d="M3.32,92.25c1.294.669.892,3.378,13.284.429" transform="translate(0.142 -12.871)" fill="none" stroke="#5cd6ef" stroke-miterlimit="10" stroke-width="2"/>
      <path id="Union_47" data-name="Union 47" d="M0,3.834A2.265,2.265,0,0,1,.614,2.281L.38,1.408a.269.269,0,1,1,.52-.14l.171.636a2.287,2.287,0,0,1,.278-.149V.269a.27.27,0,0,1,.539,0V1.59a2.309,2.309,0,0,1,.27-.031V.269a.27.27,0,0,1,.539,0V1.59a2.283,2.283,0,0,1,.269.065V.538a.27.27,0,1,1,.539,0V1.9a2.3,2.3,0,0,1,.384.3l.338-.691c.1-.2.288-.315.422-.25s.162.282.063.485l-.452.923a2.26,2.26,0,0,1,.323,1.168A2.291,2.291,0,0,1,0,3.834Z" transform="translate(0 81.156) rotate(-74)" fill="#5cd6ef"/>
      <path id="Union_52" data-name="Union 52" d="M1.715,3.833V3.618A1.834,1.834,0,0,1,1.5,3.593v.24a.214.214,0,0,1-.428,0V3.461a1.821,1.821,0,0,1-.214-.114v.059a.214.214,0,0,1-.428,0V2.978A1.8,1.8,0,0,1,0,1.811a1.821,1.821,0,0,1,3.642,0,1.793,1.793,0,0,1-.257.927l.162.331a.214.214,0,0,1-.385.186l-.072-.147a1.827,1.827,0,0,1-.305.238v.273a.214.214,0,0,1-.428,0V3.541a1.819,1.819,0,0,1-.214.052v.241a.214.214,0,0,1-.428,0Z" transform="translate(31.069 110.33) rotate(11)" fill="#5cd6ef"/>
      <path id="Union_53" data-name="Union 53" d="M0,2.237A1.8,1.8,0,0,1,.429,1.069V.64a.214.214,0,0,1,.428,0V.7A1.821,1.821,0,0,1,1.072.586V.214a.214.214,0,0,1,.428,0V.454A1.832,1.832,0,0,1,1.715.429V.214a.214.214,0,1,1,.428,0v.24a1.817,1.817,0,0,1,.214.052V.428a.214.214,0,0,1,.428,0V.7a1.826,1.826,0,0,1,.305.238L3.163.792a.214.214,0,0,1,.384.186l-.162.331a1.8,1.8,0,0,1,.257.928A1.821,1.821,0,0,1,0,2.237Z" transform="translate(65.352 116.232) rotate(169)" fill="#5cd6ef"/>
    </g>
    <g id="Groupe_959" data-name="Groupe 959" transform="translate(421.266 1335.778) rotate(3)">
      <path id="Tracé_1132-2" data-name="Tracé 1132" d="M60.531,66.434V30.4a31.365,31.365,0,0,0-14.3-26.733A26.816,26.816,0,0,0,35.044,1.225L11.671,0S6.758.823,3.547,8.474C1.258,13.922,0,21.979,0,28.681V76.15c3.7,1.893,7.965-1.029,7.965-5.427V45.841a3.316,3.316,0,0,1,3.186-3.432V87.824c4.212,2.62,9.558-.637,9.558-5.946V45.842a3.316,3.316,0,0,1,3.186-3.432c.02,0,0-1.067,0,52.278,4.251,2.644,9.557-.678,9.557-5.946v-42.9a3.316,3.316,0,0,1,3.186-3.432V91.256c4.212,2.62,9.558-.638,9.558-5.946V43.5a2.355,2.355,0,0,1,1.061-1.166,5.862,5.862,0,0,1,2.06-.431L49.38,66.26a10.743,10.743,0,0,0,7.965,3.606A3.313,3.313,0,0,0,60.531,66.434Z" transform="translate(65.452 95.486) rotate(177)" fill="#5cd6ef"/>
      <path id="Tracé_1133-2" data-name="Tracé 1133" d="M.243,0A39.121,39.121,0,0,0,2.476,18.24" transform="translate(52.785 94.331)" fill="none" stroke="#5cd6ef" stroke-miterlimit="10" stroke-width="3"/>
      <path id="Tracé_1134-2" data-name="Tracé 1134" d="M1.531,0C2.081,7.593,2.081,14.187,0,17.006" transform="translate(22.655 95.175)" fill="none" stroke="#5cd6ef" stroke-miterlimit="10" stroke-width="3"/>
      <circle id="Ellipse_345-2" data-name="Ellipse 345" cx="6.474" cy="6.474" r="6.474" transform="translate(37.631 61.272)" fill="#fff"/>
      <circle id="Ellipse_346-2" data-name="Ellipse 346" cx="6.474" cy="6.474" r="6.474" transform="translate(15.78 61.272)" fill="#fff"/>
      <circle id="Ellipse_347-2" data-name="Ellipse 347" cx="1.821" cy="1.821" r="1.821" transform="translate(20.636 66.128)"/>
      <ellipse id="Ellipse_348-2" data-name="Ellipse 348" cx="1.619" cy="1.821" rx="1.619" ry="1.821" transform="translate(42.892 66.128)"/>
      <path id="Tracé_1135-2" data-name="Tracé 1135" d="M.354.1c.953-.667,3.933,2.131,7.7,2.38S14.5.356,15.432,1.1c1.926,1.539-3.606,5.409-7.375,5.16S-1.49,1.392.354.1Z" transform="translate(27.197 78.58)" fill="#fff"/>
      <path id="Tracé_1136-2" data-name="Tracé 1136" d="M60.531,66.434V30.4a31.365,31.365,0,0,0-14.3-26.733A26.816,26.816,0,0,0,35.044,1.225L11.671,0S6.758.823,3.547,8.474C1.258,13.922,0,21.979,0,28.681V76.15c3.7,1.893,7.965-1.029,7.965-5.427V45.841a3.316,3.316,0,0,1,3.186-3.432V87.824c4.212,2.62,9.558-.637,9.558-5.946V45.842a3.316,3.316,0,0,1,3.186-3.432c.02,0,0-1.067,0,52.278,4.251,2.644,9.557-.678,9.557-5.946v-42.9a3.316,3.316,0,0,1,3.186-3.432V91.256c4.212,2.62,9.558-.638,9.558-5.946V43.5a2.355,2.355,0,0,1,1.061-1.166,5.862,5.862,0,0,1,2.06-.431L49.38,66.26a10.743,10.743,0,0,0,7.965,3.606A3.313,3.313,0,0,0,60.531,66.434Z" transform="translate(65.452 95.486) rotate(177)" fill="#fec34f"/>
      <path id="Tracé_1137-2" data-name="Tracé 1137" d="M.243,0A39.121,39.121,0,0,0,2.476,18.24" transform="translate(52.785 94.331)" fill="none" stroke="#fec34f" stroke-miterlimit="10" stroke-width="3"/>
      <path id="Tracé_1138-2" data-name="Tracé 1138" d="M1.531,0C2.081,7.593,2.081,14.187,0,17.006" transform="translate(22.655 95.175)" fill="none" stroke="#fec34f" stroke-miterlimit="10" stroke-width="3"/>
      <circle id="Ellipse_349-2" data-name="Ellipse 349" cx="6.474" cy="6.474" r="6.474" transform="translate(37.631 61.272)" fill="#fff"/>
      <circle id="Ellipse_350-2" data-name="Ellipse 350" cx="6.474" cy="6.474" r="6.474" transform="translate(15.78 61.272)" fill="#fff"/>
      <circle id="Ellipse_351-2" data-name="Ellipse 351" cx="1.821" cy="1.821" r="1.821" transform="translate(20.636 66.128)"/>
      <ellipse id="Ellipse_352-2" data-name="Ellipse 352" cx="1.619" cy="1.821" rx="1.619" ry="1.821" transform="translate(42.892 66.128)"/>
      <path id="Tracé_1139-2" data-name="Tracé 1139" d="M.354.1c.953-.667,3.933,2.131,7.7,2.38S14.5.356,15.432,1.1c1.926,1.539-3.606,5.409-7.375,5.16S-1.49,1.392.354.1Z" transform="translate(27.197 78.58)" fill="#fff"/>
      <path id="Tracé_1140-2" data-name="Tracé 1140" d="M15.855,0C14.31.8,14.79,4.032,0,.512" transform="translate(61.878 79.29)" fill="none" stroke="#fec34f" stroke-miterlimit="10" stroke-width="2"/>
      <path id="Union_61-2" data-name="Union 61" d="M2.575,6.974V5.435A2.751,2.751,0,0,1,2.253,5.4V6.974a.322.322,0,0,1-.644,0V5.2a2.733,2.733,0,0,1-.331-.177l-.2.76a.322.322,0,1,1-.622-.167l.28-1.043A2.717,2.717,0,0,1,2.735,0,2.727,2.727,0,0,1,5.47,2.72a2.7,2.7,0,0,1-.386,1.394l.539,1.1c.119.243.086.5-.075.579s-.385-.056-.5-.3l-.4-.824a2.744,2.744,0,0,1-.458.357V6.653a.322.322,0,1,1-.643,0V5.32a2.727,2.727,0,0,1-.321.077V6.974a.322.322,0,0,1-.643,0Z" transform="translate(76.73 82.84) rotate(-106)" fill="#5cd6ef"/>
      <g id="Union_62-2" data-name="Union 62" transform="translate(76.73 82.84) rotate(-106)" fill="#fec34f">
        <path d="M 2.870589017868042 4.951111316680908 L 2.603579998016357 4.935770034790039 C 2.514950037002563 4.930680274963379 2.426219940185547 4.920350074768066 2.339869976043701 4.905060291290283 L 2.06670355796814 4.856690406799316 L 1.814339995384216 4.743150234222412 C 1.721560001373291 4.701410293579102 1.630590081214905 4.652699947357178 1.543960094451904 4.59837007522583 L 1.286356210708618 4.436826705932617 L 1.287310004234314 4.43326997756958 L 1.097519993782043 4.230440139770508 C 0.7122000455856323 3.818650007247925 0.5000000596046448 3.282160043716431 0.5000000596046448 2.719799995422363 C 0.5000000596046448 1.495800018310547 1.502660036087036 0.5000000596046448 2.735100030899048 0.5000000596046448 C 3.96754002571106 0.5000000596046448 4.970200061798096 1.495800018310547 4.970200061798096 2.719799995422363 C 4.970200061798096 3.121020078659058 4.861420154571533 3.513980150222778 4.655630111694336 3.856220006942749 L 4.51540994644165 4.089419841766357 L 4.517851829528809 4.094406127929688 L 4.293600082397461 4.311079978942871 C 4.179580211639404 4.421259880065918 4.053609848022461 4.519490242004395 3.919219970703125 4.603040218353271 L 3.683200120925903 4.749760150909424 L 3.683200120925903 4.753349304199219 L 3.393589973449707 4.841840267181396 C 3.307719945907593 4.868080139160156 3.21943998336792 4.889309883117676 3.131180047988892 4.904950141906738 L 2.870589017868042 4.951111316680908 Z" stroke="none"/>
        <path d="M 2.840893983840942 4.448585033416748 L 3.043970108032227 4.412610054016113 C 3.112400054931641 4.400490283966064 3.180870056152344 4.38401985168457 3.247480154037476 4.363669872283936 L 3.463276386260986 4.297733306884766 L 3.655230045318604 4.178400039672852 C 3.759649991989136 4.113490104675293 3.857540130615234 4.037149906158447 3.946180105209351 3.951509952545166 L 4.110183238983154 3.793046951293945 L 4.227139949798584 3.598550081253052 C 4.386149883270264 3.334110021591187 4.470200061798096 3.030240058898926 4.470200061798096 2.719799995422363 C 4.470200061798096 1.771500110626221 3.691839933395386 1.00000011920929 2.735100030899048 1.00000011920929 C 1.77836000919342 1.00000011920929 1 1.771500110626221 1 2.719799995422363 C 1 3.154839992523193 1.164290070533752 3.570000171661377 1.462610006332397 3.888820171356201 L 1.617401361465454 4.054242134094238 L 1.809599995613098 4.174769878387451 C 1.87690007686615 4.21697998046875 1.947510004043579 4.254790306091309 2.019490003585815 4.287169933319092 L 2.215157270431519 4.375200748443604 L 2.427050113677979 4.412720203399658 C 2.494120121002197 4.424590110778809 2.563169956207275 4.432630062103271 2.632260084152222 4.436600208282471 L 2.840893983840942 4.448585033416748 M 2.896199941635132 7.295400142669678 C 2.718899965286255 7.295400142669678 2.574900150299072 7.151400089263916 2.574900150299072 6.974100112915039 L 2.574900150299072 5.43494987487793 C 2.465590000152588 5.428669929504395 2.358200073242188 5.416079998016357 2.252700090408325 5.39739990234375 L 2.252700090408325 6.974100112915039 C 2.252700090408325 7.151400089263916 2.108700037002563 7.295400142669678 1.931400060653687 7.295400142669678 C 1.753200054168701 7.295400142669678 1.609200000762939 7.151400089263916 1.609200000762939 6.974100112915039 L 1.609200000762939 5.199130058288574 C 1.494440078735352 5.147500038146973 1.38398003578186 5.088230133056641 1.278320074081421 5.021970272064209 L 1.074600100517273 5.781599998474121 C 1.036154866218567 5.925580978393555 0.9061517119407654 6.020313262939453 0.7639291882514954 6.020315647125244 C 0.7363510727882385 6.020316123962402 0.7083191275596619 6.016755104064941 0.6804000735282898 6.009300231933594 C 0.5085000395774841 5.963399887084961 0.4068000614643097 5.787000179290771 0.4527000486850739 5.615099906921387 L 0.732420027256012 4.572060108184814 C 0.2780500650405884 4.086470127105713 5.149841086904416e-08 3.435369968414307 5.149841086904416e-08 2.719799995422363 C 5.149841086904416e-08 1.217700123786926 1.224900007247925 7.133483848065225e-08 2.735100030899048 7.133483848065225e-08 C 4.246200084686279 7.133483848065225e-08 5.470200061798096 1.217700123786926 5.470200061798096 2.719799995422363 C 5.470200061798096 3.229360103607178 5.329269886016846 3.706210136413574 5.08413028717041 4.113880157470703 L 5.623199939727783 5.214600086212158 C 5.742000102996826 5.457600116729736 5.708700180053711 5.716800212860107 5.548500061035156 5.793300151824951 C 5.517814636230469 5.808209419250488 5.484649658203125 5.815304279327393 5.450263500213623 5.815305233001709 C 5.306137084960938 5.815310001373291 5.140416145324707 5.690691947937012 5.04449987411499 5.494500160217285 L 4.641029834747314 4.670660018920898 C 4.501930236816406 4.805059909820557 4.348480224609375 4.924920082092285 4.183199882507324 5.027669906616211 L 4.183199882507324 6.6528000831604 C 4.183199882507324 6.830999851226807 4.039199829101563 6.974999904632568 3.861900091171265 6.974999904632568 C 3.683700084686279 6.974999904632568 3.539700031280518 6.830999851226807 3.539700031280518 6.6528000831604 L 3.539700031280518 5.320020198822021 C 3.435070037841797 5.351990222930908 3.327970027923584 5.377870082855225 3.218400001525879 5.397280216217041 L 3.218400001525879 6.974100112915039 C 3.218400001525879 7.151400089263916 3.074399948120117 7.295400142669678 2.896199941635132 7.295400142669678 Z" stroke="none" fill="#fec34f"/>
      </g>
      <path id="Union_64-2" data-name="Union 64" d="M1.715,3.833V3.618A1.834,1.834,0,0,1,1.5,3.593v.24a.214.214,0,0,1-.428,0V3.461a1.821,1.821,0,0,1-.214-.114v.059a.214.214,0,0,1-.428,0V2.978A1.8,1.8,0,0,1,0,1.811a1.821,1.821,0,0,1,3.642,0,1.793,1.793,0,0,1-.257.927l.162.331a.214.214,0,0,1-.385.186l-.072-.147a1.827,1.827,0,0,1-.305.238v.273a.214.214,0,0,1-.428,0V3.541a1.819,1.819,0,0,1-.214.052v.241a.214.214,0,0,1-.428,0Z" transform="translate(21.055 110.33) rotate(11)" fill="#fec34f"/>
      <path id="Union_65-2" data-name="Union 65" d="M0,2.237A1.8,1.8,0,0,1,.429,1.069V.64a.214.214,0,0,1,.428,0V.7A1.821,1.821,0,0,1,1.072.586V.214a.214.214,0,0,1,.428,0V.454A1.832,1.832,0,0,1,1.715.429V.214a.214.214,0,1,1,.428,0v.24a1.817,1.817,0,0,1,.214.052V.428a.214.214,0,0,1,.428,0V.7a1.826,1.826,0,0,1,.305.238L3.163.792a.214.214,0,0,1,.384.186l-.162.331a1.8,1.8,0,0,1,.257.928A1.821,1.821,0,0,1,0,2.237Z" transform="translate(57.407 114.302) rotate(169)" fill="#fec34f"/>
      <path id="Tracé_1147-2" data-name="Tracé 1147" d="M.088,2.661C1.3-1.686,15.724-.332,19.595,4.015s1.066,16.034-4.021,16.034S-1.127,7.008.088,2.661Z" transform="translate(33.689 67.294) rotate(141)"/>
      <path id="Tracé_1148-2" data-name="Tracé 1148" d="M.089,17.387C1.3,21.734,15.724,20.38,19.595,16.034S20.661,0,15.574,0-1.127,13.041.089,17.387Z" transform="translate(45.38 51.714) rotate(39)"/>
      <line id="Ligne_65-2" data-name="Ligne 65" x2="10.116" transform="translate(30.55 66.735)" fill="none" stroke="#000" stroke-width="3"/>
      <path id="Tracé_1150-2" data-name="Tracé 1150" d="M6.908,0a9.981,9.981,0,0,1-2.1,4.412A17.432,17.432,0,0,1,0,7.942" transform="translate(56.448 57.578)" fill="none" stroke="#000" stroke-linecap="round" stroke-width="1"/>
      <path id="Tracé_1149-2" data-name="Tracé 1149" d="M0,0A6.96,6.96,0,0,0,3.546,2.329a15.67,15.67,0,0,0,5.478,0" transform="translate(3.316 63.203)" fill="none" stroke="#000" stroke-linecap="round" stroke-width="1"/>
    </g>
  </g>
</svg>
