<svg xmlns="http://www.w3.org/2000/svg" width="117.452" height="144.063" viewBox="0 0 117.452 144.063">
  <g id="Groupe_942" data-name="Groupe 942" transform="translate(-1166.258 -246.581)">
    <path id="Tracé_1075" data-name="Tracé 1075" d="M75.83,83.224V38.08c0-14.3-7.2-26.8-17.92-33.49A33.594,33.594,0,0,0,43.9,1.535L14.621,0S8.467,1.031,4.443,10.616C1.576,17.441,0,27.534,0,35.93V95.4c4.632,2.372,9.978-1.289,9.978-6.8V57.427a4.154,4.154,0,0,1,3.991-4.3v56.893c5.276,3.282,11.973-.8,11.973-7.449V57.428a4.154,4.154,0,0,1,3.991-4.3c.025,0,0-1.337,0,65.491,5.325,3.313,11.973-.849,11.973-7.449V57.428a4.154,4.154,0,0,1,3.991-4.3V114.32c5.276,3.282,11.973-.8,11.973-7.449V54.493A2.95,2.95,0,0,1,59.2,53.032a7.343,7.343,0,0,1,2.581-.54l.081,30.515a13.458,13.458,0,0,0,9.978,4.517A4.151,4.151,0,0,0,75.83,83.224Z" transform="translate(1260.796 366.2) rotate(177)" fill="#5cd6ef"/>
    <path id="Tracé_1076" data-name="Tracé 1076" d="M108.865,129.12a49.009,49.009,0,0,0,2.8,22.85" transform="translate(1136.367 235.634)" fill="none" stroke="#5cd6ef" stroke-miterlimit="10" stroke-width="3"/>
    <path id="Tracé_1077" data-name="Tracé 1077" d="M77.028,131.46c.688,9.512.688,17.772-1.918,21.3" transform="translate(1132.073 234.352)" fill="none" stroke="#5cd6ef" stroke-miterlimit="10" stroke-width="3"/>
    <circle id="Ellipse_302" data-name="Ellipse 302" cx="8" cy="8" r="8" transform="translate(1226.304 322.501)" fill="#fff"/>
    <ellipse id="Ellipse_303" data-name="Ellipse 303" cx="8.5" cy="8" rx="8.5" ry="8" transform="translate(1198.304 322.501)" fill="#fff"/>
    <circle id="Ellipse_304" data-name="Ellipse 304" cx="2" cy="2" r="2" transform="translate(1206.304 329.501)"/>
    <circle id="Ellipse_305" data-name="Ellipse 305" cx="2" cy="2" r="2" transform="translate(1232.304 329.501)"/>
    <path id="Tracé_1082" data-name="Tracé 1082" d="M3097.569,691.77c1.194-.836,4.928,2.669,9.649,2.982s8.074-2.664,9.239-1.732c2.412,1.928-4.517,6.776-9.239,6.464S3095.259,693.386,3097.569,691.77Z" transform="translate(-1884.253 -346.619)" fill="#fff"/>
    <path id="Tracé_1075-2" data-name="Tracé 1075" d="M75.83,83.224V38.08c0-14.3-7.2-26.8-17.92-33.49A33.594,33.594,0,0,0,43.9,1.535L14.621,0S8.467,1.031,4.443,10.616C1.576,17.441,0,27.534,0,35.93V95.4c4.632,2.372,9.978-1.289,9.978-6.8V57.427a4.154,4.154,0,0,1,3.991-4.3v56.893c5.276,3.282,11.973-.8,11.973-7.449V57.428a4.154,4.154,0,0,1,3.991-4.3c.025,0,0-1.337,0,65.491,5.325,3.313,11.973-.849,11.973-7.449V57.428a4.154,4.154,0,0,1,3.991-4.3V114.32c5.276,3.282,11.973-.8,11.973-7.449V54.493A2.95,2.95,0,0,1,59.2,53.032a7.343,7.343,0,0,1,2.581-.54l.081,30.515a13.458,13.458,0,0,0,9.978,4.517A4.151,4.151,0,0,0,75.83,83.224Z" transform="translate(1260.796 366.2) rotate(177)" fill="#5cd6ef"/>
    <path id="Tracé_1076-2" data-name="Tracé 1076" d="M108.865,129.12a49.009,49.009,0,0,0,2.8,22.85" transform="translate(1136.367 235.634)" fill="none" stroke="#5cd6ef" stroke-miterlimit="10" stroke-width="3"/>
    <path id="Tracé_1077-2" data-name="Tracé 1077" d="M77.028,131.46c.688,9.512.688,17.772-1.918,21.3" transform="translate(1132.073 234.352)" fill="none" stroke="#5cd6ef" stroke-miterlimit="10" stroke-width="3"/>
    <circle id="Ellipse_306" data-name="Ellipse 306" cx="8" cy="8" r="8" transform="translate(1226.304 322.501)" fill="#fff"/>
    <ellipse id="Ellipse_307" data-name="Ellipse 307" cx="8.5" cy="8" rx="8.5" ry="8" transform="translate(1198.304 322.501)" fill="#fff"/>
    <circle id="Ellipse_308" data-name="Ellipse 308" cx="2" cy="2" r="2" transform="translate(1206.304 329.501)"/>
    <circle id="Ellipse_309" data-name="Ellipse 309" cx="2" cy="2" r="2" transform="translate(1232.304 329.501)"/>
    <path id="Tracé_1083" data-name="Tracé 1083" d="M3097.569,691.77c1.194-.836,4.928,2.669,9.649,2.982s8.074-2.664,9.239-1.732c2.412,1.928-4.517,6.776-9.239,6.464S3095.259,693.386,3097.569,691.77Z" transform="translate(-1884.253 -346.619)" fill="#fff"/>
    <path id="Tracé_1095" data-name="Tracé 1095" d="M136.862,101.25c-1.935,1-1.333,5.051-19.862.642" transform="translate(1139.319 244.661)" fill="none" stroke="#5cd6ef" stroke-miterlimit="10" stroke-width="2"/>
    <path id="Union_44" data-name="Union 44" d="M3.226,8.736V6.809a3.45,3.45,0,0,1-.4-.047V8.736a.4.4,0,1,1-.806,0V6.514A3.423,3.423,0,0,1,1.6,6.292l-.255.952a.4.4,0,1,1-.779-.209l.35-1.306A3.4,3.4,0,0,1,3.426,0,3.417,3.417,0,0,1,6.853,3.407a3.378,3.378,0,0,1-.483,1.746l.676,1.38c.148.3.106.628-.094.725s-.483-.07-.632-.374L5.814,5.851a3.439,3.439,0,0,1-.574.447V8.335a.4.4,0,0,1-.806,0V6.665a3.418,3.418,0,0,1-.4.1V8.736a.4.4,0,1,1-.806,0Z" transform="translate(1274.925 350.36) rotate(-106)" fill="#5cd6ef"/>
    <path id="Union_45" data-name="Union 45" d="M3.226,8.736V6.809a3.45,3.45,0,0,1-.4-.047V8.736a.4.4,0,1,1-.806,0V6.514A3.423,3.423,0,0,1,1.6,6.292l-.255.952a.4.4,0,1,1-.779-.209l.35-1.306A3.4,3.4,0,0,1,3.426,0,3.417,3.417,0,0,1,6.853,3.407a3.378,3.378,0,0,1-.483,1.746l.676,1.38c.148.3.106.628-.094.725s-.483-.07-.632-.374L5.814,5.851a3.439,3.439,0,0,1-.574.447V8.335a.4.4,0,0,1-.806,0V6.665a3.418,3.418,0,0,1-.4.1V8.736a.4.4,0,1,1-.806,0Z" transform="translate(1274.925 350.36) rotate(-106)" fill="#5cd6ef"/>
    <path id="Tracé_1101" data-name="Tracé 1101" d="M3.32,92.25c1.621.839,1.117,4.232,16.642.538" transform="translate(1167.275 253.773)" fill="none" stroke="#5cd6ef" stroke-miterlimit="10" stroke-width="2"/>
    <path id="Union_47" data-name="Union 47" d="M0,4.8A2.836,2.836,0,0,1,.769,2.858L.475,1.763a.338.338,0,0,1,.652-.175l.214.8A2.867,2.867,0,0,1,1.689,2.2V.338a.337.337,0,1,1,.675,0V1.992A2.9,2.9,0,0,1,2.7,1.953V.338a.338.338,0,0,1,.676,0V1.992a2.862,2.862,0,0,1,.338.081V.674a.337.337,0,1,1,.675,0V2.38a2.88,2.88,0,0,1,.481.375l.424-.865c.124-.255.361-.4.529-.313s.2.353.078.607L5.336,3.34a2.83,2.83,0,0,1,.4,1.463A2.871,2.871,0,0,1,0,4.8Z" transform="translate(1166.258 348.248) rotate(-74)" fill="#5cd6ef"/>
    <path id="Union_52" data-name="Union 52" d="M2.147,4.8V4.532A2.3,2.3,0,0,1,1.879,4.5v.3a.268.268,0,0,1-.536,0V4.336a2.282,2.282,0,0,1-.268-.143v.075a.269.269,0,0,1-.537,0V3.73A2.251,2.251,0,0,1,0,2.268a2.281,2.281,0,0,1,4.562,0,2.248,2.248,0,0,1-.321,1.161l.2.415a.267.267,0,0,1-.123.357.27.27,0,0,1-.359-.123l-.09-.184a2.29,2.29,0,0,1-.382.3v.342a.268.268,0,0,1-.536,0v-.1a2.276,2.276,0,0,1-.268.065v.3a.269.269,0,0,1-.537,0Z" transform="translate(1205.179 384.797) rotate(11)" fill="#5cd6ef"/>
    <path id="Union_53" data-name="Union 53" d="M0,2.8A2.251,2.251,0,0,1,.537,1.34V.8a.269.269,0,0,1,.537,0V.877A2.282,2.282,0,0,1,1.343.734V.268a.268.268,0,0,1,.536,0v.3A2.3,2.3,0,0,1,2.147.538V.268a.268.268,0,1,1,.536,0v.3a2.275,2.275,0,0,1,.268.064v-.1a.269.269,0,0,1,.537,0V.878a2.29,2.29,0,0,1,.382.3l.09-.184a.268.268,0,0,1,.482.234l-.2.414A2.247,2.247,0,0,1,4.562,2.8,2.281,2.281,0,0,1,0,2.8Z" transform="translate(1250.719 389.773) rotate(169)" fill="#5cd6ef"/>
  </g>
</svg>
