<svg xmlns="http://www.w3.org/2000/svg" width="85.334" height="104.667" viewBox="0 0 85.334 104.667">
  <g id="Groupe_1346" data-name="Groupe 1346" transform="translate(-638.258 -842.582)">
    <path id="Tracé_1132" data-name="Tracé 1132" d="M55.093,60.465v-32.8A28.548,28.548,0,0,0,42.074,3.335,24.407,24.407,0,0,0,31.9,1.115L10.623,0S6.151.749,3.228,7.713C1.145,12.672,0,20,0,26.1v43.2c3.365,1.723,7.249-.936,7.249-4.939V41.723a3.018,3.018,0,0,1,2.9-3.124V79.934c3.833,2.385,8.7-.58,8.7-5.412v-32.8a3.018,3.018,0,0,1,2.9-3.124c.018,0,0-.972,0,47.582,3.869,2.407,8.7-.617,8.7-5.412V41.723a3.018,3.018,0,0,1,2.9-3.124V83.058c3.834,2.385,8.7-.58,8.7-5.412V39.591a2.143,2.143,0,0,1,.966-1.062,5.335,5.335,0,0,1,1.875-.392l.059,22.17a9.778,9.778,0,0,0,7.249,3.282A3.016,3.016,0,0,0,55.093,60.465Z" transform="translate(706.944 929.49) rotate(177)" fill="#5cd6ef"/>
    <path id="Tracé_1133" data-name="Tracé 1133" d="M108.782,129.12a35.607,35.607,0,0,0,2.033,16.6" transform="translate(586.854 799.319)" fill="none" stroke="#5cd6ef" stroke-miterlimit="10" stroke-width="3"/>
    <path id="Tracé_1134" data-name="Tracé 1134" d="M76.5,131.46c.5,6.911.5,12.912-1.394,15.478" transform="translate(592.881 797.747)" fill="none" stroke="#5cd6ef" stroke-miterlimit="10" stroke-width="3"/>
    <circle id="Ellipse_345" data-name="Ellipse 345" cx="5.5" cy="5.5" r="5.5" transform="translate(682 898.582)" fill="#fff"/>
    <ellipse id="Ellipse_346" data-name="Ellipse 346" cx="6" cy="5.5" rx="6" ry="5.5" transform="translate(662 898.582)" fill="#fff"/>
    <ellipse id="Ellipse_347" data-name="Ellipse 347" cx="1" cy="2" rx="1" ry="2" transform="translate(667 902.582)"/>
    <circle id="Ellipse_348" data-name="Ellipse 348" cx="2" cy="2" r="2" transform="translate(686 902.582)"/>
    <path id="Tracé_1135" data-name="Tracé 1135" d="M3097.448,691.735c.867-.607,3.58,1.94,7.011,2.167s5.866-1.935,6.713-1.259c1.753,1.4-3.282,4.923-6.713,4.7S3095.77,692.909,3097.448,691.735Z" transform="translate(-2425 222.461)" fill="#fff"/>
    <path id="Tracé_1136" data-name="Tracé 1136" d="M55.093,60.465v-32.8A28.548,28.548,0,0,0,42.074,3.335,24.407,24.407,0,0,0,31.9,1.115L10.623,0S6.151.749,3.228,7.713C1.145,12.672,0,20,0,26.1v43.2c3.365,1.723,7.249-.936,7.249-4.939V41.723a3.018,3.018,0,0,1,2.9-3.124V79.934c3.833,2.385,8.7-.58,8.7-5.412v-32.8a3.018,3.018,0,0,1,2.9-3.124c.018,0,0-.972,0,47.582,3.869,2.407,8.7-.617,8.7-5.412V41.723a3.018,3.018,0,0,1,2.9-3.124V83.058c3.834,2.385,8.7-.58,8.7-5.412V39.591a2.143,2.143,0,0,1,.966-1.062,5.335,5.335,0,0,1,1.875-.392l.059,22.17a9.778,9.778,0,0,0,7.249,3.282A3.016,3.016,0,0,0,55.093,60.465Z" transform="translate(706.944 929.49) rotate(177)" fill="#5cd6ef"/>
    <path id="Tracé_1137" data-name="Tracé 1137" d="M108.782,129.12a35.607,35.607,0,0,0,2.033,16.6" transform="translate(586.854 799.319)" fill="none" stroke="#5cd6ef" stroke-miterlimit="10" stroke-width="3"/>
    <path id="Tracé_1138" data-name="Tracé 1138" d="M76.5,131.46c.5,6.911.5,12.912-1.394,15.478" transform="translate(592.881 797.747)" fill="none" stroke="#5cd6ef" stroke-miterlimit="10" stroke-width="3"/>
    <circle id="Ellipse_349" data-name="Ellipse 349" cx="5.5" cy="5.5" r="5.5" transform="translate(682 898.582)" fill="#fff"/>
    <ellipse id="Ellipse_350" data-name="Ellipse 350" cx="6" cy="5.5" rx="6" ry="5.5" transform="translate(662 898.582)" fill="#fff"/>
    <ellipse id="Ellipse_351" data-name="Ellipse 351" cx="1" cy="2" rx="1" ry="2" transform="translate(667 902.582)"/>
    <circle id="Ellipse_352" data-name="Ellipse 352" cx="2" cy="2" r="2" transform="translate(686 902.582)"/>
    <path id="Tracé_1139" data-name="Tracé 1139" d="M3097.448,691.735c.867-.607,3.58,1.94,7.011,2.167s5.866-1.935,6.713-1.259c1.753,1.4-3.282,4.923-6.713,4.7S3095.77,692.909,3097.448,691.735Z" transform="translate(-2425 222.461)" fill="#fff"/>
    <path id="Tracé_1140" data-name="Tracé 1140" d="M131.431,101.25c-1.406.727-.969,3.67-14.431.466" transform="translate(586.691 813.499)" fill="none" stroke="#5cd6ef" stroke-miterlimit="10" stroke-width="2"/>
    <path id="Union_61" data-name="Union 61" d="M2.344,6.348v-1.4a2.508,2.508,0,0,1-.293-.034V6.348a.293.293,0,0,1-.586,0V4.732a2.487,2.487,0,0,1-.3-.161l-.185.691a.293.293,0,0,1-.566-.151l.255-.949A2.473,2.473,0,0,1,2.489,0,2.483,2.483,0,0,1,4.979,2.476a2.453,2.453,0,0,1-.351,1.269l.491,1c.108.22.077.456-.067.526S4.7,5.222,4.592,5l-.368-.75a2.5,2.5,0,0,1-.416.325V6.055a.293.293,0,1,1-.586,0V4.842a2.484,2.484,0,0,1-.293.07V6.348a.293.293,0,0,1-.586,0Z" transform="translate(717.208 917.98) rotate(-106)" fill="#5cd6ef"/>
    <path id="Union_62" data-name="Union 62" d="M2.344,6.348v-1.4a2.508,2.508,0,0,1-.293-.034V6.348a.293.293,0,0,1-.586,0V4.732a2.487,2.487,0,0,1-.3-.161l-.185.691a.293.293,0,0,1-.566-.151l.255-.949A2.473,2.473,0,0,1,2.489,0,2.483,2.483,0,0,1,4.979,2.476a2.453,2.453,0,0,1-.351,1.269l.491,1c.108.22.077.456-.067.526S4.7,5.222,4.592,5l-.368-.75a2.5,2.5,0,0,1-.416.325V6.055a.293.293,0,1,1-.586,0V4.842a2.484,2.484,0,0,1-.293.07V6.348a.293.293,0,0,1-.586,0Z" transform="translate(717.208 917.98) rotate(-106)" fill="#5cd6ef"/>
    <path id="Tracé_1143" data-name="Tracé 1143" d="M3.32,92.25c1.178.609.812,3.075,12.091.391" transform="translate(638.089 822.58)" fill="none" stroke="#5cd6ef" stroke-miterlimit="10" stroke-width="2"/>
    <path id="Union_63" data-name="Union 63" d="M0,3.489A2.061,2.061,0,0,1,.559,2.076l-.213-.8A.245.245,0,0,1,.82,1.154l.155.579A2.085,2.085,0,0,1,1.228,1.6V.245a.245.245,0,0,1,.491,0v1.2a2.1,2.1,0,0,1,.245-.029V.246a.246.246,0,0,1,.491,0v1.2a2.083,2.083,0,0,1,.245.059V.49a.245.245,0,0,1,.49,0V1.729A2.093,2.093,0,0,1,3.539,2l.308-.628c.091-.185.263-.287.384-.228s.148.257.057.441l-.41.84a2.056,2.056,0,0,1,.294,1.063A2.086,2.086,0,0,1,0,3.489Z" transform="translate(638.258 916.447) rotate(-74)" fill="#5cd6ef"/>
    <path id="Union_64" data-name="Union 64" d="M1.561,3.488v-.2a1.673,1.673,0,0,1-.2-.023v.218a.195.195,0,1,1-.39,0V3.15a1.658,1.658,0,0,1-.2-.1V3.1a.195.195,0,1,1-.39,0v-.39A1.636,1.636,0,0,1,0,1.648a1.657,1.657,0,0,1,3.315,0,1.634,1.634,0,0,1-.233.844l.148.3a.2.2,0,0,1-.351.17l-.065-.133a1.662,1.662,0,0,1-.277.217v.248a.2.2,0,0,1-.391,0V3.223a1.655,1.655,0,0,1-.194.047v.218a.195.195,0,1,1-.39,0Z" transform="translate(666.536 943.001) rotate(11)" fill="#5cd6ef"/>
    <path id="Union_65" data-name="Union 65" d="M0,2.036A1.636,1.636,0,0,1,.391.973V.582a.195.195,0,0,1,.39,0V.637a1.655,1.655,0,0,1,.2-.1V.2a.195.195,0,1,1,.39,0V.413a1.672,1.672,0,0,1,.2-.023V.2a.195.195,0,1,1,.39,0V.414A1.654,1.654,0,0,1,2.145.46V.389a.2.2,0,0,1,.391,0V.638a1.663,1.663,0,0,1,.277.216L2.878.72A.2.2,0,0,1,3.139.631.193.193,0,0,1,3.228.89l-.148.3a1.633,1.633,0,0,1,.234.845A1.657,1.657,0,0,1,0,2.036Z" transform="translate(699.622 946.616) rotate(169)" fill="#5cd6ef"/>
    <path id="Tracé_1147" data-name="Tracé 1147" d="M.081,2.422C1.187-1.534,14.311-.3,17.835,3.654s.97,14.593-3.66,14.593S-1.026,6.378.081,2.422Z" transform="translate(678.034 903.831) rotate(141)"/>
    <path id="Tracé_1148" data-name="Tracé 1148" d="M.081,15.825c1.106,3.956,14.231,2.724,17.754-1.232S18.8,0,14.175,0-1.026,11.869.081,15.825Z" transform="translate(688.675 889.65) rotate(39)"/>
    <line id="Ligne_65" data-name="Ligne 65" x2="9.208" transform="translate(675.177 903.322)" fill="none" stroke="#000" stroke-width="3"/>
    <path id="Tracé_1150" data-name="Tracé 1150" d="M6.287.373A9.084,9.084,0,0,1,4.379,4.389,15.866,15.866,0,0,1,0,7.6" transform="translate(698.748 894.615)" fill="none" stroke="#000" stroke-linecap="round" stroke-width="1"/>
    <path id="Tracé_1149" data-name="Tracé 1149" d="M0,0A6.335,6.335,0,0,0,3.228,2.12a14.262,14.262,0,0,0,4.986,0" transform="translate(650.39 900.107)" fill="none" stroke="#000" stroke-linecap="round" stroke-width="1"/>
  </g>
</svg>
