<svg xmlns="http://www.w3.org/2000/svg" viewBox="0 0 834.72 128.07"><defs><style>.cls-1{fill:#5cd6ef;}.cls-2{fill:#fda62e;}</style></defs><g id="Calque_2" data-name="Calque 2"><g id="Calque_1-2" data-name="Calque 1"><g id="Groupe_1735" data-name="Groupe 1735"><path id="Tracé_1293" data-name="Tracé 1293" class="cls-1" d="M.12.09V127.9s82.58-24.72,197.79-26.34S347,129.69,459.82,121.37c116.77-8.61,96.76-24.34,177.44-27s125.4,7.21,145.28,16.29c22.67,10.35,52.18,5.66,52.18,5.66L833.76.83Z"/><path id="Tracé_1295-2" data-name="Tracé 1295-2" class="cls-2" d="M0,128.07s47.46-18.31,91.66-40.74,26.74-41.14,85.17-49,85,3.32,127.84,0C404.85,30.63,392.74,19,483.47,15.1s112.75,7.43,189,3.42C720.69,16,834,0,834,0h0L0,.93Z"/></g></g></g></svg>