<svg xmlns="http://www.w3.org/2000/svg" width="1920.181" height="974.038" viewBox="0 0 1920.181 974.038">
  <g id="Groupe_1735" data-name="Groupe 1735" transform="translate(0 -923.859)">
    <path id="Tracé_1407" data-name="Tracé 1407" d="M1054-17024v571.484s97.782,98.983,244.271,70.144c78.533-15.456,220.381-66.011,307.556-70.144,250.5-11.879,254.849,58.789,450.165,50.852s168.179-39.818,318.188-35,176.723,48.371,281.85,54.288,113.813-31.349,193.3-34.593,124.645,21.617,124.645,21.617V-17024" transform="translate(-1054 18275)" fill="#53b4c7"/>
    <path id="Tracé_1406" data-name="Tracé 1406" d="M1054.08-18529.9s79.9-26.32,245-26.32,168.436,38.883,373.494,52.209,258.9-55.652,505.157-52.209,283.464,68.064,496.511,79.209,299.71-48.588,299.71-48.588l.229,830.664s-64.2-25-143.888-27.533-152.589,64.4-218.555,59.645c-147.573-10.635-157.769-44.43-318.157-46.955s-161.311,33.924-349.985,33.924-158.636-52.33-338.219-46.613-157.417,45.715-306.3,46.613-244.826-50.365-244.826-50.365Z" transform="translate(-1054 19480.209)" fill="#4fc8e1"/>
  </g>
</svg>
