<svg xmlns="http://www.w3.org/2000/svg" viewBox="0 0 1371.88 1183.48"><defs><style>.cls-1{fill:#53b4c7;}.cls-2{fill:#4fc8e1;}</style></defs><g id="Calque_2" data-name="Calque 2"><g id="Calque_1-2" data-name="Calque 1"><g id="Groupe_1642" data-name="Groupe 1642"><path id="Tracé_7" data-name="Tracé 7" class="cls-1" d="M1304.21,1144.56c-59.43-7.78-97.58,7.14-178.07,0s-108.38-35.51-180.61-33.54c-98,2.68-116.94,29.35-245.42,33.6s-216.45-32.37-331.24,0c-40.59,11.47-114.2,34.12-207.29,31.19C71.3,1173,.93,1112.1.93,1112.1l0-156.94L1366.25,985l2.46,198.49C1362.28,1169.9,1344.26,1149.8,1304.21,1144.56Z"/><path id="Tracé_8" data-name="Tracé 8" class="cls-2" d="M1366.72,1065.35s-86.31-38-239.67-39.83-211.3,41.94-378,33.37-162.55-34.61-314.9-33.27-192,48.68-294.5,38.61S0,952.7,0,952.7L.08,75S47.73,44.48,149,46c94.44,1.4,239.05,35.29,342.66,23.81C592.91,58.58,706.27,7.69,876.24.74S1121.12,38.15,1171.51,42c80.7,6.14,200.37-8.94,200.37-8.94Z"/></g></g></g></svg>