<svg xmlns="http://www.w3.org/2000/svg" width="375.486" height="1122.265" viewBox="0 0 375.486 1122.265">
  <g id="Groupe_1825" data-name="Groupe 1825" transform="translate(0.001 -503.651)">
    <path id="Tracé_1428" data-name="Tracé 1428" d="M10185,16890.127s34.647,20.8,85.692,17.029,67.52-36.7,139.848-36.7,149.46,36.7,149.46,36.7v-152.2h-375Z" transform="translate(-10185.001 -15281.697)" fill="#53b4c7"/>
    <path id="Tracé_1427" data-name="Tracé 1427" d="M10185,15833.052v1005.454s19.816,19.453,59.435,14.334c43.742-5.65,69.035-31.012,133.442-32.795s97.809,18.8,124.188,25.67c35.192,9.166,58.42,7.125,58.42,7.125V15803.782s-65.279-2.331-104.261,12.664c-35.835,13.786-50.238,31.09-95.391,34.609-47.311,3.688-82.329,2.952-116.4-6.015A500.749,500.749,0,0,0,10185,15833.052Z" transform="translate(-10185 -15300)" fill="#4fc8e1"/>
  </g>
</svg>
