<svg xmlns="http://www.w3.org/2000/svg" width="940.697" height="834.14" viewBox="0 0 940.697 834.14">
  <g id="Groupe_1824" data-name="Groupe 1824" transform="translate(50.92 -400)">
    <path id="Tracé_1353" data-name="Tracé 1353" d="M802.632,100.33c-36.553-1.575-58.96,9.528-108.287,9.474S626.551,93.967,582.733,99c-59.451,6.831-69.555,24.063-147.462,33.468s-133.357-8.188-201.439,17.624c-24.075,9.127-67.638,26.812-124.4,29.976C54.377,183.138,8.35,149.82,8.35,149.82L0,54.382,831.887,0l12.04,120.572C839.293,112.656,827.269,101.392,802.632,100.33Z" transform="matrix(0.996, 0.087, -0.087, 0.996, 6.121, 981.003)" fill="#53b4c7"/>
    <path id="Tracé_1352" data-name="Tracé 1352" d="M883.7,628.05s-54.5-18.523-147.867-11.488-126.269,36.727-228.111,40.371-100.69-12.41-193.268-3.505-114.15,39.8-177.041,39.125-90.839-60.41-90.839-60.41L0,98.386S27.357,77.292,89.021,72.83c57.508-4.161,147.249,8.762,209.642-3.72,60.984-12.2,127.221-49.169,230.211-62.427s150.906,9.742,181.752,9.4C760.025,15.523,832,0,832,0Z" transform="matrix(0.996, 0.087, -0.087, 0.996, 9.44, 400)" fill="#4fc8e1"/>
  </g>
</svg>
