<svg xmlns="http://www.w3.org/2000/svg" width="254.938" height="195.357" viewBox="0 0 254.938 195.357">
  <g id="Groupe_962" data-name="Groupe 962" transform="translate(-344.258 -1333.581)">
    <g id="Groupe_958" data-name="Groupe 958" transform="translate(453.48 1336.307) rotate(3)">
      <path id="Tracé_1132" data-name="Tracé 1132" d="M98.663,108.285V49.547c0-18.611-9.373-34.865-23.316-43.575A43.709,43.709,0,0,0,57.121,2l-38.1-2S11.016,1.342,5.781,13.813C2.051,22.693,0,35.825,0,46.749v77.374c6.026,3.086,12.982-1.677,12.982-8.846V74.72a5.405,5.405,0,0,1,5.193-5.594V143.15c6.865,4.271,15.578-1.039,15.578-9.692V74.72a5.4,5.4,0,0,1,5.193-5.594c.033,0,0-1.74,0,85.212,6.929,4.31,15.578-1.1,15.578-9.692V74.72a5.4,5.4,0,0,1,5.193-5.594v79.618c6.865,4.271,15.579-1.039,15.579-9.692V70.9A3.838,3.838,0,0,1,77.025,69a9.555,9.555,0,0,1,3.358-.7l.106,39.7a17.51,17.51,0,0,0,12.982,5.877A5.4,5.4,0,0,0,98.663,108.285Z" transform="translate(123.007 155.639) rotate(177)" fill="#5cd6ef"/>
      <path id="Tracé_1133" data-name="Tracé 1133" d="M.4,0A63.766,63.766,0,0,0,4.036,29.731" transform="translate(102.36 153.757)" fill="none" stroke="#5cd6ef" stroke-miterlimit="10" stroke-width="3"/>
      <path id="Tracé_1134" data-name="Tracé 1134" d="M2.5,0c.9,12.377.9,23.124-2.5,27.719" transform="translate(53.248 155.133)" fill="none" stroke="#5cd6ef" stroke-miterlimit="10" stroke-width="3"/>
      <circle id="Ellipse_345" data-name="Ellipse 345" cx="10.553" cy="10.553" r="10.553" transform="translate(77.66 99.871)" fill="#fff"/>
      <circle id="Ellipse_346" data-name="Ellipse 346" cx="10.553" cy="10.553" r="10.553" transform="translate(42.043 99.871)" fill="#fff"/>
      <circle id="Ellipse_347" data-name="Ellipse 347" cx="2.968" cy="2.968" r="2.968" transform="translate(49.958 107.786)"/>
      <ellipse id="Ellipse_348" data-name="Ellipse 348" cx="2.638" cy="2.968" rx="2.638" ry="2.968" transform="translate(86.234 107.786)"/>
      <path id="Tracé_1135" data-name="Tracé 1135" d="M.577.167C2.131-.92,6.988,3.64,13.132,4.047S23.637.581,25.154,1.793c3.139,2.509-5.877,8.816-12.022,8.41S-2.428,2.269.577.167Z" transform="translate(60.652 128.083)" fill="#fff"/>
      <path id="Tracé_1136" data-name="Tracé 1136" d="M98.663,108.285V49.547c0-18.611-9.373-34.865-23.316-43.575A43.709,43.709,0,0,0,57.121,2l-38.1-2S11.016,1.342,5.781,13.813C2.051,22.693,0,35.825,0,46.749v77.374c6.026,3.086,12.982-1.677,12.982-8.846V74.72a5.405,5.405,0,0,1,5.193-5.594V143.15c6.865,4.271,15.578-1.039,15.578-9.692V74.72a5.4,5.4,0,0,1,5.193-5.594c.033,0,0-1.74,0,85.212,6.929,4.31,15.578-1.1,15.578-9.692V74.72a5.4,5.4,0,0,1,5.193-5.594v79.618c6.865,4.271,15.579-1.039,15.579-9.692V70.9A3.838,3.838,0,0,1,77.025,69a9.555,9.555,0,0,1,3.358-.7l.106,39.7a17.51,17.51,0,0,0,12.982,5.877A5.4,5.4,0,0,0,98.663,108.285Z" transform="translate(123.007 155.639) rotate(177)" fill="#5cd6ef"/>
      <path id="Tracé_1137" data-name="Tracé 1137" d="M.4,0A63.766,63.766,0,0,0,4.036,29.731" transform="translate(102.36 153.757)" fill="none" stroke="#5cd6ef" stroke-miterlimit="10" stroke-width="3"/>
      <path id="Tracé_1138" data-name="Tracé 1138" d="M2.5,0c.9,12.377.9,23.124-2.5,27.719" transform="translate(53.248 155.133)" fill="none" stroke="#5cd6ef" stroke-miterlimit="10" stroke-width="3"/>
      <circle id="Ellipse_349" data-name="Ellipse 349" cx="10.553" cy="10.553" r="10.553" transform="translate(77.66 99.871)" fill="#fff"/>
      <circle id="Ellipse_350" data-name="Ellipse 350" cx="10.553" cy="10.553" r="10.553" transform="translate(42.043 99.871)" fill="#fff"/>
      <circle id="Ellipse_351" data-name="Ellipse 351" cx="2.968" cy="2.968" r="2.968" transform="translate(49.958 107.786)"/>
      <ellipse id="Ellipse_352" data-name="Ellipse 352" cx="2.638" cy="2.968" rx="2.638" ry="2.968" transform="translate(86.234 107.786)"/>
      <path id="Tracé_1139" data-name="Tracé 1139" d="M.577.167C2.131-.92,6.988,3.64,13.132,4.047S23.637.581,25.154,1.793c3.139,2.509-5.877,8.816-12.022,8.41S-2.428,2.269.577.167Z" transform="translate(60.652 128.083)" fill="#fff"/>
      <path id="Tracé_1140" data-name="Tracé 1140" d="M25.843,0C23.325,1.3,24.108,6.572,0,.835" transform="translate(117.181 129.24)" fill="none" stroke="#5cd6ef" stroke-miterlimit="10" stroke-width="2"/>
      <path id="Union_61" data-name="Union 61" d="M4.2,11.367V8.859A4.491,4.491,0,0,1,3.673,8.8v2.569a.525.525,0,1,1-1.049,0V8.475a4.457,4.457,0,0,1-.54-.289L1.751,9.425A.525.525,0,0,1,.738,9.153l.456-1.7A4.428,4.428,0,0,1,4.459,0,4.446,4.446,0,0,1,8.916,4.433,4.394,4.394,0,0,1,8.287,6.7l.879,1.8c.193.4.139.817-.122.943s-.628-.092-.822-.487L7.565,7.613a4.473,4.473,0,0,1-.745.581v2.649a.525.525,0,1,1-1.049,0V8.672a4.447,4.447,0,0,1-.524.126v2.569a.525.525,0,1,1-1.049,0Z" transform="translate(141.389 135.027) rotate(-106)" fill="#5cd6ef"/>
      <path id="Union_62" data-name="Union 62" d="M4.2,11.367V8.859A4.491,4.491,0,0,1,3.673,8.8v2.569a.525.525,0,1,1-1.049,0V8.475a4.457,4.457,0,0,1-.54-.289L1.751,9.425A.525.525,0,0,1,.738,9.153l.456-1.7A4.428,4.428,0,0,1,4.459,0,4.446,4.446,0,0,1,8.916,4.433,4.394,4.394,0,0,1,8.287,6.7l.879,1.8c.193.4.139.817-.122.943s-.628-.092-.822-.487L7.565,7.613a4.473,4.473,0,0,1-.745.581v2.649a.525.525,0,1,1-1.049,0V8.672a4.447,4.447,0,0,1-.524.126v2.569a.525.525,0,1,1-1.049,0Z" transform="translate(141.389 135.027) rotate(-106)" fill="#5cd6ef"/>
      <path id="Tracé_1143" data-name="Tracé 1143" d="M0,0C2.109,1.091,1.454,5.507,21.653.7" transform="translate(5.644 129.384)" fill="none" stroke="#fec34f" stroke-miterlimit="10" stroke-width="2"/>
      <path id="Union_63" data-name="Union 63" d="M0,6.249a3.69,3.69,0,0,1,1-2.53L.618,2.294a.44.44,0,0,1,.85-.228L1.746,3.1A3.733,3.733,0,0,1,2.2,2.862V.439a.44.44,0,0,1,.879,0V2.592a3.763,3.763,0,0,1,.439-.051V.439a.439.439,0,1,1,.878,0V2.592a3.726,3.726,0,0,1,.439.106V.877a.439.439,0,1,1,.878,0V3.1a3.747,3.747,0,0,1,.626.488l.551-1.126c.162-.33.471-.513.688-.408s.264.459.1.79l-.736,1.5a3.682,3.682,0,0,1,.527,1.9,3.735,3.735,0,0,1-7.47,0Z" transform="translate(0 132.28) rotate(-74)" fill="#5cd6ef"/>
      <path id="Union_64" data-name="Union 64" d="M2.795,6.247V5.9a2.988,2.988,0,0,1-.349-.041v.39a.349.349,0,1,1-.7,0V5.642A2.966,2.966,0,0,1,1.4,5.456v.1a.349.349,0,1,1-.7,0v-.7a2.929,2.929,0,0,1-.7-1.9,2.968,2.968,0,0,1,5.936,0,2.924,2.924,0,0,1-.418,1.511L5.783,5a.346.346,0,0,1-.161.464.35.35,0,0,1-.467-.159l-.117-.239a2.978,2.978,0,0,1-.5.388V5.9a.349.349,0,0,1-.7,0V5.772a2.963,2.963,0,0,1-.348.084v.391a.349.349,0,1,1-.7,0Z" transform="translate(50.641 179.835) rotate(11)" fill="#5cd6ef"/>
      <path id="Union_65" data-name="Union 65" d="M0,3.645a2.93,2.93,0,0,1,.7-1.9v-.7a.349.349,0,0,1,.7,0v.1A2.964,2.964,0,0,1,1.747.954V.349a.349.349,0,0,1,.7,0V.74A2.992,2.992,0,0,1,2.794.7V.349a.349.349,0,0,1,.7,0V.74a2.964,2.964,0,0,1,.349.084V.7a.349.349,0,1,1,.7,0v.445a2.977,2.977,0,0,1,.5.388l.117-.239a.35.35,0,0,1,.467-.16.346.346,0,0,1,.16.464l-.264.539a2.925,2.925,0,0,1,.418,1.511A2.968,2.968,0,0,1,0,3.645Z" transform="translate(109.894 186.309) rotate(169)" fill="#5cd6ef"/>
      <path id="Tracé_1147" data-name="Tracé 1147" d="M.144,4.338C2.126-2.748,25.629-.541,31.939,6.544s1.738,26.134-6.555,26.134S-1.838,11.423.144,4.338Z" transform="translate(71.233 109.687) rotate(141)"/>
      <path id="Tracé_1148" data-name="Tracé 1148" d="M.144,28.341c1.981,7.085,25.485,4.879,31.795-2.207S33.677,0,25.385,0-1.837,21.256.144,28.341Z" transform="translate(90.289 84.292) rotate(39)"/>
      <line id="Ligne_65" data-name="Ligne 65" x2="16.489" transform="translate(66.117 108.775)" fill="none" stroke="#000" stroke-width="3"/>
      <path id="Tracé_1150" data-name="Tracé 1150" d="M11.259,0A16.269,16.269,0,0,1,7.843,7.192C5.04,10.49,0,12.945,0,12.945" transform="translate(108.33 93.851)" fill="none" stroke="#000" stroke-linecap="round" stroke-width="1"/>
      <path id="Tracé_1149" data-name="Tracé 1149" d="M0,0A11.344,11.344,0,0,0,5.781,3.8c3.677.949,8.928,0,8.928,0" transform="translate(21.727 103.018)" fill="none" stroke="#000" stroke-linecap="round" stroke-width="1"/>
    </g>
    <g id="Groupe_957" data-name="Groupe 957" transform="translate(344.258 1333.581)">
      <path id="Tracé_1075" data-name="Tracé 1075" d="M98.663,108.285V49.547c0-18.611-9.373-34.865-23.316-43.575A43.709,43.709,0,0,0,57.121,2l-38.1-2S11.016,1.342,5.781,13.813C2.051,22.693,0,35.825,0,46.749v77.374c6.026,3.086,12.982-1.677,12.982-8.846V74.72a5.405,5.405,0,0,1,5.193-5.594V143.15c6.865,4.271,15.578-1.039,15.578-9.692V74.72a5.4,5.4,0,0,1,5.193-5.594c.033,0,0-1.74,0,85.212,6.929,4.31,15.578-1.1,15.578-9.692V74.72a5.4,5.4,0,0,1,5.193-5.594v79.618c6.865,4.271,15.579-1.039,15.579-9.692V70.9A3.838,3.838,0,0,1,77.025,69a9.555,9.555,0,0,1,3.358-.7l.106,39.7a17.51,17.51,0,0,0,12.982,5.877A5.4,5.4,0,0,0,98.663,108.285Z" transform="translate(123.007 155.639) rotate(177)" fill="#5cd6ef"/>
      <path id="Tracé_1076" data-name="Tracé 1076" d="M108.956,129.12a63.766,63.766,0,0,0,3.641,29.731" transform="translate(-6.201 24.637)" fill="none" stroke="#5cd6ef" stroke-miterlimit="10" stroke-width="3"/>
      <path id="Tracé_1077" data-name="Tracé 1077" d="M77.606,131.46c.9,12.377.9,23.124-2.5,27.719" transform="translate(-21.862 23.674)" fill="none" stroke="#5cd6ef" stroke-miterlimit="10" stroke-width="3"/>
      <circle id="Ellipse_302" data-name="Ellipse 302" cx="10.5" cy="10.5" r="10.5" transform="translate(77.742 99.419)" fill="#fff"/>
      <circle id="Ellipse_303" data-name="Ellipse 303" cx="10.5" cy="10.5" r="10.5" transform="translate(42.742 99.419)" fill="#fff"/>
      <ellipse id="Ellipse_304" data-name="Ellipse 304" cx="2.5" cy="3" rx="2.5" ry="3" transform="translate(50.742 107.419)"/>
      <ellipse id="Ellipse_305" data-name="Ellipse 305" cx="2.5" cy="3" rx="2.5" ry="3" transform="translate(85.742 107.419)"/>
      <path id="Tracé_1082" data-name="Tracé 1082" d="M3097.7,691.808c1.554-1.087,6.411,3.473,12.555,3.88s10.505-3.466,12.022-2.254c3.139,2.509-5.877,8.816-12.022,8.41S3094.7,693.911,3097.7,691.808Z" transform="translate(-3036.473 -563.558)" fill="#fff"/>
      <path id="Tracé_1075-2" data-name="Tracé 1075" d="M98.663,108.285V49.547c0-18.611-9.373-34.865-23.316-43.575A43.709,43.709,0,0,0,57.121,2l-38.1-2S11.016,1.342,5.781,13.813C2.051,22.693,0,35.825,0,46.749v77.374c6.026,3.086,12.982-1.677,12.982-8.846V74.72a5.405,5.405,0,0,1,5.193-5.594V143.15c6.865,4.271,15.578-1.039,15.578-9.692V74.72a5.4,5.4,0,0,1,5.193-5.594c.033,0,0-1.74,0,85.212,6.929,4.31,15.578-1.1,15.578-9.692V74.72a5.4,5.4,0,0,1,5.193-5.594v79.618c6.865,4.271,15.579-1.039,15.579-9.692V70.9A3.838,3.838,0,0,1,77.025,69a9.555,9.555,0,0,1,3.358-.7l.106,39.7a17.51,17.51,0,0,0,12.982,5.877A5.4,5.4,0,0,0,98.663,108.285Z" transform="translate(123.007 155.639) rotate(177)" fill="#5cd6ef"/>
      <path id="Tracé_1076-2" data-name="Tracé 1076" d="M108.956,129.12a63.766,63.766,0,0,0,3.641,29.731" transform="translate(-6.201 24.637)" fill="none" stroke="#5cd6ef" stroke-miterlimit="10" stroke-width="3"/>
      <path id="Tracé_1077-2" data-name="Tracé 1077" d="M77.606,131.46c.9,12.377.9,23.124-2.5,27.719" transform="translate(-21.862 23.674)" fill="none" stroke="#5cd6ef" stroke-miterlimit="10" stroke-width="3"/>
      <circle id="Ellipse_306" data-name="Ellipse 306" cx="10.5" cy="10.5" r="10.5" transform="translate(77.742 99.419)" fill="#fff"/>
      <circle id="Ellipse_307" data-name="Ellipse 307" cx="10.5" cy="10.5" r="10.5" transform="translate(42.742 99.419)" fill="#fff"/>
      <ellipse id="Ellipse_308" data-name="Ellipse 308" cx="2.5" cy="3" rx="2.5" ry="3" transform="translate(50.742 107.419)"/>
      <ellipse id="Ellipse_309" data-name="Ellipse 309" cx="2.5" cy="3" rx="2.5" ry="3" transform="translate(85.742 107.419)"/>
      <path id="Tracé_1083" data-name="Tracé 1083" d="M3097.7,691.808c1.554-1.087,6.411,3.473,12.555,3.88s10.505-3.466,12.022-2.254c3.139,2.509-5.877,8.816-12.022,8.41S3094.7,693.911,3097.7,691.808Z" transform="translate(-3036.473 -563.558)" fill="#fff"/>
      <path id="Tracé_1095" data-name="Tracé 1095" d="M142.843,101.25c-2.518,1.3-1.735,6.572-25.843.835" transform="translate(0.181 27.991)" fill="none" stroke="#5cd6ef" stroke-miterlimit="10" stroke-width="2"/>
      <path id="Union_44" data-name="Union 44" d="M4.2,11.367V8.859A4.491,4.491,0,0,1,3.673,8.8v2.569a.525.525,0,1,1-1.049,0V8.475a4.457,4.457,0,0,1-.54-.289L1.751,9.425A.525.525,0,0,1,.738,9.153l.456-1.7A4.428,4.428,0,0,1,4.459,0,4.446,4.446,0,0,1,8.916,4.433,4.394,4.394,0,0,1,8.287,6.7l.879,1.8c.193.4.139.817-.122.943s-.628-.092-.822-.487L7.565,7.613a4.473,4.473,0,0,1-.745.581v2.649a.525.525,0,1,1-1.049,0V8.672a4.447,4.447,0,0,1-.524.126v2.569a.525.525,0,1,1-1.049,0Z" transform="translate(141.389 135.028) rotate(-106)" fill="#5cd6ef"/>
      <path id="Union_45" data-name="Union 45" d="M4.2,11.367V8.859A4.491,4.491,0,0,1,3.673,8.8v2.569a.525.525,0,1,1-1.049,0V8.475a4.457,4.457,0,0,1-.54-.289L1.751,9.425A.525.525,0,0,1,.738,9.153l.456-1.7A4.428,4.428,0,0,1,4.459,0,4.446,4.446,0,0,1,8.916,4.433,4.394,4.394,0,0,1,8.287,6.7l.879,1.8c.193.4.139.817-.122.943s-.628-.092-.822-.487L7.565,7.613a4.473,4.473,0,0,1-.745.581v2.649a.525.525,0,1,1-1.049,0V8.672a4.447,4.447,0,0,1-.524.126v2.569a.525.525,0,1,1-1.049,0Z" transform="translate(141.389 135.028) rotate(-106)" fill="#5cd6ef"/>
      <path id="Tracé_1101" data-name="Tracé 1101" d="M3.32,92.25c2.109,1.091,1.454,5.507,21.653.7" transform="translate(2.323 37.136)" fill="none" stroke="#5cd6ef" stroke-miterlimit="10" stroke-width="2"/>
      <path id="Union_47" data-name="Union 47" d="M0,6.249a3.69,3.69,0,0,1,1-2.53L.618,2.294a.44.44,0,0,1,.85-.228L1.746,3.1A3.733,3.733,0,0,1,2.2,2.862V.439a.44.44,0,0,1,.879,0V2.592a3.763,3.763,0,0,1,.439-.051V.439a.439.439,0,1,1,.878,0V2.592a3.726,3.726,0,0,1,.439.106V.877a.439.439,0,1,1,.878,0V3.1a3.747,3.747,0,0,1,.626.488l.551-1.126c.162-.33.471-.513.688-.408s.264.459.1.79l-.736,1.5a3.682,3.682,0,0,1,.527,1.9,3.735,3.735,0,0,1-7.47,0Z" transform="translate(0 132.281) rotate(-74)" fill="#5cd6ef"/>
      <path id="Union_52" data-name="Union 52" d="M2.795,6.247V5.9a2.988,2.988,0,0,1-.349-.041v.39a.349.349,0,1,1-.7,0V5.642A2.966,2.966,0,0,1,1.4,5.456v.1a.349.349,0,1,1-.7,0v-.7a2.929,2.929,0,0,1-.7-1.9,2.968,2.968,0,0,1,5.936,0,2.924,2.924,0,0,1-.418,1.511L5.783,5a.346.346,0,0,1-.161.464.35.35,0,0,1-.467-.159l-.117-.239a2.978,2.978,0,0,1-.5.388V5.9a.349.349,0,0,1-.7,0V5.772a2.963,2.963,0,0,1-.348.084v.391a.349.349,0,1,1-.7,0Z" transform="translate(50.642 179.835) rotate(11)" fill="#5cd6ef"/>
      <path id="Union_53" data-name="Union 53" d="M0,3.645a2.93,2.93,0,0,1,.7-1.9v-.7a.349.349,0,0,1,.7,0v.1A2.964,2.964,0,0,1,1.747.954V.349a.349.349,0,0,1,.7,0V.74A2.992,2.992,0,0,1,2.794.7V.349a.349.349,0,0,1,.7,0V.74a2.964,2.964,0,0,1,.349.084V.7a.349.349,0,1,1,.7,0v.445a2.977,2.977,0,0,1,.5.388l.117-.239a.35.35,0,0,1,.467-.16.346.346,0,0,1,.16.464l-.264.539a2.925,2.925,0,0,1,.418,1.511A2.968,2.968,0,0,1,0,3.645Z" transform="translate(109.894 186.31) rotate(169)" fill="#5cd6ef"/>
    </g>
    <g id="Groupe_959" data-name="Groupe 959" transform="translate(469.779 1337.161) rotate(3)">
      <path id="Tracé_1132-2" data-name="Tracé 1132" d="M98.663,108.285V49.547c0-18.611-9.373-34.865-23.316-43.575A43.709,43.709,0,0,0,57.121,2l-38.1-2S11.016,1.342,5.781,13.813C2.051,22.693,0,35.825,0,46.749v77.374c6.026,3.086,12.982-1.677,12.982-8.846V74.72a5.405,5.405,0,0,1,5.193-5.594V143.15c6.865,4.271,15.578-1.039,15.578-9.692V74.72a5.4,5.4,0,0,1,5.193-5.594c.033,0,0-1.74,0,85.212,6.929,4.31,15.578-1.1,15.578-9.692V74.72a5.4,5.4,0,0,1,5.193-5.594v79.618c6.865,4.271,15.579-1.039,15.579-9.692V70.9A3.838,3.838,0,0,1,77.025,69a9.555,9.555,0,0,1,3.358-.7l.106,39.7a17.51,17.51,0,0,0,12.982,5.877A5.4,5.4,0,0,0,98.663,108.285Z" transform="translate(106.685 155.639) rotate(177)" fill="#5cd6ef"/>
      <path id="Tracé_1133-2" data-name="Tracé 1133" d="M.4,0A63.766,63.766,0,0,0,4.036,29.731" transform="translate(86.039 153.757)" fill="none" stroke="#5cd6ef" stroke-miterlimit="10" stroke-width="3"/>
      <path id="Tracé_1134-2" data-name="Tracé 1134" d="M2.5,0c.9,12.377.9,23.124-2.5,27.719" transform="translate(36.926 155.133)" fill="none" stroke="#5cd6ef" stroke-miterlimit="10" stroke-width="3"/>
      <circle id="Ellipse_345-2" data-name="Ellipse 345" cx="10.553" cy="10.553" r="10.553" transform="translate(61.338 99.871)" fill="#fff"/>
      <circle id="Ellipse_346-2" data-name="Ellipse 346" cx="10.553" cy="10.553" r="10.553" transform="translate(25.721 99.871)" fill="#fff"/>
      <circle id="Ellipse_347-2" data-name="Ellipse 347" cx="2.968" cy="2.968" r="2.968" transform="translate(33.636 107.786)"/>
      <ellipse id="Ellipse_348-2" data-name="Ellipse 348" cx="2.638" cy="2.968" rx="2.638" ry="2.968" transform="translate(69.912 107.786)"/>
      <path id="Tracé_1135-2" data-name="Tracé 1135" d="M.577.167C2.131-.92,6.988,3.64,13.132,4.047S23.637.581,25.154,1.793c3.139,2.509-5.877,8.816-12.022,8.41S-2.428,2.269.577.167Z" transform="translate(44.33 128.083)" fill="#fff"/>
      <path id="Tracé_1136-2" data-name="Tracé 1136" d="M98.663,108.285V49.547c0-18.611-9.373-34.865-23.316-43.575A43.709,43.709,0,0,0,57.121,2l-38.1-2S11.016,1.342,5.781,13.813C2.051,22.693,0,35.825,0,46.749v77.374c6.026,3.086,12.982-1.677,12.982-8.846V74.72a5.405,5.405,0,0,1,5.193-5.594V143.15c6.865,4.271,15.578-1.039,15.578-9.692V74.72a5.4,5.4,0,0,1,5.193-5.594c.033,0,0-1.74,0,85.212,6.929,4.31,15.578-1.1,15.578-9.692V74.72a5.4,5.4,0,0,1,5.193-5.594v79.618c6.865,4.271,15.579-1.039,15.579-9.692V70.9A3.838,3.838,0,0,1,77.025,69a9.555,9.555,0,0,1,3.358-.7l.106,39.7a17.51,17.51,0,0,0,12.982,5.877A5.4,5.4,0,0,0,98.663,108.285Z" transform="translate(106.685 155.639) rotate(177)" fill="#fec34f"/>
      <path id="Tracé_1137-2" data-name="Tracé 1137" d="M.4,0A63.766,63.766,0,0,0,4.036,29.731" transform="translate(86.039 153.757)" fill="none" stroke="#fec34f" stroke-miterlimit="10" stroke-width="3"/>
      <path id="Tracé_1138-2" data-name="Tracé 1138" d="M2.5,0c.9,12.377.9,23.124-2.5,27.719" transform="translate(36.926 155.133)" fill="none" stroke="#fec34f" stroke-miterlimit="10" stroke-width="3"/>
      <circle id="Ellipse_349-2" data-name="Ellipse 349" cx="10.553" cy="10.553" r="10.553" transform="translate(61.338 99.871)" fill="#fff"/>
      <circle id="Ellipse_350-2" data-name="Ellipse 350" cx="10.553" cy="10.553" r="10.553" transform="translate(25.721 99.871)" fill="#fff"/>
      <circle id="Ellipse_351-2" data-name="Ellipse 351" cx="2.968" cy="2.968" r="2.968" transform="translate(33.636 107.786)"/>
      <ellipse id="Ellipse_352-2" data-name="Ellipse 352" cx="2.638" cy="2.968" rx="2.638" ry="2.968" transform="translate(69.912 107.786)"/>
      <path id="Tracé_1139-2" data-name="Tracé 1139" d="M.577.167C2.131-.92,6.988,3.64,13.132,4.047S23.637.581,25.154,1.793c3.139,2.509-5.877,8.816-12.022,8.41S-2.428,2.269.577.167Z" transform="translate(44.33 128.083)" fill="#fff"/>
      <path id="Tracé_1140-2" data-name="Tracé 1140" d="M25.843,0C23.325,1.3,24.108,6.572,0,.835" transform="translate(100.86 129.24)" fill="none" stroke="#fec34f" stroke-miterlimit="10" stroke-width="2"/>
      <path id="Union_61-2" data-name="Union 61" d="M4.2,11.367V8.859A4.491,4.491,0,0,1,3.673,8.8v2.569a.525.525,0,1,1-1.049,0V8.475a4.457,4.457,0,0,1-.54-.289L1.751,9.425A.525.525,0,0,1,.738,9.153l.456-1.7A4.428,4.428,0,0,1,4.459,0,4.446,4.446,0,0,1,8.916,4.433,4.394,4.394,0,0,1,8.287,6.7l.879,1.8c.193.4.139.817-.122.943s-.628-.092-.822-.487L7.565,7.613a4.473,4.473,0,0,1-.745.581v2.649a.525.525,0,1,1-1.049,0V8.672a4.447,4.447,0,0,1-.524.126v2.569a.525.525,0,1,1-1.049,0Z" transform="translate(125.068 135.027) rotate(-106)" fill="#5cd6ef"/>
      <g id="Union_62-2" data-name="Union 62" transform="translate(125.068 135.027) rotate(-106)" fill="#fec34f">
        <path d="M 4.721400260925293 11.39170074462891 C 4.707780361175537 11.39170074462891 4.696700096130371 11.38062000274658 4.696700096130371 11.36700057983398 L 4.696700096130371 8.859180450439453 L 4.696700096130371 8.387150764465332 L 4.225450038909912 8.360010147094727 C 4.069040298461914 8.351000785827637 3.912420272827148 8.332760810852051 3.759950160980225 8.30580997467041 L 3.172900199890137 8.202020645141602 L 3.172900199890137 8.79817008972168 L 3.172900199890137 11.36700057983398 C 3.172900199890137 11.38062000274658 3.16182017326355 11.39170074462891 3.148200273513794 11.39170074462891 C 3.134580135345459 11.39170074462891 3.123500108718872 11.38062000274658 3.123500108718872 11.36700057983398 L 3.123500108718872 8.475120544433594 L 3.123500108718872 8.151710510253906 L 2.828530073165894 8.01909065246582 C 2.664030075073242 7.945130348205566 2.502750158309937 7.858810424804688 2.349190235137939 7.762520313262939 L 1.775910139083862 7.403080463409424 L 1.600640177726746 8.05663013458252 L 1.268460154533386 9.295289993286133 C 1.26373016834259 9.313040733337402 1.245510220527649 9.313520431518555 1.245330214500427 9.313520431518555 C 1.243360161781311 9.313520431518555 1.241300225257874 9.313220024108887 1.239020228385925 9.312610626220703 C 1.225620150566101 9.309040069580078 1.21759021282196 9.29503059387207 1.221090197563171 9.281929969787598 L 1.67684018611908 7.582500457763672 L 1.748800158500671 7.314170360565186 L 1.558960199356079 7.111330509185791 C 0.8760801553726196 6.381680488586426 0.5000001788139343 5.43064022064209 0.5000001788139343 4.43340015411377 C 0.5000001788139343 2.264520406723022 2.275820255279541 0.5000003576278687 4.458600044250488 0.5000003576278687 C 6.640880107879639 0.5000003576278687 8.416299819946289 2.264520406723022 8.416299819946289 4.43340015411377 C 8.416299819946289 5.144240379333496 8.223569869995117 5.840610504150391 7.858950138092041 6.447230339050293 L 7.718820095062256 6.680360317230225 L 7.838410377502441 6.924650192260742 L 8.71742057800293 8.720330238342285 C 8.748047828674316 8.783166885375977 8.76517391204834 8.84089183807373 8.77390193939209 8.889761924743652 C 8.739579200744629 8.852153778076172 8.703250885009766 8.801839828491211 8.671440124511719 8.736880302429199 L 8.013790130615234 7.393420219421387 L 7.711570262908936 6.776030540466309 L 7.217260360717773 7.253690242767334 C 7.015600204467773 7.448560237884521 6.792850017547607 7.622330188751221 6.555200099945068 7.77016019821167 L 6.319300174713135 7.916900157928467 L 6.319300174713135 8.194720268249512 L 6.319300174713135 10.84409999847412 C 6.319300174713135 10.85772037506104 6.308220386505127 10.86880016326904 6.294600009918213 10.86880016326904 C 6.280980110168457 10.86880016326904 6.269900321960449 10.85772037506104 6.269900321960449 10.84409999847412 L 6.269900321960449 8.67179012298584 L 6.269900321960449 7.99608039855957 L 5.623720169067383 8.19364070892334 C 5.471710205078125 8.240110397338867 5.315279960632324 8.277750015258789 5.158780097961426 8.305500030517578 L 4.746099948883057 8.378700256347656 L 4.746099948883057 8.797820091247559 L 4.746099948883057 11.36700057983398 C 4.746099948883057 11.38062000274658 4.735020160675049 11.39170074462891 4.721400260925293 11.39170074462891 Z" stroke="none"/>
        <path d="M 4.668340682983398 7.884685516357422 L 5.071470260620117 7.813190460205078 C 5.208150386810303 7.7889404296875 5.344769954681396 7.756070137023926 5.477530002593994 7.715480327606201 L 5.908121585845947 7.583837985992432 L 6.291100025177002 7.345600605010986 C 6.498810291290283 7.216390609741211 6.693520069122314 7.064500331878662 6.869820117950439 6.894140243530273 L 7.196977615356445 6.577999591827393 L 7.430400371551514 6.189650535583496 C 7.748280048370361 5.660800457000732 7.916300296783447 5.053500175476074 7.916300296783447 4.43340015411377 C 7.916300296783447 2.540220260620117 6.365180015563965 1.000000357627869 4.458600044250488 1.000000357627869 C 2.551520109176636 1.000000357627869 1.00000011920929 2.540220260620117 1.00000011920929 4.43340015411377 C 1.00000011920929 5.303300380706787 1.328160166740417 6.133000373840332 1.924020171165466 6.769670486450195 L 2.232328176498413 7.099091529846191 L 2.614800214767456 7.338900566101074 C 2.74901008605957 7.423050403594971 2.889900207519531 7.498470306396484 3.033560276031494 7.563060283660889 L 3.424197196960449 7.738692760467529 L 3.847000122070313 7.813440322875977 C 3.980260133743286 7.837000370025635 4.117269992828369 7.852950572967529 4.254199981689453 7.860830307006836 L 4.668340682983398 7.884685516357422 M 4.721400260925293 11.89170074462891 C 4.431600093841553 11.89170074462891 4.196700096130371 11.65680027008057 4.196700096130371 11.36700057983398 L 4.196700096130371 8.859180450439453 C 4.01908016204834 8.848950386047363 3.844340085983276 8.82848072052002 3.672900199890137 8.79817008972168 L 3.672900199890137 11.36700057983398 C 3.672900199890137 11.65680027008057 3.438000202178955 11.89170074462891 3.148200273513794 11.89170074462891 C 2.858400106430054 11.89170074462891 2.623500108718872 11.65680027008057 2.623500108718872 11.36700057983398 L 2.623500108718872 8.475120544433594 C 2.436290264129639 8.390950202941895 2.255940198898315 8.294210433959961 2.083580255508423 8.186140060424805 L 1.751400113105774 9.424799919128418 C 1.688827991485596 9.659257888793945 1.476582407951355 9.813515663146973 1.245339274406433 9.813521385192871 C 1.200519561767578 9.813522338867188 1.154996752738953 9.807727813720703 1.109700202941895 9.795599937438965 C 0.8298001885414124 9.720900535583496 0.6633001565933228 9.432900428771973 0.7380001544952393 9.153000831604004 L 1.193900227546692 7.452990531921387 C 0.4531101584434509 6.661470413208008 1.708984314063855e-07 5.600150585174561 1.708984314063855e-07 4.43340015411377 C 1.708984314063855e-07 1.985400319099426 1.996200203895569 3.723144459399919e-07 4.458600044250488 3.723144459399919e-07 C 6.920100212097168 3.723144459399919e-07 8.916299819946289 1.985400319099426 8.916299819946289 4.43340015411377 C 8.916299819946289 5.263700485229492 8.686770439147949 6.040540218353271 8.287489891052246 6.704820156097412 L 9.166500091552734 8.500500679016113 C 9.359100341796875 8.895600318908691 9.305100440979004 9.317700386047363 9.044099807739258 9.443700790405273 C 8.994125366210938 9.467909812927246 8.940117835998535 9.479427337646484 8.884172439575195 9.479433059692383 C 8.648948669433594 9.479459762573242 8.378721237182617 9.275986671447754 8.222399711608887 8.95680046081543 L 7.564710140228271 7.613250255584717 C 7.338180065155029 7.832150459289551 7.088390350341797 8.02733039855957 6.819300174713135 8.194720268249512 L 6.819300174713135 10.84409999847412 C 6.819300174713135 11.13390064239502 6.584400177001953 11.36880016326904 6.294600009918213 11.36880016326904 C 6.004800319671631 11.36880016326904 5.769900321960449 11.13390064239502 5.769900321960449 10.84409999847412 L 5.769900321960449 8.67179012298584 C 5.599420070648193 8.723910331726074 5.424610137939453 8.766160011291504 5.246099948883057 8.797820091247559 L 5.246099948883057 11.36700057983398 C 5.246099948883057 11.65680027008057 5.011199951171875 11.89170074462891 4.721400260925293 11.89170074462891 Z" stroke="none" fill="#fec34f"/>
      </g>
      <path id="Union_64-2" data-name="Union 64" d="M2.795,6.247V5.9a2.988,2.988,0,0,1-.349-.041v.39a.349.349,0,1,1-.7,0V5.642A2.966,2.966,0,0,1,1.4,5.456v.1a.349.349,0,1,1-.7,0v-.7a2.929,2.929,0,0,1-.7-1.9,2.968,2.968,0,0,1,5.936,0,2.924,2.924,0,0,1-.418,1.511L5.783,5a.346.346,0,0,1-.161.464.35.35,0,0,1-.467-.159l-.117-.239a2.978,2.978,0,0,1-.5.388V5.9a.349.349,0,0,1-.7,0V5.772a2.963,2.963,0,0,1-.348.084v.391a.349.349,0,1,1-.7,0Z" transform="translate(34.32 179.835) rotate(11)" fill="#fec34f"/>
      <path id="Union_65-2" data-name="Union 65" d="M0,3.645a2.93,2.93,0,0,1,.7-1.9v-.7a.349.349,0,0,1,.7,0v.1A2.964,2.964,0,0,1,1.747.954V.349a.349.349,0,0,1,.7,0V.74A2.992,2.992,0,0,1,2.794.7V.349a.349.349,0,0,1,.7,0V.74a2.964,2.964,0,0,1,.349.084V.7a.349.349,0,1,1,.7,0v.445a2.977,2.977,0,0,1,.5.388l.117-.239a.35.35,0,0,1,.467-.16.346.346,0,0,1,.16.464l-.264.539a2.925,2.925,0,0,1,.418,1.511A2.968,2.968,0,0,1,0,3.645Z" transform="translate(93.572 186.309) rotate(169)" fill="#fec34f"/>
      <path id="Tracé_1147-2" data-name="Tracé 1147" d="M.144,4.338C2.126-2.748,25.629-.541,31.939,6.544s1.738,26.134-6.555,26.134S-1.838,11.423.144,4.338Z" transform="translate(54.911 109.687) rotate(141)"/>
      <path id="Tracé_1148-2" data-name="Tracé 1148" d="M.144,28.341c1.981,7.085,25.485,4.879,31.795-2.207S33.677,0,25.385,0-1.837,21.256.144,28.341Z" transform="translate(73.967 84.292) rotate(39)"/>
      <line id="Ligne_65-2" data-name="Ligne 65" x2="16.489" transform="translate(49.795 108.775)" fill="none" stroke="#000" stroke-width="3"/>
      <path id="Tracé_1150-2" data-name="Tracé 1150" d="M11.259,0A16.269,16.269,0,0,1,7.843,7.192C5.04,10.49,0,12.945,0,12.945" transform="translate(92.008 93.851)" fill="none" stroke="#000" stroke-linecap="round" stroke-width="1"/>
      <path id="Tracé_1149-2" data-name="Tracé 1149" d="M0,0A11.344,11.344,0,0,0,5.781,3.8c3.677.949,8.928,0,8.928,0" transform="translate(5.406 103.018)" fill="none" stroke="#000" stroke-linecap="round" stroke-width="1"/>
    </g>
  </g>
</svg>
