<svg xmlns="http://www.w3.org/2000/svg" width="274.138" height="210.69" viewBox="0 0 274.138 210.69">
  <g id="Groupe_962" data-name="Groupe 962" transform="translate(0 0)">
    <g id="Groupe_958" data-name="Groupe 958" transform="translate(117.464 2.953) rotate(3)">
      <path id="Tracé_1132" data-name="Tracé 1132" d="M106.089,116.789V53.438c0-20.073-10.079-37.6-25.071-47a46.879,46.879,0,0,0-19.6-4.288L20.455,0S11.845,1.447,6.216,14.9C2.205,24.475,0,38.638,0,50.421v83.45c6.48,3.329,13.959-1.808,13.959-9.54V80.588a5.822,5.822,0,0,1,5.584-6.033v79.838c7.382,4.606,16.751-1.121,16.751-10.453V80.588a5.821,5.821,0,0,1,5.584-6.033c.035,0,0-1.876,0,91.9,7.45,4.649,16.751-1.192,16.751-10.453V80.588a5.822,5.822,0,0,1,5.584-6.033v85.871c7.382,4.606,16.751-1.121,16.751-10.453v-73.5a4.137,4.137,0,0,1,1.859-2.051,10.246,10.246,0,0,1,3.611-.758l.113,42.821a18.8,18.8,0,0,0,13.959,6.339A5.817,5.817,0,0,0,106.089,116.789Z" transform="translate(132.274 167.861) rotate(177)" fill="#5cd6ef"/>
      <path id="Tracé_1133" data-name="Tracé 1133" d="M.424,0a68.974,68.974,0,0,0,3.92,32.066" transform="translate(110.075 165.829)" fill="none" stroke="#5cd6ef" stroke-miterlimit="10" stroke-width="3"/>
      <path id="Tracé_1134" data-name="Tracé 1134" d="M2.679,0C3.644,13.349,3.646,24.94,0,29.9" transform="translate(57.269 167.305)" fill="none" stroke="#5cd6ef" stroke-miterlimit="10" stroke-width="3"/>
      <path id="Tracé_1183" data-name="Tracé 1183" d="M11.346,0A11.382,11.382,0,1,1,0,11.38,11.369,11.369,0,0,1,11.346,0Z" transform="translate(83.506 107.709)" fill="#fff"/>
      <path id="Tracé_1184" data-name="Tracé 1184" d="M11.346,0A11.382,11.382,0,1,1,0,11.38,11.369,11.369,0,0,1,11.346,0Z" transform="translate(45.208 107.703)" fill="#fff"/>
      <path id="Tracé_1185" data-name="Tracé 1185" d="M3.191,0A3.2,3.2,0,1,1,0,3.2,3.2,3.2,0,0,1,3.191,0Z" transform="translate(53.719 116.239)"/>
      <path id="Tracé_1186" data-name="Tracé 1186" d="M2.836,0A3.037,3.037,0,0,1,5.674,3.2,3.034,3.034,0,0,1,2.837,6.4,3.037,3.037,0,0,1,0,3.2,3.034,3.034,0,0,1,2.836,0Z" transform="translate(92.726 116.245)"/>
      <path id="Tracé_1135" data-name="Tracé 1135" d="M.62.18c1.671-1.172,6.894,3.747,13.5,4.187S25.417.631,27.047,1.938c3.375,2.706-6.318,9.508-12.925,9.068S-2.611,2.447.62.18Z" transform="translate(65.221 138.131)" fill="#fff"/>
      <path id="Tracé_1136" data-name="Tracé 1136" d="M106.089,116.789V53.438c0-20.073-10.079-37.6-25.071-47a46.879,46.879,0,0,0-19.6-4.288L20.455,0S11.845,1.447,6.216,14.9C2.205,24.475,0,38.638,0,50.421v83.45c6.48,3.329,13.959-1.808,13.959-9.54V80.588a5.822,5.822,0,0,1,5.584-6.033v79.838c7.382,4.606,16.751-1.121,16.751-10.453V80.588a5.821,5.821,0,0,1,5.584-6.033c.035,0,0-1.876,0,91.9,7.45,4.649,16.751-1.192,16.751-10.453V80.588a5.822,5.822,0,0,1,5.584-6.033v85.871c7.382,4.606,16.751-1.121,16.751-10.453v-73.5a4.137,4.137,0,0,1,1.859-2.051,10.246,10.246,0,0,1,3.611-.758l.113,42.821a18.8,18.8,0,0,0,13.959,6.339A5.817,5.817,0,0,0,106.089,116.789Z" transform="translate(132.274 167.861) rotate(177)" fill="#5cd6ef"/>
      <path id="Tracé_1137" data-name="Tracé 1137" d="M.424,0a68.974,68.974,0,0,0,3.92,32.066" transform="translate(110.075 165.829)" fill="none" stroke="#5cd6ef" stroke-miterlimit="10" stroke-width="3"/>
      <path id="Tracé_1138" data-name="Tracé 1138" d="M2.679,0C3.644,13.349,3.646,24.94,0,29.9" transform="translate(57.269 167.305)" fill="none" stroke="#5cd6ef" stroke-miterlimit="10" stroke-width="3"/>
      <path id="Tracé_1187" data-name="Tracé 1187" d="M11.346,0A11.382,11.382,0,1,1,0,11.38,11.369,11.369,0,0,1,11.346,0Z" transform="translate(83.506 107.709)" fill="#fff"/>
      <path id="Tracé_1188" data-name="Tracé 1188" d="M11.346,0A11.382,11.382,0,1,1,0,11.38,11.369,11.369,0,0,1,11.346,0Z" transform="translate(45.208 107.703)" fill="#fff"/>
      <path id="Tracé_1189" data-name="Tracé 1189" d="M3.191,0A3.2,3.2,0,1,1,0,3.2,3.2,3.2,0,0,1,3.191,0Z" transform="translate(53.719 116.239)"/>
      <path id="Tracé_1190" data-name="Tracé 1190" d="M2.836,0A3.037,3.037,0,0,1,5.674,3.2,3.034,3.034,0,0,1,2.837,6.4,3.037,3.037,0,0,1,0,3.2,3.034,3.034,0,0,1,2.836,0Z" transform="translate(92.726 116.245)"/>
      <path id="Tracé_1139" data-name="Tracé 1139" d="M.62.18c1.671-1.172,6.894,3.747,13.5,4.187S25.417.631,27.047,1.938c3.375,2.706-6.318,9.508-12.925,9.068S-2.611,2.447.62.18Z" transform="translate(65.221 138.131)" fill="#fff"/>
      <path id="Tracé_1140" data-name="Tracé 1140" d="M27.788,0C25.081,1.4,25.924,7.088,0,.9" transform="translate(126.006 139.393)" fill="none" stroke="#5cd6ef" stroke-miterlimit="10" stroke-width="2"/>
      <path id="Union_61" data-name="Union 61" d="M4.531,12.229v-2.7a4.857,4.857,0,0,1-.564-.065v2.759a.566.566,0,1,1-1.132,0V9.122a4.812,4.812,0,0,1-.583-.311L1.9,10.137A.566.566,0,0,1,.8,9.844l.488-1.821A4.733,4.733,0,0,1,0,4.771a4.811,4.811,0,0,1,9.622,0,4.719,4.719,0,0,1-.68,2.447l.948,1.93c.209.426.151.879-.13,1.015s-.679-.1-.887-.525l-.71-1.445a4.822,4.822,0,0,1-.8.625v2.849a.566.566,0,1,1-1.132,0V9.332a4.81,4.81,0,0,1-.564.136v2.762a.566.566,0,0,1-1.132,0Z" transform="translate(152.037 145.634) rotate(-106)" fill="#5cd6ef"/>
      <path id="Union_62" data-name="Union 62" d="M4.531,12.229v-2.7a4.857,4.857,0,0,1-.564-.065v2.759a.566.566,0,1,1-1.132,0V9.122a4.812,4.812,0,0,1-.583-.311L1.9,10.137A.566.566,0,0,1,.8,9.844l.488-1.821A4.733,4.733,0,0,1,0,4.771a4.811,4.811,0,0,1,9.622,0,4.719,4.719,0,0,1-.68,2.447l.948,1.93c.209.426.151.879-.13,1.015s-.679-.1-.887-.525l-.71-1.445a4.822,4.822,0,0,1-.8.625v2.849a.566.566,0,1,1-1.132,0V9.332a4.81,4.81,0,0,1-.564.136v2.762a.566.566,0,0,1-1.132,0Z" transform="translate(152.037 145.634) rotate(-106)" fill="#5cd6ef"/>
      <path id="Tracé_1143" data-name="Tracé 1143" d="M0,0C2.268,1.177,1.564,5.939,23.283.758" transform="translate(6.072 139.526)" fill="none" stroke="#fec34f" stroke-miterlimit="10" stroke-width="2"/>
      <path id="Union_63" data-name="Union 63" d="M0,6.729A3.97,3.97,0,0,1,1.079,4.007L.668,2.47a.474.474,0,0,1,.915-.246l.3,1.12a4.035,4.035,0,0,1,.49-.262V.475a.475.475,0,0,1,.95,0V2.791a4.066,4.066,0,0,1,.472-.055V.474a.475.475,0,0,1,.949,0V2.791a4.028,4.028,0,0,1,.472.113V.944a.474.474,0,0,1,.949,0V3.332a4.046,4.046,0,0,1,.67.519l.594-1.21c.175-.355.508-.553.743-.439s.283.494.109.85L7.487,4.666a3.958,3.958,0,0,1,.578,2.064A4.032,4.032,0,0,1,0,6.729Z" transform="translate(0 142.65) rotate(-74)" fill="#5cd6ef"/>
      <path id="Union_64" data-name="Union 64" d="M3.009,6.741V6.364a3.209,3.209,0,0,1-.374-.043v.42a.376.376,0,1,1-.751,0V6.089a3.193,3.193,0,0,1-.375-.2v.1a.376.376,0,0,1-.752,0V5.241A3.183,3.183,0,0,1,3.194,0,3.183,3.183,0,0,1,5.938,4.817l.285.581a.375.375,0,0,1-.675.328l-.126-.258a3.207,3.207,0,0,1-.535.419v.48a.376.376,0,1,1-.752,0V6.229a3.179,3.179,0,0,1-.374.09v.422a.376.376,0,0,1-.751,0Z" transform="translate(54.466 193.945) rotate(11)" fill="#5cd6ef"/>
      <path id="Union_65" data-name="Union 65" d="M0,3.934A3.165,3.165,0,0,1,.752,1.881V1.126a.376.376,0,0,1,.752,0v.106a3.19,3.19,0,0,1,.375-.2V.376a.375.375,0,1,1,.751,0V.8A3.2,3.2,0,0,1,3.005.756V.376a.375.375,0,0,1,.751,0V.8a3.175,3.175,0,0,1,.375.09V.751a.376.376,0,0,1,.752,0v.482a3.2,3.2,0,0,1,.533.417l.127-.259a.375.375,0,0,1,.675.329L5.933,2.3a3.182,3.182,0,0,1-2.74,4.817A3.188,3.188,0,0,1,0,3.934Z" transform="translate(118.18 200.94) rotate(169)" fill="#5cd6ef"/>
      <path id="Tracé_1147" data-name="Tracé 1147" d="M.157,4.691C2.3-2.946,27.6-.605,34.377,7.018s1.83,28.154-7.1,28.167S-1.987,12.327.157,4.691Z" transform="translate(76.612 118.301) rotate(141)"/>
      <path id="Tracé_1148" data-name="Tracé 1148" d="M.157,30.484c2.145,7.635,27.448,5.3,34.231-2.325S36.217.013,27.288,0-1.988,22.85.157,30.484Z" transform="translate(97.09 90.967) rotate(39)"/>
      <line id="Ligne_65" data-name="Ligne 65" x2="17.731" y2="0.003" transform="translate(71.094 117.309)" fill="none" stroke="#000" stroke-width="3"/>
      <path id="Tracé_1150" data-name="Tracé 1150" d="M12.1,0A17.567,17.567,0,0,1,8.432,7.756C5.418,11.313,0,13.96,0,13.96" transform="translate(116.484 101.222)" fill="none" stroke="#000" stroke-linecap="round" stroke-width="1"/>
      <path id="Tracé_1149" data-name="Tracé 1149" d="M0,0A12.2,12.2,0,0,0,6.216,4.1c3.954,1.024,9.6,0,9.6,0" transform="translate(23.362 111.092)" fill="none" stroke="#000" stroke-linecap="round" stroke-width="1"/>
    </g>
    <g id="Groupe_957" data-name="Groupe 957" transform="translate(0 0)">
      <path id="Tracé_1075" data-name="Tracé 1075" d="M106.093,116.774l.01-63.351c0-20.072-10.073-37.6-25.063-46.992a46.871,46.871,0,0,0-19.6-4.284L20.477,0S11.866,1.448,6.235,14.9C2.223,24.478.015,38.641.013,50.424L0,133.873c6.479,3.328,13.959-1.811,13.961-9.542l.007-43.742a5.824,5.824,0,0,1,5.585-6.034l-.013,79.837c7.381,4.6,16.751-1.123,16.753-10.455l.01-63.351a5.824,5.824,0,0,1,5.585-6.034c.035,0,0-1.876-.015,91.9C49.322,171.1,58.624,165.26,58.625,156l.012-75.417a5.824,5.824,0,0,1,5.585-6.034l-.014,85.87c7.381,4.605,16.751-1.123,16.753-10.456l.012-73.5a4.138,4.138,0,0,1,1.86-2.051,10.248,10.248,0,0,1,3.611-.758l.107,42.821a18.8,18.8,0,0,0,13.958,6.337A5.819,5.819,0,0,0,106.093,116.774Z" transform="translate(132.289 167.856) rotate(177)" fill="#5cd6ef"/>
      <path id="Tracé_1076" data-name="Tracé 1076" d="M108.986,129.12a68.968,68.968,0,0,0,3.915,32.065" transform="translate(1.507 36.705)" fill="none" stroke="#5cd6ef" stroke-miterlimit="10" stroke-width="3"/>
      <path id="Tracé_1077" data-name="Tracé 1077" d="M77.794,131.46c.963,13.349.963,24.94-2.684,29.9" transform="translate(-17.85 35.85)" fill="none" stroke="#5cd6ef" stroke-miterlimit="10" stroke-width="3"/>
      <ellipse id="Ellipse_302" data-name="Ellipse 302" cx="11" cy="11.5" rx="11" ry="11.5" transform="translate(84.04 108.378)" fill="#fff"/>
      <ellipse id="Ellipse_303" data-name="Ellipse 303" cx="12" cy="11.5" rx="12" ry="11.5" transform="translate(45.04 108.378)" fill="#fff"/>
      <circle id="Ellipse_304" data-name="Ellipse 304" cx="3.5" cy="3.5" r="3.5" transform="translate(53.04 116.378)"/>
      <ellipse id="Ellipse_305" data-name="Ellipse 305" cx="2.5" cy="3.5" rx="2.5" ry="3.5" transform="translate(93.04 116.378)"/>
      <path id="Tracé_1082" data-name="Tracé 1082" d="M3097.747,691.822c1.671-1.172,6.893,3.746,13.5,4.184s11.3-3.738,12.926-2.431c3.375,2.706-6.319,9.509-12.926,9.07S3094.515,694.089,3097.747,691.822Z" transform="translate(-3031.906 -553.507)" fill="#fff"/>
      <path id="Tracé_1075-2" data-name="Tracé 1075" d="M106.093,116.774l.01-63.351c0-20.072-10.073-37.6-25.063-46.992a46.871,46.871,0,0,0-19.6-4.284L20.477,0S11.866,1.448,6.235,14.9C2.223,24.478.015,38.641.013,50.424L0,133.873c6.479,3.328,13.959-1.811,13.961-9.542l.007-43.742a5.824,5.824,0,0,1,5.585-6.034l-.013,79.837c7.381,4.6,16.751-1.123,16.753-10.455l.01-63.351a5.824,5.824,0,0,1,5.585-6.034c.035,0,0-1.876-.015,91.9C49.322,171.1,58.624,165.26,58.625,156l.012-75.417a5.824,5.824,0,0,1,5.585-6.034l-.014,85.87c7.381,4.605,16.751-1.123,16.753-10.456l.012-73.5a4.138,4.138,0,0,1,1.86-2.051,10.248,10.248,0,0,1,3.611-.758l.107,42.821a18.8,18.8,0,0,0,13.958,6.337A5.819,5.819,0,0,0,106.093,116.774Z" transform="translate(132.289 167.856) rotate(177)" fill="#5cd6ef"/>
      <path id="Tracé_1076-2" data-name="Tracé 1076" d="M108.986,129.12a68.968,68.968,0,0,0,3.915,32.065" transform="translate(1.507 36.705)" fill="none" stroke="#5cd6ef" stroke-miterlimit="10" stroke-width="3"/>
      <path id="Tracé_1077-2" data-name="Tracé 1077" d="M77.794,131.46c.963,13.349.963,24.94-2.684,29.9" transform="translate(-17.85 35.85)" fill="none" stroke="#5cd6ef" stroke-miterlimit="10" stroke-width="3"/>
      <ellipse id="Ellipse_306" data-name="Ellipse 306" cx="11" cy="11.5" rx="11" ry="11.5" transform="translate(84.04 108.378)" fill="#fff"/>
      <ellipse id="Ellipse_307" data-name="Ellipse 307" cx="12" cy="11.5" rx="12" ry="11.5" transform="translate(45.04 108.378)" fill="#fff"/>
      <circle id="Ellipse_308" data-name="Ellipse 308" cx="3.5" cy="3.5" r="3.5" transform="translate(53.04 116.378)"/>
      <ellipse id="Ellipse_309" data-name="Ellipse 309" cx="2.5" cy="3.5" rx="2.5" ry="3.5" transform="translate(93.04 116.378)"/>
      <path id="Tracé_1083" data-name="Tracé 1083" d="M3097.747,691.822c1.671-1.172,6.893,3.746,13.5,4.184s11.3-3.738,12.926-2.431c3.375,2.706-6.319,9.509-12.926,9.07S3094.515,694.089,3097.747,691.822Z" transform="translate(-3031.906 -553.507)" fill="#fff"/>
      <path id="Tracé_1095" data-name="Tracé 1095" d="M144.788,101.25c-2.707,1.4-1.865,7.088-27.788.9" transform="translate(9.004 38.132)" fill="none" stroke="#5cd6ef" stroke-miterlimit="10" stroke-width="2"/>
      <path id="Union_44" data-name="Union 44" d="M4.532,12.232V9.537a4.855,4.855,0,0,1-.564-.065v2.759a.566.566,0,1,1-1.132,0V9.125a4.815,4.815,0,0,1-.583-.311L1.9,10.138A.566.566,0,0,1,.8,9.845l.488-1.819A4.735,4.735,0,0,1,0,4.773a4.812,4.812,0,0,1,9.624,0,4.72,4.72,0,0,1-.681,2.448L9.891,9.15c.209.425.15.879-.13,1.014s-.678-.1-.886-.525L8.165,8.2a4.826,4.826,0,0,1-.805.626v2.849a.566.566,0,0,1-1.132,0V9.335a4.816,4.816,0,0,1-.563.135v2.761a.566.566,0,1,1-1.132,0Z" transform="translate(152.034 145.624) rotate(-106)" fill="#5cd6ef"/>
      <path id="Union_45" data-name="Union 45" d="M4.532,12.232V9.537a4.855,4.855,0,0,1-.564-.065v2.759a.566.566,0,1,1-1.132,0V9.125a4.815,4.815,0,0,1-.583-.311L1.9,10.138A.566.566,0,0,1,.8,9.845l.488-1.819A4.735,4.735,0,0,1,0,4.773a4.812,4.812,0,0,1,9.624,0,4.72,4.72,0,0,1-.681,2.448L9.891,9.15c.209.425.15.879-.13,1.014s-.678-.1-.886-.525L8.165,8.2a4.826,4.826,0,0,1-.805.626v2.849a.566.566,0,0,1-1.132,0V9.335a4.816,4.816,0,0,1-.563.135v2.761a.566.566,0,1,1-1.132,0Z" transform="translate(152.034 145.624) rotate(-106)" fill="#5cd6ef"/>
      <path id="Tracé_1101" data-name="Tracé 1101" d="M3.32,92.25C5.588,93.427,4.883,98.189,26.6,93" transform="translate(2.751 47.289)" fill="none" stroke="#5cd6ef" stroke-miterlimit="10" stroke-width="2"/>
      <path id="Union_47" data-name="Union 47" d="M0,6.727A3.967,3.967,0,0,1,1.079,4.005L.668,2.47a.474.474,0,0,1,.915-.245l.3,1.119a4.033,4.033,0,0,1,.49-.262V.475a.474.474,0,0,1,.949,0V2.791a4.071,4.071,0,0,1,.473-.055V.474a.474.474,0,0,1,.949,0V2.791a4.034,4.034,0,0,1,.472.113V.944a.474.474,0,0,1,.949,0V3.333a4.044,4.044,0,0,1,.671.52l.595-1.211c.175-.356.508-.553.743-.44s.284.494.109.851L7.487,4.667a3.955,3.955,0,0,1,.576,2.061A4.032,4.032,0,0,1,0,6.727Z" transform="translate(0 142.663) rotate(-74)" fill="#5cd6ef"/>
      <path id="Union_52" data-name="Union 52" d="M3.008,6.74V6.362a3.2,3.2,0,0,1-.375-.044V6.74a.375.375,0,0,1-.751,0V6.087a3.191,3.191,0,0,1-.375-.2v.1a.376.376,0,0,1-.752,0V5.24A3.182,3.182,0,0,1,3.193,0,3.183,3.183,0,0,1,5.936,4.815l.285.582a.375.375,0,1,1-.674.328L5.42,5.466a3.206,3.206,0,0,1-.535.418v.481a.376.376,0,1,1-.752,0V6.227a3.175,3.175,0,0,1-.374.09V6.74a.376.376,0,1,1-.751,0Z" transform="translate(54.457 193.95) rotate(11)" fill="#5cd6ef"/>
      <path id="Union_53" data-name="Union 53" d="M0,3.935A3.166,3.166,0,0,1,.752,1.882V1.126a.376.376,0,0,1,.752,0v.106a3.186,3.186,0,0,1,.375-.2V.376a.376.376,0,0,1,.752,0V.8A3.211,3.211,0,0,1,3.005.756V.376a.376.376,0,1,1,.752,0V.8a3.184,3.184,0,0,1,.375.09V.751a.375.375,0,1,1,.751,0v.481a3.206,3.206,0,0,1,.534.417l.127-.258a.375.375,0,0,1,.675.328L5.933,2.3a3.183,3.183,0,0,1-2.74,4.819A3.189,3.189,0,0,1,0,3.935Z" transform="translate(118.17 200.936) rotate(169)" fill="#5cd6ef"/>
    </g>
    <g id="Groupe_959" data-name="Groupe 959" transform="translate(134.973 3.87) rotate(3)">
      <path id="Tracé_1132-2" data-name="Tracé 1132" d="M106.089,116.789V53.438c0-20.073-10.079-37.6-25.071-47a46.879,46.879,0,0,0-19.6-4.288L20.455,0S11.845,1.447,6.216,14.9C2.205,24.475,0,38.638,0,50.421v83.45c6.48,3.329,13.959-1.808,13.959-9.54V80.588a5.822,5.822,0,0,1,5.584-6.033v79.838c7.382,4.606,16.751-1.121,16.751-10.453V80.588a5.821,5.821,0,0,1,5.584-6.033c.035,0,0-1.876,0,91.9,7.45,4.649,16.751-1.192,16.751-10.453V80.588a5.822,5.822,0,0,1,5.584-6.033v85.871c7.382,4.606,16.751-1.121,16.751-10.453v-73.5a4.137,4.137,0,0,1,1.859-2.051,10.246,10.246,0,0,1,3.611-.758l.113,42.821a18.8,18.8,0,0,0,13.959,6.339A5.817,5.817,0,0,0,106.089,116.789Z" transform="translate(114.741 167.861) rotate(177)" fill="#5cd6ef"/>
      <path id="Tracé_1133-2" data-name="Tracé 1133" d="M.424,0a68.974,68.974,0,0,0,3.92,32.066" transform="translate(92.542 165.829)" fill="none" stroke="#5cd6ef" stroke-miterlimit="10" stroke-width="3"/>
      <path id="Tracé_1134-2" data-name="Tracé 1134" d="M2.679,0C3.644,13.349,3.646,24.94,0,29.9" transform="translate(39.736 167.305)" fill="none" stroke="#5cd6ef" stroke-miterlimit="10" stroke-width="3"/>
      <path id="Tracé_1197" data-name="Tracé 1197" d="M11.346,0A11.382,11.382,0,1,1,0,11.38,11.369,11.369,0,0,1,11.346,0Z" transform="translate(65.973 107.709)" fill="#fff"/>
      <path id="Tracé_1198" data-name="Tracé 1198" d="M11.346,0A11.382,11.382,0,1,1,0,11.38,11.369,11.369,0,0,1,11.346,0Z" transform="translate(27.675 107.703)" fill="#fff"/>
      <path id="Tracé_1199" data-name="Tracé 1199" d="M3.191,0A3.2,3.2,0,1,1,0,3.2,3.2,3.2,0,0,1,3.191,0Z" transform="translate(36.186 116.239)"/>
      <path id="Tracé_1200" data-name="Tracé 1200" d="M2.836,0A3.037,3.037,0,0,1,5.674,3.2,3.034,3.034,0,0,1,2.837,6.4,3.037,3.037,0,0,1,0,3.2,3.034,3.034,0,0,1,2.836,0Z" transform="translate(75.193 116.245)"/>
      <path id="Tracé_1135-2" data-name="Tracé 1135" d="M.62.18c1.671-1.172,6.894,3.747,13.5,4.187S25.417.631,27.047,1.938c3.375,2.706-6.318,9.508-12.925,9.068S-2.611,2.447.62.18Z" transform="translate(47.688 138.131)" fill="#fff"/>
      <path id="Tracé_1136-2" data-name="Tracé 1136" d="M106.089,116.789V53.438c0-20.073-10.079-37.6-25.071-47a46.879,46.879,0,0,0-19.6-4.288L20.455,0S11.845,1.447,6.216,14.9C2.205,24.475,0,38.638,0,50.421v83.45c6.48,3.329,13.959-1.808,13.959-9.54V80.588a5.822,5.822,0,0,1,5.584-6.033v79.838c7.382,4.606,16.751-1.121,16.751-10.453V80.588a5.821,5.821,0,0,1,5.584-6.033c.035,0,0-1.876,0,91.9,7.45,4.649,16.751-1.192,16.751-10.453V80.588a5.822,5.822,0,0,1,5.584-6.033v85.871c7.382,4.606,16.751-1.121,16.751-10.453v-73.5a4.137,4.137,0,0,1,1.859-2.051,10.246,10.246,0,0,1,3.611-.758l.113,42.821a18.8,18.8,0,0,0,13.959,6.339A5.817,5.817,0,0,0,106.089,116.789Z" transform="translate(114.741 167.861) rotate(177)" fill="#fec34f"/>
      <path id="Tracé_1137-2" data-name="Tracé 1137" d="M.424,0a68.974,68.974,0,0,0,3.92,32.066" transform="translate(92.542 165.829)" fill="none" stroke="#fec34f" stroke-miterlimit="10" stroke-width="3"/>
      <path id="Tracé_1138-2" data-name="Tracé 1138" d="M2.679,0C3.644,13.349,3.646,24.94,0,29.9" transform="translate(39.736 167.305)" fill="none" stroke="#fec34f" stroke-miterlimit="10" stroke-width="3"/>
      <path id="Tracé_1201" data-name="Tracé 1201" d="M11.346,0A11.382,11.382,0,1,1,0,11.38,11.369,11.369,0,0,1,11.346,0Z" transform="translate(65.973 107.709)" fill="#fff"/>
      <path id="Tracé_1202" data-name="Tracé 1202" d="M11.346,0A11.382,11.382,0,1,1,0,11.38,11.369,11.369,0,0,1,11.346,0Z" transform="translate(27.675 107.703)" fill="#fff"/>
      <path id="Tracé_1203" data-name="Tracé 1203" d="M3.191,0A3.2,3.2,0,1,1,0,3.2,3.2,3.2,0,0,1,3.191,0Z" transform="translate(36.186 116.239)"/>
      <path id="Tracé_1204" data-name="Tracé 1204" d="M2.836,0A3.037,3.037,0,0,1,5.674,3.2,3.034,3.034,0,0,1,2.837,6.4,3.037,3.037,0,0,1,0,3.2,3.034,3.034,0,0,1,2.836,0Z" transform="translate(75.193 116.245)"/>
      <path id="Tracé_1139-2" data-name="Tracé 1139" d="M.62.18c1.671-1.172,6.894,3.747,13.5,4.187S25.417.631,27.047,1.938c3.375,2.706-6.318,9.508-12.925,9.068S-2.611,2.447.62.18Z" transform="translate(47.688 138.131)" fill="#fff"/>
      <path id="Tracé_1140-2" data-name="Tracé 1140" d="M27.788,0C25.081,1.4,25.924,7.088,0,.9" transform="translate(108.473 139.393)" fill="none" stroke="#fec34f" stroke-miterlimit="10" stroke-width="2"/>
      <path id="Union_61-2" data-name="Union 61" d="M4.531,12.229v-2.7a4.857,4.857,0,0,1-.564-.065v2.759a.566.566,0,1,1-1.132,0V9.122a4.812,4.812,0,0,1-.583-.311L1.9,10.137A.566.566,0,0,1,.8,9.844l.488-1.821A4.733,4.733,0,0,1,0,4.771a4.811,4.811,0,0,1,9.622,0,4.719,4.719,0,0,1-.68,2.447l.948,1.93c.209.426.151.879-.13,1.015s-.679-.1-.887-.525l-.71-1.445a4.822,4.822,0,0,1-.8.625v2.849a.566.566,0,1,1-1.132,0V9.332a4.81,4.81,0,0,1-.564.136v2.762a.566.566,0,0,1-1.132,0Z" transform="translate(134.504 145.634) rotate(-106)" fill="#5cd6ef"/>
      <g id="Union_62-2" data-name="Union 62" transform="translate(134.504 145.634) rotate(-106)" fill="#fec34f">
        <path d="M 5.096699714660645 12.29530048370361 C 5.060249805450439 12.29530048370361 5.030600070953369 12.26564979553223 5.030600070953369 12.22920036315918 L 5.030600070953369 9.533760070800781 L 5.030600070953369 9.061380386352539 L 4.558979988098145 9.034570693969727 C 4.38916015625 9.024909973144531 4.2188401222229 9.005229949951172 4.052760124206543 8.976070404052734 L 3.466300010681152 8.873109817504883 L 3.466300010681152 9.468540191650391 L 3.466300010681152 12.2273998260498 C 3.466300010681152 12.26385021209717 3.436650037765503 12.29349994659424 3.400199890136719 12.29349994659424 C 3.363749980926514 12.29349994659424 3.334100008010864 12.26385021209717 3.334100008010864 12.2273998260498 L 3.334100008010864 9.121860504150391 L 3.334100008010864 8.797810554504395 L 3.038309812545776 8.665460586547852 C 2.858959913253784 8.585220336914063 2.683130025863647 8.491519927978516 2.515699863433838 8.386990547180176 L 1.942889928817749 8.029339790344238 L 1.767969965934753 8.681600570678711 L 1.412469863891602 10.0071907043457 C 1.404099941253662 10.03855991363525 1.374489903450012 10.05457019805908 1.349449872970581 10.05457019805908 C 1.343589901924133 10.05457019805908 1.337779879570007 10.0537805557251 1.331679940223694 10.05216026306152 C 1.310719966888428 10.04652976989746 1.2984699010849 10.03221988677979 1.292119979858398 10.02128028869629 C 1.283419966697693 10.00627994537354 1.281219959259033 9.990469932556152 1.285579919815063 9.974289894104004 L 1.77390992641449 8.152800559997559 L 1.846019864082336 7.883820056915283 L 1.655289888381958 7.680900096893311 C 0.9102899432182312 6.888250350952148 0.4999999105930328 5.854790210723877 0.4999999105930328 4.770900249481201 C 0.4999999105930328 2.415920257568359 2.433679819107056 0.5000002384185791 4.810500144958496 0.5000002384185791 C 7.187809944152832 0.5000002384185791 9.121899604797363 2.415920257568359 9.121899604797363 4.770900249481201 C 9.121899604797363 5.543540477752686 8.911600112915039 6.300340175628662 8.513730049133301 6.959470272064209 L 8.372599601745605 7.193280220031738 L 8.493049621582031 7.438380241394043 L 9.441359519958496 9.368120193481445 C 9.500796318054199 9.489300727844238 9.516539573669434 9.592617034912109 9.515717506408691 9.661649703979492 C 9.459301948547363 9.619681358337402 9.382975578308105 9.541952133178711 9.321820259094238 9.417540550231934 L 8.611989974975586 7.972520351409912 L 8.309809684753418 7.357380390167236 L 7.816279888153076 7.832910060882568 C 7.596889972686768 8.044310569763184 7.35444974899292 8.232890129089355 7.095709800720215 8.393400192260742 L 6.859300136566162 8.540070533752441 L 6.859300136566162 8.818280220031738 L 6.859300136566162 11.66760063171387 C 6.859300136566162 11.70405006408691 6.829649925231934 11.73369979858398 6.793200016021729 11.73369979858398 C 6.756129741668701 11.73369979858398 6.727099895477295 11.70466995239258 6.727099895477295 11.66760063171387 L 6.727099895477295 9.331649780273438 L 6.727099895477295 8.656390190124512 L 6.081220149993896 8.853400230407715 C 5.915830135345459 8.903850555419922 5.745699882507324 8.944720268249512 5.575560092926025 8.974870681762695 L 5.162799835205078 9.048009872436523 L 5.162799835205078 9.46720027923584 L 5.162799835205078 12.22920036315918 C 5.162799835205078 12.26564979553223 5.133150100708008 12.29530048370361 5.096699714660645 12.29530048370361 Z" stroke="none"/>
        <path d="M 5.043740749359131 8.561318397521973 L 5.488319873809814 8.482540130615234 C 5.638720035552979 8.455890655517578 5.789119720458984 8.419760704040527 5.93533992767334 8.375160217285156 L 6.410077095031738 8.230349540710449 L 6.832129955291748 7.968520164489746 C 7.060929775238037 7.826580047607422 7.275320053100586 7.659810066223145 7.46934986114502 7.472860336303711 L 7.828974723815918 7.12634801864624 L 8.08566951751709 6.701090335845947 C 8.436470031738281 6.119920253753662 8.621899604797363 5.452470302581787 8.621899604797363 4.770900249481201 C 8.621899604797363 2.691620349884033 6.912109851837158 1.000000238418579 4.810500144958496 1.000000238418579 C 2.709379911422729 1.000000238418579 0.9999999403953552 2.691620349884033 0.9999999403953552 4.770900249481201 C 0.9999999403953552 5.727050304412842 1.362109899520874 6.638890266418457 2.019629955291748 7.338460445404053 L 2.359354972839355 7.699916362762451 L 2.780509948730469 7.962870121002197 C 2.928570032119751 8.055310249328613 3.084009885787964 8.138140678405762 3.242519855499268 8.209060668945313 L 3.673268795013428 8.401797294616699 L 4.139219760894775 8.483600616455078 C 4.286159992218018 8.509400367736816 4.436939716339111 8.526820182800293 4.587369918823242 8.535369873046875 L 5.043740749359131 8.561318397521973 M 5.096699714660645 12.79530048370361 C 4.78439998626709 12.79530048370361 4.530600070953369 12.54150009155273 4.530600070953369 12.22920036315918 L 4.530600070953369 9.533760070800781 C 4.339250087738037 9.522880554199219 4.151020050048828 9.500969886779785 3.966300010681152 9.468540191650391 L 3.966300010681152 12.2273998260498 C 3.966300010681152 12.54059982299805 3.712499856948853 12.79349994659424 3.400199890136719 12.79349994659424 C 3.087899923324585 12.79349994659424 2.834100008010864 12.54059982299805 2.834100008010864 12.2273998260498 L 2.834100008010864 9.121860504150391 C 2.631879806518555 9.031380653381348 2.437089920043945 8.927360534667969 2.250900030136108 8.811110496520996 L 1.895399928092957 10.13670063018799 C 1.828275084495544 10.38860702514648 1.599316954612732 10.55455589294434 1.34947681427002 10.55457019805908 C 1.301182985305786 10.55457305908203 1.252139091491699 10.54837512969971 1.203299880027771 10.535400390625 C 0.9017999172210693 10.45440006256104 0.721799910068512 10.14480018615723 0.8027999401092529 9.844200134277344 L 1.29095995426178 8.023330688476563 C 0.4900799095630646 7.171230316162109 -7.934570334100499e-08 6.027860164642334 -7.934570334100499e-08 4.770900249481201 C -7.934570334100499e-08 2.136600255966187 2.15369987487793 2.418518079139176e-07 4.810500144958496 2.418518079139176e-07 C 7.468199729919434 2.418518079139176e-07 9.621899604797363 2.136600255966187 9.621899604797363 4.770900249481201 C 9.621899604797363 5.66549015045166 9.373649597167969 6.502410411834717 8.941789627075195 7.217860221862793 L 9.89009952545166 9.147600173950195 C 10.09889984130859 9.573300361633301 10.04129981994629 10.02690029144287 9.760499954223633 10.16279983520508 C 9.706598281860352 10.18863201141357 9.648431777954102 10.20092010498047 9.588218688964844 10.20092678070068 C 9.33375072479248 10.20095348358154 9.041947364807129 9.981616973876953 8.873100280761719 9.638100624084473 L 8.163209915161133 8.192970275878906 C 7.918839931488037 8.428430557250977 7.649590015411377 8.638190269470215 7.359300136566162 8.818280220031738 L 7.359300136566162 11.66760063171387 C 7.359300136566162 11.98080062866211 7.105499744415283 12.23369979858398 6.793200016021729 12.23369979858398 C 6.480000019073486 12.23369979858398 6.227099895477295 11.98080062866211 6.227099895477295 11.66760063171387 L 6.227099895477295 9.331649780273438 C 6.043379783630371 9.387690544128418 5.855179786682129 9.433110237121582 5.662799835205078 9.46720027923584 L 5.662799835205078 12.22920036315918 C 5.662799835205078 12.54150009155273 5.408999919891357 12.79530048370361 5.096699714660645 12.79530048370361 Z" stroke="none" fill="#fec34f"/>
      </g>
      <path id="Union_64-2" data-name="Union 64" d="M3.009,6.741V6.364a3.209,3.209,0,0,1-.374-.043v.42a.376.376,0,1,1-.751,0V6.089a3.193,3.193,0,0,1-.375-.2v.1a.376.376,0,0,1-.752,0V5.241A3.183,3.183,0,0,1,3.194,0,3.183,3.183,0,0,1,5.938,4.817l.285.581a.375.375,0,0,1-.675.328l-.126-.258a3.207,3.207,0,0,1-.535.419v.48a.376.376,0,1,1-.752,0V6.229a3.179,3.179,0,0,1-.374.09v.422a.376.376,0,0,1-.751,0Z" transform="translate(36.933 193.945) rotate(11)" fill="#fec34f"/>
      <path id="Union_65-2" data-name="Union 65" d="M0,3.934A3.165,3.165,0,0,1,.752,1.881V1.126a.376.376,0,0,1,.752,0v.106a3.19,3.19,0,0,1,.375-.2V.376a.375.375,0,1,1,.751,0V.8A3.2,3.2,0,0,1,3.005.756V.376a.375.375,0,0,1,.751,0V.8a3.175,3.175,0,0,1,.375.09V.751a.376.376,0,0,1,.752,0v.482a3.2,3.2,0,0,1,.533.417l.127-.259a.375.375,0,0,1,.675.329L5.933,2.3a3.182,3.182,0,0,1-2.74,4.817A3.188,3.188,0,0,1,0,3.934Z" transform="translate(100.647 200.94) rotate(169)" fill="#fec34f"/>
      <path id="Tracé_1147-2" data-name="Tracé 1147" d="M.157,4.691C2.3-2.946,27.6-.605,34.377,7.018s1.83,28.154-7.1,28.167S-1.987,12.327.157,4.691Z" transform="translate(59.079 118.301) rotate(141)"/>
      <path id="Tracé_1148-2" data-name="Tracé 1148" d="M.157,30.484c2.145,7.635,27.448,5.3,34.231-2.325S36.217.013,27.288,0-1.988,22.85.157,30.484Z" transform="translate(79.557 90.967) rotate(39)"/>
      <line id="Ligne_65-2" data-name="Ligne 65" x2="17.731" y2="0.003" transform="translate(53.561 117.309)" fill="none" stroke="#000" stroke-width="3"/>
      <path id="Tracé_1150-2" data-name="Tracé 1150" d="M12.1,0A17.567,17.567,0,0,1,8.432,7.756C5.418,11.313,0,13.96,0,13.96" transform="translate(98.951 101.222)" fill="none" stroke="#000" stroke-linecap="round" stroke-width="1"/>
      <path id="Tracé_1149-2" data-name="Tracé 1149" d="M0,0A12.2,12.2,0,0,0,6.216,4.1c3.954,1.024,9.6,0,9.6,0" transform="translate(5.829 111.092)" fill="none" stroke="#000" stroke-linecap="round" stroke-width="1"/>
    </g>
  </g>
</svg>
