<svg xmlns="http://www.w3.org/2000/svg" width="31.944" height="49.671" viewBox="0 0 31.944 49.671">
  <path id="Tracé_1238" data-name="Tracé 1238" d="M36.45,15.344V34.291A16.491,16.491,0,0,1,28.93,48.346a14.1,14.1,0,0,1-5.879,1.282H13.344S3.307,51.208,4.626,35.193V10.235a2.952,2.952,0,0,1,4.187,2.853V26.17a1.743,1.743,0,0,0,1.675,1.8V4.1a3.36,3.36,0,0,1,5.025,3.126V26.17a1.743,1.743,0,0,0,1.675,1.8c.01,0,0,.561,0-27.487a3.359,3.359,0,0,1,5.025,3.126V26.17a1.743,1.743,0,0,0,1.675,1.8V2.293a3.36,3.36,0,0,1,5.025,3.126V27.4A17.929,17.929,0,0,0,19.7,43.277a.9.9,0,0,0,.786.937.867.867,0,0,0,.889-.9A16.068,16.068,0,0,1,30.1,28.8a.908.908,0,0,0,.491-.821V15.435a5.648,5.648,0,0,1,4.187-1.9A1.742,1.742,0,0,1,36.45,15.344Z" transform="translate(-4.506)" fill="#ffaf56"/>
</svg>
