<svg xmlns="http://www.w3.org/2000/svg" width="21.997" height="34.205" viewBox="0 0 21.997 34.205">
  <path id="Tracé_1413" data-name="Tracé 1413" d="M26.5,10.566V23.613a11.356,11.356,0,0,1-5.179,9.679,9.708,9.708,0,0,1-4.049.883H10.592s-6.912,1.088-6-9.941V7.048A2.033,2.033,0,0,1,7.472,9.013v9.009a1.2,1.2,0,0,0,1.153,1.243V2.821a2.314,2.314,0,0,1,3.46,2.153V18.021a1.2,1.2,0,0,0,1.153,1.243c.007,0,0,.386,0-18.928A2.313,2.313,0,0,1,16.7,2.489V18.021a1.2,1.2,0,0,0,1.153,1.243V1.579a2.314,2.314,0,0,1,3.46,2.153V18.87A12.346,12.346,0,0,0,14.969,29.8a.62.62,0,0,0,.541.645.6.6,0,0,0,.612-.62,11.065,11.065,0,0,1,6.006-10,.625.625,0,0,0,.338-.565V10.629A3.889,3.889,0,0,1,25.35,9.323,1.2,1.2,0,0,1,26.5,10.566Z" transform="translate(-4.506)" fill="#5cd6ef"/>
</svg>
