<svg xmlns="http://www.w3.org/2000/svg" width="22.284" height="34.651" viewBox="0 0 22.284 34.651">
  <path id="Tracé_1242" data-name="Tracé 1242" d="M26.79,10.7V23.921a11.5,11.5,0,0,1-5.246,9.805,9.835,9.835,0,0,1-4.1.895H10.671s-7,1.1-6.082-10.07V7.14A2.059,2.059,0,0,1,7.511,9.13v9.126a1.216,1.216,0,0,0,1.168,1.259V2.858a2.344,2.344,0,0,1,3.505,2.181V18.256a1.216,1.216,0,0,0,1.168,1.259c.007,0,0,.391,0-19.174a2.343,2.343,0,0,1,3.505,2.181V18.256a1.216,1.216,0,0,0,1.168,1.259V1.6A2.344,2.344,0,0,1,21.532,3.78V19.115A12.507,12.507,0,0,0,15.106,30.19a.629.629,0,0,0,.548.653.6.6,0,0,0,.62-.628,12.6,12.6,0,0,1,.32-2.744,10.863,10.863,0,0,1,5.764-7.383.633.633,0,0,0,.343-.573V10.767a3.94,3.94,0,0,1,2.921-1.323A1.215,1.215,0,0,1,26.79,10.7Z" transform="translate(-4.506 0)" fill="#ffaf56"/>
</svg>
