<svg xmlns="http://www.w3.org/2000/svg" width="432.585" height="173.827" viewBox="0 0 432.585 173.827">
  <g id="Groupe_1818" data-name="Groupe 1818" transform="translate(-440.185 -376.839)">
    <path id="Tracé_1231" data-name="Tracé 1231" d="M18.369,0l18.1,42.132L0,72.047" transform="translate(544.349 500.261) rotate(83)" fill="none" stroke="#5cd6ef" stroke-width="5"/>
    <path id="Tracé_1233" data-name="Tracé 1233" d="M17.471,67.734,34.977,28.052,0,0" transform="translate(815.796 512.674) rotate(97)" fill="none" stroke="#5cd6ef" stroke-width="5"/>
    <path id="Tracé_1249" data-name="Tracé 1249" d="M72.455,29.061V13.3C72.455,8.3,65.572,3.94,55.333,1.6A81.812,81.812,0,0,0,41.948.536L13.97,0S8.09.36,4.245,3.707A12.319,12.319,0,0,0,0,12.546V33.312c4.426.828,9.534-.45,9.534-2.374V20.053c0-.827,1.7-1.5,3.813-1.5V38.418c5.042,1.146,11.44-.279,11.44-2.6V20.053c0-.829,1.707-1.5,3.813-1.5.024,0,0-.467,0,22.869,5.088,1.157,11.44-.3,11.44-2.6V20.053c0-.827,1.7-1.5,3.813-1.5V39.919c5.042,1.146,11.44-.279,11.44-2.6V19.028a2.538,2.538,0,0,1,1.27-.51,18.2,18.2,0,0,1,2.466-.189l.077,10.655a26.522,26.522,0,0,0,9.534,1.577C70.751,30.562,72.455,29.891,72.455,29.061Z" transform="translate(622.218 409.799) rotate(142)" fill="#fed846"/>
    <path id="Union_75" data-name="Union 75" d="M26.726,60.868C12.11,60.868.234,48.883,0,34.007q0-.22,0-.441A27.554,27.554,0,0,1,5.921,16.427v-9.1a1,1,0,0,1,1-1H11.21a1,1,0,0,1,1,1v3.311a26.5,26.5,0,0,1,3.084-1.758V1a1,1,0,0,1,1-1h4.288a1,1,0,0,1,1,1V6.77a26.193,26.193,0,0,1,3.14-.43V1.094a1,1,0,0,1,1-1h4.289a1,1,0,0,1,1,1v5.52a26.108,26.108,0,0,1,3.172.728V4.405a1,1,0,0,1,1-1h4.289a1,1,0,0,1,1,1v5.742a26.775,26.775,0,0,1,2.819,1.992q.989.8,1.9,1.688l.748-1.591a3.07,3.07,0,0,1,4.19-1.437,3.292,3.292,0,0,1,1.49,4.309l-2.027,4.313a27.612,27.612,0,0,1,3.863,14.145c0,15.079-11.966,27.3-26.727,27.3Z" transform="matrix(0.848, 0.53, -0.53, 0.848, 827.439, 454.922)" fill="#5cd6ef"/>
    <path id="Union_101" data-name="Union 101" d="M16.294,60.869a1,1,0,0,1-1-1V51.987a26.5,26.5,0,0,1-3.084-1.758V53.54a1,1,0,0,1-1,1H6.921a1,1,0,0,1-1-1v-9.1A27.549,27.549,0,0,1,0,27.3C0,12.224,11.965,0,26.726,0h0a26.839,26.839,0,0,1,25.8,20.153,27.89,27.89,0,0,1,.926,7.15,27.611,27.611,0,0,1-3.862,14.145l2.027,4.313a3.292,3.292,0,0,1-1.49,4.309,3.068,3.068,0,0,1-4.189-1.437l-.748-1.591a26.9,26.9,0,0,1-4.719,3.68v5.743a1,1,0,0,1-1,1H35.183a1,1,0,0,1-1-1V53.527a26.106,26.106,0,0,1-3.172.728v5.52a1,1,0,0,1-1,1H25.723a1,1,0,0,1-1-1V54.528a26.192,26.192,0,0,1-3.14-.43v5.77a1,1,0,0,1-1,1Z" transform="matrix(-0.848, 0.53, -0.53, -0.848, 517.772, 511.542)" fill="#5cd6ef"/>
  </g>
</svg>
