<svg xmlns="http://www.w3.org/2000/svg" width="231.696" height="291.325" viewBox="0 0 231.696 291.325">
  <g id="Groupe_943" data-name="Groupe 943" transform="translate(-987.258 -338.582)">
    <g id="Groupe_932" data-name="Groupe 932" transform="translate(13636 23943)">
      <path id="Tracé_1075" data-name="Tracé 1075" d="M149.587,164.174V75.119c0-28.217-14.211-52.86-35.35-66.065A66.269,66.269,0,0,0,86.6,3.027L28.842,0S16.7,2.034,8.765,20.942C3.109,34.406,0,54.315,0,70.878V188.187c9.137,4.679,19.682-2.542,19.682-13.411v-61.49c0-4.669,3.512-8.481,7.873-8.481V217.035c10.409,6.475,23.619-1.575,23.619-14.694V113.286c0-4.684,3.525-8.481,7.873-8.481.049,0,0-2.638,0,129.193,10.505,6.535,23.619-1.675,23.619-14.694V113.286c0-4.67,3.511-8.481,7.873-8.481V225.516c10.409,6.475,23.619-1.576,23.619-14.694V107.5a5.819,5.819,0,0,1,2.622-2.883,14.486,14.486,0,0,1,5.091-1.065l.16,60.2a26.548,26.548,0,0,0,19.682,8.911C146.07,172.655,149.587,168.86,149.587,164.174Z" transform="translate(-12462.248 -23368.449) rotate(177)" fill="#5cd6ef"/>
      <path id="Tracé_1076" data-name="Tracé 1076" d="M109.16,129.12a96.678,96.678,0,0,0,5.52,45.075" transform="translate(-12602.111 -23500.422)" fill="none" stroke="#5cd6ef" stroke-miterlimit="10" stroke-width="3"/>
      <path id="Tracé_1077" data-name="Tracé 1077" d="M78.894,131.46c1.358,18.765,1.358,35.059-3.784,42.026" transform="translate(-12643.121 -23500.676)" fill="none" stroke="#5cd6ef" stroke-miterlimit="10" stroke-width="3"/>
      <circle id="Ellipse_302" data-name="Ellipse 302" cx="16" cy="16" r="16" transform="translate(-12531 -23453)" fill="#fff"/>
      <circle id="Ellipse_303" data-name="Ellipse 303" cx="16" cy="16" r="16" transform="translate(-12585 -23453)" fill="#fff"/>
      <circle id="Ellipse_304" data-name="Ellipse 304" cx="4.5" cy="4.5" r="4.5" transform="translate(-12573 -23441)"/>
      <ellipse id="Ellipse_305" data-name="Ellipse 305" cx="4" cy="4.5" rx="4" ry="4.5" transform="translate(-12518 -23441)"/>
      <path id="Tracé_1082" data-name="Tracé 1082" d="M3098,691.895c2.356-1.648,9.72,5.266,19.035,5.882s15.927-5.254,18.226-3.417c4.759,3.8-8.911,13.367-18.226,12.751S3093.444,695.082,3098,691.895Z" transform="translate(-15653.912 -24101.869)" fill="#fff"/>
      <path id="Tracé_1075-2" data-name="Tracé 1075" d="M149.587,164.174V75.119c0-28.217-14.211-52.86-35.35-66.065A66.269,66.269,0,0,0,86.6,3.027L28.842,0S16.7,2.034,8.765,20.942C3.109,34.406,0,54.315,0,70.878V188.187c9.137,4.679,19.682-2.542,19.682-13.411v-61.49c0-4.669,3.512-8.481,7.873-8.481V217.035c10.409,6.475,23.619-1.575,23.619-14.694V113.286c0-4.684,3.525-8.481,7.873-8.481.049,0,0-2.638,0,129.193,10.505,6.535,23.619-1.675,23.619-14.694V113.286c0-4.67,3.511-8.481,7.873-8.481V225.516c10.409,6.475,23.619-1.576,23.619-14.694V107.5a5.819,5.819,0,0,1,2.622-2.883,14.486,14.486,0,0,1,5.091-1.065l.16,60.2a26.548,26.548,0,0,0,19.682,8.911C146.07,172.655,149.587,168.86,149.587,164.174Z" transform="translate(-12462.248 -23368.449) rotate(177)" fill="#5cd6ef"/>
      <path id="Tracé_1076-2" data-name="Tracé 1076" d="M109.16,129.12a96.678,96.678,0,0,0,5.52,45.075" transform="translate(-12602.111 -23500.422)" fill="none" stroke="#5cd6ef" stroke-miterlimit="10" stroke-width="3"/>
      <path id="Tracé_1077-2" data-name="Tracé 1077" d="M78.894,131.46c1.358,18.765,1.358,35.059-3.784,42.026" transform="translate(-12643.121 -23500.676)" fill="none" stroke="#5cd6ef" stroke-miterlimit="10" stroke-width="3"/>
      <circle id="Ellipse_306" data-name="Ellipse 306" cx="16" cy="16" r="16" transform="translate(-12531 -23453)" fill="#fff"/>
      <circle id="Ellipse_307" data-name="Ellipse 307" cx="16" cy="16" r="16" transform="translate(-12585 -23453)" fill="#fff"/>
      <circle id="Ellipse_308" data-name="Ellipse 308" cx="4.5" cy="4.5" r="4.5" transform="translate(-12573 -23441)"/>
      <ellipse id="Ellipse_309" data-name="Ellipse 309" cx="4" cy="4.5" rx="4" ry="4.5" transform="translate(-12518 -23441)"/>
      <path id="Tracé_1083" data-name="Tracé 1083" d="M3098,691.895c2.356-1.648,9.72,5.266,19.035,5.882s15.927-5.254,18.226-3.417c4.759,3.8-8.911,13.367-18.226,12.751S3093.444,695.082,3098,691.895Z" transform="translate(-15653.912 -24101.869)" fill="#fff"/>
      <path id="Tracé_1095" data-name="Tracé 1095" d="M156.181,101.25c-3.817,1.974-2.63,9.964-39.181,1.266" transform="translate(-12588.08 -23509.723)" fill="none" stroke="#5cd6ef" stroke-miterlimit="10" stroke-width="2"/>
      <path id="Union_44" data-name="Union 44" d="M6.36,17.237v-3.8a6.8,6.8,0,0,1-.795-.093v3.895a.8.8,0,0,1-1.591,0V12.852a6.756,6.756,0,0,1-.818-.438l-.5,1.878a.8.8,0,0,1-1.536-.412L1.808,11.3A6.714,6.714,0,0,1,6.756,0a6.741,6.741,0,0,1,6.76,6.722,6.662,6.662,0,0,1-.954,3.444l1.332,2.721c.293.6.211,1.239-.184,1.431s-.952-.14-1.246-.739l-1-2.037a6.787,6.787,0,0,1-1.132.883v4.017a.8.8,0,0,1-1.59,0V13.15a6.751,6.751,0,0,1-.795.191v3.9a.8.8,0,1,1-1.59,0Z" transform="translate(-12434.381 -23399.701) rotate(-106)" fill="#5cd6ef"/>
      <path id="Union_45" data-name="Union 45" d="M6.36,17.237v-3.8a6.8,6.8,0,0,1-.795-.093v3.895a.8.8,0,0,1-1.591,0V12.852a6.756,6.756,0,0,1-.818-.438l-.5,1.878a.8.8,0,0,1-1.536-.412L1.808,11.3A6.714,6.714,0,0,1,6.756,0a6.741,6.741,0,0,1,6.76,6.722,6.662,6.662,0,0,1-.954,3.444l1.332,2.721c.293.6.211,1.239-.184,1.431s-.952-.14-1.246-.739l-1-2.037a6.787,6.787,0,0,1-1.132.883v4.017a.8.8,0,0,1-1.59,0V13.15a6.751,6.751,0,0,1-.795.191v3.9a.8.8,0,1,1-1.59,0Z" transform="translate(-12434.381 -23399.701) rotate(-106)" fill="#5cd6ef"/>
      <path id="Tracé_1101" data-name="Tracé 1101" d="M3.32,92.25c3.2,1.654,2.2,8.349,32.829,1.061" transform="translate(-12643.506 -23500.504)" fill="none" stroke="#5cd6ef" stroke-miterlimit="10" stroke-width="2"/>
      <path id="Union_47" data-name="Union 47" d="M0,9.473A5.594,5.594,0,0,1,1.517,5.638L.938,3.479a.666.666,0,1,1,1.287-.345l.422,1.573a5.659,5.659,0,0,1,.686-.367V.666a.666.666,0,1,1,1.332,0V3.929a5.706,5.706,0,0,1,.666-.078V.666a.666.666,0,0,1,1.332,0V3.93a5.65,5.65,0,0,1,.666.16V1.33a.666.666,0,1,1,1.333,0V4.7a5.678,5.678,0,0,1,.948.739l.835-1.706c.246-.5.713-.779,1.044-.619s.4.7.154,1.2l-1.116,2.28a5.582,5.582,0,0,1,.8,2.886A5.663,5.663,0,0,1,0,9.473Z" transform="translate(-12648.742 -23403.863) rotate(-74)" fill="#5cd6ef"/>
    </g>
    <path id="Union_52" data-name="Union 52" d="M7.225,16.154v-.906a7.734,7.734,0,0,1-.9-.105v1.011a.9.9,0,1,1-1.805,0V14.588a7.674,7.674,0,0,1-.9-.48v.251a.9.9,0,0,1-1.805,0V12.552A7.576,7.576,0,0,1,0,7.63a7.674,7.674,0,0,1,15.349,0,7.562,7.562,0,0,1-1.082,3.909l.684,1.4a.894.894,0,0,1-.416,1.2.9.9,0,0,1-1.207-.413l-.3-.619a7.7,7.7,0,0,1-1.286,1v1.151a.9.9,0,0,1-1.806,0v-.329a7.657,7.657,0,0,1-.9.217v1.012a.9.9,0,1,1-1.805,0Z" transform="translate(1063.383 607.236) rotate(11)" fill="#5cd6ef"/>
    <path id="Union_53" data-name="Union 53" d="M0,9.426A7.575,7.575,0,0,1,1.809,4.5V2.7a.9.9,0,0,1,1.805,0v.251a7.669,7.669,0,0,1,.9-.48V.9A.9.9,0,0,1,6.323.9V1.913a7.732,7.732,0,0,1,.9-.105V.9A.9.9,0,1,1,9.03.9V1.914a7.66,7.66,0,0,1,.9.217V1.8a.9.9,0,1,1,1.805,0v1.15a7.705,7.705,0,0,1,1.286,1l.3-.619a.906.906,0,0,1,1.207-.414.9.9,0,0,1,.416,1.2l-.684,1.395a7.561,7.561,0,0,1,1.082,3.908A7.674,7.674,0,0,1,0,9.426Z" transform="translate(1159.585 626.979) rotate(169)" fill="#5cd6ef"/>
  </g>
</svg>
