<svg xmlns="http://www.w3.org/2000/svg" width="116.426" height="174.696" viewBox="0 0 116.426 174.696">
  <g id="Groupe_944" data-name="Groupe 944" transform="translate(-230.822 -1007.581)">
    <path id="Union_66" data-name="Union 66" d="M2.6,5.822V5.5a2.789,2.789,0,0,1-.325-.038v.364a.325.325,0,1,1-.651,0V5.258A2.765,2.765,0,0,1,1.3,5.085v.09a.326.326,0,0,1-.652,0V4.524A2.73,2.73,0,0,1,0,2.75a2.766,2.766,0,0,1,5.532,0,2.726,2.726,0,0,1-.39,1.409l.247.5a.325.325,0,0,1-.585.284l-.11-.223a2.774,2.774,0,0,1-.464.362V5.5a.325.325,0,1,1-.651,0V5.38a2.758,2.758,0,0,1-.325.078v.364a.326.326,0,0,1-.652,0Z" transform="translate(245.449 1134.886) rotate(-8)" fill="#5cd6ef"/>
    <path id="Tracé_1162" data-name="Tracé 1162" d="M-20114.168-22254.484l-7.984,13.943,16.084,9.9" transform="translate(20354.998 23367.756)" fill="none" stroke="#5cd6ef" stroke-width="3"/>
    <path id="Tracé_1075" data-name="Tracé 1075" d="M91.954,100.921V46.177c0-17.345-8.736-32.494-21.73-40.611A40.737,40.737,0,0,0,53.236,1.861L17.73,0S10.267,1.25,5.388,12.873C1.911,21.15,0,33.388,0,43.57v72.112c5.616,2.876,12.1-1.563,12.1-8.244v-37.8a5.037,5.037,0,0,1,4.84-5.214v68.99c6.4,3.98,14.519-.968,14.519-9.033V69.639a5.037,5.037,0,0,1,4.84-5.214c.03,0,0-1.622,0,79.417,6.458,4.017,14.519-1.03,14.519-9.033V69.639a5.037,5.037,0,0,1,4.84-5.214v74.2c6.4,3.98,14.519-.968,14.519-9.033V66.08a3.577,3.577,0,0,1,1.612-1.772,8.9,8.9,0,0,1,3.13-.655l.1,37a16.32,16.32,0,0,0,12.1,5.478A5.033,5.033,0,0,0,91.954,100.921Z" transform="translate(334.216 1152.635) rotate(177)" fill="#5cd6ef"/>
    <path id="Tracé_1076" data-name="Tracé 1076" d="M108.929,129.12a59.43,59.43,0,0,0,3.393,27.709" transform="translate(206.413 1021.762)" fill="none" stroke="#5cd6ef" stroke-miterlimit="10" stroke-width="3"/>
    <path id="Tracé_1077" data-name="Tracé 1077" d="M77.436,131.46c.835,11.535.835,21.551-2.326,25.834" transform="translate(194.092 1020.705)" fill="none" stroke="#5cd6ef" stroke-miterlimit="10" stroke-width="3"/>
    <circle id="Ellipse_302" data-name="Ellipse 302" cx="10" cy="10" r="10" transform="translate(292 1100.587)" fill="#fff"/>
    <circle id="Ellipse_303" data-name="Ellipse 303" cx="10" cy="10" r="10" transform="translate(259 1100.587)" fill="#fff"/>
    <ellipse id="Ellipse_304" data-name="Ellipse 304" cx="3" cy="2.5" rx="3" ry="2.5" transform="translate(266 1108.587)"/>
    <circle id="Ellipse_305" data-name="Ellipse 305" cx="2.5" cy="2.5" r="2.5" transform="translate(300 1108.587)"/>
    <path id="Tracé_1082" data-name="Tracé 1082" d="M3097.663,691.8c1.448-1.013,5.975,3.237,11.7,3.616s9.791-3.23,11.2-2.1c2.925,2.338-5.478,8.217-11.2,7.838S3094.862,693.757,3097.663,691.8Z" transform="translate(-2821.023 435.313)" fill="#fff"/>
    <path id="Tracé_1075-2" data-name="Tracé 1075" d="M91.954,100.921V46.177c0-17.345-8.736-32.494-21.73-40.611A40.737,40.737,0,0,0,53.236,1.861L17.73,0S10.267,1.25,5.388,12.873C1.911,21.15,0,33.388,0,43.57v72.112c5.616,2.876,12.1-1.563,12.1-8.244v-37.8a5.037,5.037,0,0,1,4.84-5.214v68.99c6.4,3.98,14.519-.968,14.519-9.033V69.639a5.037,5.037,0,0,1,4.84-5.214c.03,0,0-1.622,0,79.417,6.458,4.017,14.519-1.03,14.519-9.033V69.639a5.037,5.037,0,0,1,4.84-5.214v74.2c6.4,3.98,14.519-.968,14.519-9.033V66.08a3.577,3.577,0,0,1,1.612-1.772,8.9,8.9,0,0,1,3.13-.655l.1,37a16.32,16.32,0,0,0,12.1,5.478A5.033,5.033,0,0,0,91.954,100.921Z" transform="translate(334.216 1152.635) rotate(177)" fill="#5cd6ef"/>
    <path id="Tracé_1076-2" data-name="Tracé 1076" d="M108.929,129.12a59.43,59.43,0,0,0,3.393,27.709" transform="translate(206.413 1021.762)" fill="none" stroke="#5cd6ef" stroke-miterlimit="10" stroke-width="3"/>
    <path id="Tracé_1077-2" data-name="Tracé 1077" d="M77.436,131.46c.835,11.535.835,21.551-2.326,25.834" transform="translate(194.092 1020.705)" fill="none" stroke="#5cd6ef" stroke-miterlimit="10" stroke-width="3"/>
    <path id="Union_52" data-name="Union 52" d="M2.6,5.822V5.5a2.789,2.789,0,0,1-.325-.038v.364a.325.325,0,1,1-.651,0V5.258A2.765,2.765,0,0,1,1.3,5.085v.09a.326.326,0,0,1-.652,0V4.524A2.73,2.73,0,0,1,0,2.75a2.766,2.766,0,0,1,5.532,0,2.726,2.726,0,0,1-.39,1.409l.247.5a.325.325,0,0,1-.585.284l-.11-.223a2.774,2.774,0,0,1-.464.362V5.5a.325.325,0,1,1-.651,0V5.38a2.758,2.758,0,0,1-.325.078v.364a.326.326,0,0,1-.652,0Z" transform="translate(266.773 1175.186) rotate(11)" fill="#5cd6ef"/>
    <path id="Union_53" data-name="Union 53" d="M0,3.4A2.731,2.731,0,0,1,.652,1.624V.973a.326.326,0,1,1,.652,0v.09A2.765,2.765,0,0,1,1.628.89V.326a.325.325,0,1,1,.651,0V.69A2.785,2.785,0,0,1,2.6.652V.326a.326.326,0,1,1,.652,0V.69A2.762,2.762,0,0,1,3.58.768V.65a.325.325,0,1,1,.651,0v.414a2.776,2.776,0,0,1,.464.362L4.8,1.2a.326.326,0,0,1,.435-.149.322.322,0,0,1,.15.432l-.247.5A2.726,2.726,0,0,1,5.532,3.4,2.766,2.766,0,0,1,0,3.4Z" transform="translate(321.996 1181.221) rotate(169)" fill="#5cd6ef"/>
    <path id="Tracé_1153" data-name="Tracé 1153" d="M-19951.783-22642.48c0-1.389,3.115-2.025,7.893-1.344s5.459,2.6,9.537,3.133a15.567,15.567,0,0,0,4.113-.391c1.867-.283,2.662-.615-5.789,2.8a17.066,17.066,0,0,1-7.861,0C-19947.832-22639.33-19951.783-22641.355-19951.783-22642.48Z" transform="translate(20232.188 23773.592)" fill="#fff"/>
    <ellipse id="Ellipse_358" data-name="Ellipse 358" cx="9.5" cy="10" rx="9.5" ry="10" transform="translate(295 1103.587)" fill="#fff"/>
    <circle id="Ellipse_359" data-name="Ellipse 359" cx="10" cy="10" r="10" transform="translate(262 1103.587)" fill="#fff"/>
    <ellipse id="Ellipse_360" data-name="Ellipse 360" cx="2" cy="2.5" rx="2" ry="2.5" transform="translate(270 1111.587)"/>
    <circle id="Ellipse_361" data-name="Ellipse 361" cx="2.5" cy="2.5" r="2.5" transform="translate(303 1111.587)"/>
    <path id="Tracé_1157" data-name="Tracé 1157" d="M-20176.582-22602.4s30.619,4.67,40.057,4.268,36.75-7.666,36.75-7.666l-1.336,3.807s-23.7,6.717-33.328,7.281-39.205-4.9-39.205-4.9Z" transform="translate(20428.688 23743.822)" stroke="#c1c1c1" stroke-linejoin="round" stroke-width="1"/>
    <path id="Tracé_1161" data-name="Tracé 1161" d="M-20108.121-22597.123l-.293.311-.211.221-3.863,4.051,4.359,3.811-.016-7.885Z" transform="translate(20400.834 23740.248)" stroke="#c1c1c1" stroke-linejoin="round" stroke-width="1"/>
    <path id="Tracé_1158" data-name="Tracé 1158" d="M-20113.4-22587.6l2.773,1.553,4.387-2.629-1.689-1.861-.787.424Z" transform="translate(20401.244 23737.273)" stroke="#c1c1c1" stroke-linejoin="round" stroke-width="1"/>
    <path id="Tracé_1159" data-name="Tracé 1159" d="M-20140.549-22586.545l19.764-10.557v4.293l-17.111,8.922Z" transform="translate(20413.496 23740.234)" stroke="#c1c1c1" stroke-linejoin="round" stroke-width="1"/>
    <path id="Tracé_1156" data-name="Tracé 1156" d="M-20113.965-22595.076l3.184-1.414s2.98,1.488,8.141,3.879c2.063.957,4.947,1.746,7.256,2.793a37.157,37.157,0,0,1,5.242,2.9l-2.252,2.707a18.321,18.321,0,0,0-4.562-3.129c-3.2-1.676-8.252-3.576-8.252-3.576Z" transform="translate(20401.5 23739.961)" stroke="#c1c1c1" stroke-linejoin="round" stroke-width="1"/>
    <path id="Tracé_1160" data-name="Tracé 1160" d="M-20104.531-22597.023v8.344l3.541-1.7.338-4.732-2.285-1.123Z" transform="translate(20397.242 23740.201)" stroke="#c1c1c1" stroke-linejoin="round" stroke-width="1"/>
    <path id="Union_67" data-name="Union 67" d="M0,3.4A2.73,2.73,0,0,1,.652,1.624V.973a.326.326,0,1,1,.652,0v.09A2.765,2.765,0,0,1,1.628.89V.326a.325.325,0,1,1,.651,0V.69A2.791,2.791,0,0,1,2.6.652V.326a.325.325,0,1,1,.651,0V.69A2.758,2.758,0,0,1,3.58.768V.65a.325.325,0,1,1,.651,0v.414a2.773,2.773,0,0,1,.464.362L4.8,1.2a.326.326,0,0,1,.435-.149.322.322,0,0,1,.15.432l-.247.5A2.726,2.726,0,0,1,5.532,3.4,2.766,2.766,0,0,1,0,3.4Z" transform="translate(334.22 1137.284) rotate(-172)" fill="#5cd6ef"/>
    <path id="Tracé_1165" data-name="Tracé 1165" d="M-20123.965-22257.172l14.52,15.8-13.406,9.688" transform="translate(20454.447 23365.104)" fill="none" stroke="#5cd6ef" stroke-width="3"/>
    <path id="Tracé_1166" data-name="Tracé 1166" d="M-20128.367-22336.824a348.45,348.45,0,0,0,46.008,1.707,345.92,345.92,0,0,0,45.885-5.453l.164,2.848.279,5.5s-16.691,8.039-40.176,8.824c-19.3.648-51.75-5.094-51.75-5.094Z" transform="translate(20367.229 23427.23)" fill="#fff"/>
    <path id="Tracé_1154" data-name="Tracé 1154" d="M-19988.721-22691.6s.654-2.865,5.324-2.475,8.475,3.354,13.352,4.035c7.117.994,6.234-2.094,6.234-2.094" transform="translate(20247.035 23794.701)" fill="none" stroke="#000" stroke-width="1"/>
    <path id="Tracé_1155" data-name="Tracé 1155" d="M-19963.777-22691.6s-.654-2.865-5.324-2.475-8.471,3.354-13.352,4.035c-7.115.994-6.229-2.094-6.229-2.094" transform="translate(20280.842 23794.701)" fill="none" stroke="#000" stroke-width="1"/>
    <path id="Tracé_1167" data-name="Tracé 1167" d="M0,0,11.675,2.085l3.485.761L.028.791Z" transform="matrix(0.999, 0.035, -0.035, 0.999, 238.817, 1092.286)" fill="#f0f0f0"/>
    <path id="Tracé_1168" data-name="Tracé 1168" d="M0,0,11.675,2.085l3.02.7L.108.738Z" transform="matrix(0.999, 0.035, -0.035, 0.999, 238.817, 1094.745)" fill="#f0f0f0"/>
    <path id="Tracé_1169" data-name="Tracé 1169" d="M0,2.847,11.675.761,15.159,0,.028,2.055Z" transform="translate(331.389 1091.393) rotate(173)" fill="#f0f0f0"/>
    <path id="Tracé_1170" data-name="Tracé 1170" d="M0,2.787,11.675.7l3.02-.7L.108,2.048Z" transform="translate(331.596 1093.783) rotate(173)" fill="#f0f0f0"/>
  </g>
</svg>
