<svg xmlns="http://www.w3.org/2000/svg" xmlns:xlink="http://www.w3.org/1999/xlink" viewBox="0 0 1377.71 941.49"><defs><style>.cls-1{fill:url(#Dégradé_sans_nom_4);}.cls-2{fill:url(#Dégradé_sans_nom_2);}</style><linearGradient id="Dégradé_sans_nom_4" x1="85.17" y1="969.18" x2="85.17" y2="968.18" gradientTransform="matrix(1383.13, 124.48, 26.5, -294.41, -142777.47, 275424.86)" gradientUnits="userSpaceOnUse"><stop offset="0" stop-color="#fed846"/><stop offset="1" stop-color="#feba39"/></linearGradient><linearGradient id="Dégradé_sans_nom_2" x1="85.18" y1="968.39" x2="85.18" y2="967.39" gradientTransform="matrix(1432.29, 128.91, 79.14, -879.36, -197914.79, 840556.75)" gradientUnits="userSpaceOnUse"><stop offset="0" stop-color="#fed547"/><stop offset="1" stop-color="#fda22c"/></linearGradient></defs><g id="Calque_2" data-name="Calque 2"><g id="Calque_1-2" data-name="Calque 1"><g id="Groupe_1640" data-name="Groupe 1640"><path id="Tracé_7-2" data-name="Tracé 7-2" class="cls-1" d="M1280.36,904.9c-59.78-8-61.29,12.07-142.28,4.71s-109-36-181.67-34.16c-98.63,2.43-168.9,21.73-257,28-94.61,6.74-144.62-44.56-260.22-12.31-40.88,11.4-178.23,50.53-271.9,47.34C76.41,935.39,0,873.07,0,873.07L.4,714.26l1377.31,36.46-.48,190.77S1340.15,912.87,1280.36,904.9Z"/><path id="Tracé_8-2" data-name="Tracé 8-2" class="cls-2" d="M1375.88,820.56s-100.48-46.42-254.39-49.44S927.6,816.79,760.25,808.47s-206.67-57.62-332.95-40c-67.69,9.42-175.52,46.46-278.48,37.67S.82,720.25.82,720.25L1.54,47.78S49.13,24.93,150.75,27.16c94.78,2.08,240.13,29.53,344,21.85C596.28,41.5,709.66,3.77,880.14.25s246,31.21,296.58,34.68c81,5.55,201-4.71,201-4.71Z"/></g></g></g></svg>