<svg xmlns="http://www.w3.org/2000/svg" xmlns:xlink="http://www.w3.org/1999/xlink" viewBox="0 0 412.11 338.16"><defs><style>.cls-1{fill:url(#Dégradé_sans_nom);}.cls-2{fill:url(#Dégradé_sans_nom_2);}</style><linearGradient id="Dégradé_sans_nom" x1="-472.83" y1="562.06" x2="-472.83" y2="561.06" gradientTransform="matrix(412.74, 37.15, 7.91, -87.85, 190923.25, 67206.72)" gradientUnits="userSpaceOnUse"><stop offset="0" stop-color="#fed846"/><stop offset="1" stop-color="#feba39"/></linearGradient><linearGradient id="Dégradé_sans_nom_2" x1="-472.88" y1="563.13" x2="-472.88" y2="562.13" gradientTransform="matrix(432.57, 38.93, 28.69, -318.8, 188617.15, 197925.85)" gradientUnits="userSpaceOnUse"><stop offset="0" stop-color="#fed547"/><stop offset="1" stop-color="#fda22c"/></linearGradient></defs><g id="Calque_2" data-name="Calque 2"><g id="Calque_1-2" data-name="Calque 1"><g id="Groupe_1745" data-name="Groupe 1745"><path id="Tracé_7-2" data-name="Tracé 7-2" class="cls-1" d="M383.12,327.24c-17.8-2.38-18.25,3.6-42.37,1.41s-32.45-10.73-54.1-10.19c-29.36.72-50.29,6.48-76.53,8.35-28.17,2-43.06-13.3-77.49-3.67-12.17,3.4-53.07,15.08-81,14.12-27-.92-49.81-19.51-49.81-19.51L2,270.35l410.13,10.89L412,338.16S400.92,329.63,383.12,327.24Z"/><path id="Tracé_8-2" data-name="Tracé 8-2" class="cls-2" d="M411.6,299.9s-31.21-14-77.15-14.92-57.91,17.11-107.85,14.21S165,278.1,127.25,284.73C107,288.29,74.82,302.11,44.1,299S0,267.38,0,267.38L.84,18.64s14.22-8.49,44.55-7.78c28.29.67,71.65,10.66,102.66,7.71,30.31-2.89,64.19-17,115.08-18.45s73.39,11.28,88.49,12.51c24.18,2,60-2,60-2Z"/></g></g></g></svg>