<svg xmlns="http://www.w3.org/2000/svg" width="122.903" height="171.629" viewBox="0 0 122.903 171.629">
  <g id="Groupe_1744" data-name="Groupe 1744" transform="translate(9521.563 1379.107)">
    <path id="Tracé_1081" data-name="Tracé 1081" d="M3048.3,653.07s-16.181-7.67,7.464-17.934,46.793-10.316,71.373-4.7,12.016,21.557,12.016,21.557" transform="translate(-12559.119 -1938.32)" fill="none" stroke="#707070" stroke-width="4"/>
    <path id="Tracé_1075" data-name="Tracé 1075" d="M90.559,99.39V45.477c0-17.082-8.6-32-21.4-40a40.119,40.119,0,0,0-16.73-3.649L17.461,0S10.111,1.231,5.306,12.678C1.882,20.829,0,32.882,0,42.909v71.018c5.531,2.833,11.916-1.539,11.916-8.119V68.582a4.961,4.961,0,0,1,4.766-5.135v67.944c6.3,3.92,14.3-.954,14.3-8.9V68.582a4.961,4.961,0,0,1,4.766-5.135c.03,0,0-1.6,0,78.212,6.36,3.956,14.3-1.014,14.3-8.9V68.582a4.961,4.961,0,0,1,4.766-5.135v73.078c6.3,3.92,14.3-.954,14.3-8.9V65.078A3.523,3.523,0,0,1,70.7,63.333a8.77,8.77,0,0,1,3.082-.645l.1,36.442a16.072,16.072,0,0,0,11.916,5.395A4.957,4.957,0,0,0,90.559,99.39Z" transform="translate(-9417.026 -1236.254) rotate(177)" fill="#5cd6ef"/>
    <path id="Tracé_1076" data-name="Tracé 1076" d="M108.924,129.12a58.528,58.528,0,0,0,3.342,27.288" transform="translate(-9544.537 -1367.1)" fill="none" stroke="#5cd6ef" stroke-miterlimit="10" stroke-width="3"/>
    <path id="Tracé_1077" data-name="Tracé 1077" d="M77.4,131.46c.822,11.36.822,21.224-2.291,25.442" transform="translate(-9556.164 -1368.177)" fill="none" stroke="#5cd6ef" stroke-miterlimit="10" stroke-width="3"/>
    <path id="Tracé_1079" data-name="Tracé 1079" d="M3052.649,653.089c-3.331,4.5-.935,17.588-.935,17.588s.817,6.945,2.354,7.96,6.895-1.024,9.636-7.517,2.764-12.4,0-16.912S3055.98,648.586,3052.649,653.089Z" transform="translate(-12562.623 -1945.726)" stroke="#707070" stroke-width="1"/>
    <path id="Tracé_1080" data-name="Tracé 1080" d="M3165.441,647.218c2.567,7.6,1.674,19.124,0,24.991s-8.406.707-11.208-3.171c-2.39-3.308-3.581-8.129-2.9-14.953a15.4,15.4,0,0,1,6.309-10.522S3162.874,639.613,3165.441,647.218Z" transform="translate(-12584.807 -1943.048)" stroke="#707070" stroke-width="1"/>
    <ellipse id="Ellipse_302" data-name="Ellipse 302" cx="10" cy="9.5" rx="10" ry="9.5" transform="translate(-9459 -1287)" fill="#fff"/>
    <circle id="Ellipse_303" data-name="Ellipse 303" cx="9.5" cy="9.5" r="9.5" transform="translate(-9491 -1287)" fill="#fff"/>
    <circle id="Ellipse_304" data-name="Ellipse 304" cx="2.5" cy="2.5" r="2.5" transform="translate(-9484 -1280)"/>
    <circle id="Ellipse_305" data-name="Ellipse 305" cx="2.5" cy="2.5" r="2.5" transform="translate(-9451 -1280)"/>
    <path id="Tracé_1082" data-name="Tracé 1082" d="M3097.655,692.12c2.759-3.629,19.677-1.524,22.558,2.806s-5.395,15.217-11.034,14.516S3094.9,695.749,3097.655,692.12Z" transform="translate(-12571.99 -1952.039)" fill="#fff"/>
    <g id="Groupe_926" data-name="Groupe 926" transform="translate(-9466.516 -1273.361) rotate(-18)">
      <g id="Ellipse_151" data-name="Ellipse 151" transform="translate(37.698 0)" fill="#6b6b6b" stroke="#6b6b6b" stroke-width="1">
        <ellipse cx="2.693" cy="2.168" rx="2.693" ry="2.168" stroke="none"/>
        <ellipse cx="2.693" cy="2.168" rx="2.193" ry="1.668" fill="none"/>
      </g>
      <path id="Tracé_254" data-name="Tracé 254" d="M0,15.245s2.813,1.85,13.158-.713S37.216,0,37.216,0" transform="translate(1.933 3.655)" fill="none" stroke="#707070" stroke-width="1"/>
      <g id="Rectangle_192" data-name="Rectangle 192" transform="translate(0 17.961)" stroke="#000" stroke-width="1">
        <rect width="6.155" height="3.097" rx="1.548" stroke="none"/>
        <rect x="0.5" y="0.5" width="5.155" height="2.097" rx="1.048" fill="none"/>
      </g>
    </g>
    <path id="Tracé_1085" data-name="Tracé 1085" d="M3.32,92.25c1.9.984,1.311,4.968,19.53.631" transform="translate(-9519.793 -1354.731)" fill="none" stroke="#5cd6ef" stroke-miterlimit="10" stroke-width="2"/>
    <path id="Tracé_1086" data-name="Tracé 1086" d="M136.53,101.25c-1.9.984-1.311,4.968-19.53.631" transform="translate(-9542.593 -1358.522)" fill="none" stroke="#5cd6ef" stroke-miterlimit="10" stroke-width="2"/>
    <path id="Union_39" data-name="Union 39" d="M3.173,7.093v-.4a3.4,3.4,0,0,1-.4-.046v.444a.4.4,0,0,1-.793,0V6.405a3.364,3.364,0,0,1-.4-.211V6.3a.4.4,0,1,1-.793,0V5.511A3.324,3.324,0,0,1,0,3.351a3.37,3.37,0,0,1,6.74,0,3.319,3.319,0,0,1-.476,1.716l.3.612a.393.393,0,0,1-.182.527.4.4,0,0,1-.53-.181l-.134-.272a3.382,3.382,0,0,1-.565.44v.5a.4.4,0,1,1-.793,0V6.553a3.364,3.364,0,0,1-.4.1v.445a.4.4,0,0,1-.793,0Z" transform="translate(-9483.168 -1216.116) rotate(11)" fill="#5cd6ef"/>
    <path id="Union_40" data-name="Union 40" d="M3.173,8.59v-1.9a3.4,3.4,0,0,1-.4-.046V8.59a.4.4,0,0,1-.793,0V6.4a3.369,3.369,0,0,1-.408-.218l-.251.936a.4.4,0,0,1-.766-.205L.9,5.633A3.346,3.346,0,0,1,3.37,0,3.361,3.361,0,0,1,6.74,3.351a3.319,3.319,0,0,1-.475,1.716l.664,1.357c.146.3.1.617-.093.713s-.474-.069-.621-.368l-.5-1.016a3.38,3.38,0,0,1-.564.44v2a.4.4,0,1,1-.793,0V6.553a3.364,3.364,0,0,1-.4.1V8.59a.4.4,0,0,1-.793,0Z" transform="translate(-9407.299 -1252.897) rotate(-106)" fill="#5cd6ef"/>
    <path id="Union_41" data-name="Union 41" d="M0,4.139a3.326,3.326,0,0,1,.794-2.16V1.184a.4.4,0,0,1,.793,0V1.3a3.364,3.364,0,0,1,.4-.211V.4a.4.4,0,0,1,.793,0V.84a3.4,3.4,0,0,1,.4-.046V.4a.4.4,0,0,1,.793,0V.841a3.363,3.363,0,0,1,.4.1V.791a.4.4,0,0,1,.793,0V1.3a3.381,3.381,0,0,1,.564.44l.133-.272a.4.4,0,0,1,.53-.182.393.393,0,0,1,.183.527l-.3.612a3.321,3.321,0,0,1,.475,1.716A3.37,3.37,0,0,1,0,4.139Z" transform="translate(-9427.876 -1208.765) rotate(169)" fill="#5cd6ef"/>
    <path id="Union_42" data-name="Union 42" d="M0,5.636A3.328,3.328,0,0,1,.9,3.354L.558,2.069a.4.4,0,0,1,.766-.205l.251.936a3.364,3.364,0,0,1,.408-.218V.4a.4.4,0,0,1,.793,0V2.338a3.4,3.4,0,0,1,.4-.046V.4a.4.4,0,0,1,.793,0V2.338a3.364,3.364,0,0,1,.4.1V.791a.4.4,0,0,1,.793,0v2a3.378,3.378,0,0,1,.564.44l.5-1.016c.146-.3.424-.463.621-.368s.238.415.092.714L6.263,3.919a3.32,3.32,0,0,1,.475,1.716A3.369,3.369,0,0,1,0,5.636Z" transform="translate(-9521.563 -1259.869) rotate(-74)" fill="#5cd6ef"/>
    <path id="Union_43" data-name="Union 43" d="M3.173,8.59v-1.9a3.4,3.4,0,0,1-.4-.046V8.59a.4.4,0,0,1-.793,0V6.4a3.369,3.369,0,0,1-.408-.218l-.251.936a.4.4,0,0,1-.766-.205L.9,5.633A3.346,3.346,0,0,1,3.37,0,3.361,3.361,0,0,1,6.74,3.351a3.319,3.319,0,0,1-.475,1.716l.664,1.357c.146.3.1.617-.093.713s-.474-.069-.621-.368l-.5-1.016a3.38,3.38,0,0,1-.564.44v2a.4.4,0,1,1-.793,0V6.553a3.364,3.364,0,0,1-.4.1V8.59a.4.4,0,0,1-.793,0Z" transform="translate(-9407.299 -1252.897) rotate(-106)" fill="#5cd6ef"/>
    <path id="Tracé_1098" data-name="Tracé 1098" d="M3052.649,653.089c-3.331,4.5-.935,17.588-.935,17.588s.817,6.945,2.354,7.96,6.895-1.024,9.636-7.517,2.764-12.4,0-16.912S3055.98,648.586,3052.649,653.089Z" transform="translate(-12562.623 -1945.726)" stroke="#707070" stroke-width="1"/>
    <path id="Tracé_1099" data-name="Tracé 1099" d="M3.32,92.25c1.9.984,1.311,4.968,19.53.631" transform="translate(-9519.793 -1354.731)" fill="none" stroke="#5cd6ef" stroke-miterlimit="10" stroke-width="2"/>
    <path id="Union_46" data-name="Union 46" d="M0,5.636A3.328,3.328,0,0,1,.9,3.354L.558,2.069a.4.4,0,0,1,.766-.205l.251.936a3.364,3.364,0,0,1,.408-.218V.4a.4.4,0,0,1,.793,0V2.338a3.4,3.4,0,0,1,.4-.046V.4a.4.4,0,0,1,.793,0V2.338a3.364,3.364,0,0,1,.4.1V.791a.4.4,0,0,1,.793,0v2a3.378,3.378,0,0,1,.564.44l.5-1.016c.146-.3.424-.463.621-.368s.238.415.092.714L6.263,3.919a3.32,3.32,0,0,1,.475,1.716A3.369,3.369,0,0,1,0,5.636Z" transform="translate(-9521.563 -1259.869) rotate(-74)" fill="#5cd6ef"/>
  </g>
</svg>
