<svg xmlns="http://www.w3.org/2000/svg" width="62.661" height="59.456" viewBox="0 0 62.661 59.456">
  <g id="Groupe_1622" data-name="Groupe 1622" transform="translate(-12.896 -40.883)">
    <path id="Tracé_1066" data-name="Tracé 1066" d="M36.379,46.686V26.959a17.17,17.17,0,0,0-7.83-14.634,14.679,14.679,0,0,0-6.121-1.335L9.347,8.421,0,0S3.243,17.719,3.243,26.019V52.005A3.073,3.073,0,0,0,7.6,49.034V35.413a1.815,1.815,0,0,1,1.744-1.879V58.4a3.5,3.5,0,0,0,5.232-3.255V35.413a1.815,1.815,0,0,1,1.744-1.879c.011,0,0-.584,0,28.618A3.5,3.5,0,0,0,21.555,58.9V35.413A1.815,1.815,0,0,1,23.3,33.535v26.74a3.5,3.5,0,0,0,5.232-3.255V34.131A18.668,18.668,0,0,1,18.939,17.6a.938.938,0,0,1,.818-.975.9.9,0,0,1,.926.938A16.73,16.73,0,0,0,29.763,32.68a.945.945,0,0,1,.511.855V46.591a5.881,5.881,0,0,0,4.36,1.974A1.814,1.814,0,0,0,36.379,46.686Z" transform="translate(12.896 77.262) rotate(-90)" fill="#fff"/>
    <g id="Groupe_917" data-name="Groupe 917" transform="translate(31.047 83.307)">
      <g id="Groupe_460" data-name="Groupe 460" transform="translate(12.006 4.435)">
        <g id="Groupe_461" data-name="Groupe 461" transform="translate(4.462)">
          <path id="Tracé_87-2" data-name="Tracé 87-2" d="M1229.693,674.507s-.018,1.527.13,3.561a14.922,14.922,0,0,0,.57,3.569,8.55,8.55,0,0,0,3.749,4.126" transform="translate(-1229.692 -674.507)" fill="none" stroke="#fff" stroke-linecap="round" stroke-width="2"/>
        </g>
        <g id="Groupe_462" data-name="Groupe 462">
          <path id="Tracé_88-2" data-name="Tracé 88-2" d="M1174.188,674.507s.018,1.527-.13,3.561a14.8,14.8,0,0,1-.569,3.569,8.553,8.553,0,0,1-3.749,4.126" transform="translate(-1169.739 -674.507)" fill="none" stroke="#fff" stroke-linecap="round" stroke-width="2"/>
        </g>
        <g id="Groupe_463" data-name="Groupe 463" transform="translate(0.573 4.159)">
          <path id="Tracé_89-2" data-name="Tracé 89-2" d="M1177.442,730.387h7.741" transform="translate(-1177.442 -730.387)" fill="none" stroke="#fff" stroke-linecap="round" stroke-width="2"/>
        </g>
      </g>
      <g id="Groupe_464" data-name="Groupe 464" transform="translate(0 0)">
        <path id="Tracé_329-2" data-name="Tracé 329-2" d="M1008.412,618l4.977-11.625L1018.54,618" transform="translate(-1008.412 -606.374)" fill="none" stroke="#fff" stroke-linecap="round" stroke-linejoin="round" stroke-width="2"/>
        <line id="Ligne_29" data-name="Ligne 29" y1="0.032" x2="5.344" transform="translate(2.344 6.118)" fill="none" stroke="#fff" stroke-linecap="round" stroke-linejoin="round" stroke-width="2"/>
      </g>
    </g>
  </g>
</svg>
