<?xml version="1.0" encoding="utf-8"?>
<!-- Generator: Adobe Illustrator 24.1.2, SVG Export Plug-In . SVG Version: 6.00 Build 0)  -->
<svg version="1.1" id="Calque_1" xmlns="http://www.w3.org/2000/svg" xmlns:xlink="http://www.w3.org/1999/xlink" x="0px" y="0px"
	 viewBox="0 0 1920 1080" style="enable-background:new 0 0 1920 1080;" xml:space="preserve">
<style type="text/css">
	.st0{fill:#59D3EC;}
	.st1{fill:#FDA62E;}
</style>
<g id="Groupe_1627" transform="translate(19721.908 24849.984)">
	<path id="Tracé_1379" class="st0" d="M-17802.8-24854c0,0,1.1,118.4,0.8,176.8s-0.8,19.9-0.8,19.9s-38,13.2-123.2-12.5
		c-129.4-39.1-189.1-54.1-364.4-50c-37.8,0.9-339.9,19.6-463.7,14.7c-97.7-3.9-70.7-37.7-218.3-47.3c-147.5-9.6-157.7,13.6-300,29.9
		c-142.2,16.3-144.7-29.2-279.9,31.5c-63.8,28.7-169.8,0-169.8,0l0-150.3L-17802.8-24854z"/>
	<g transform="matrix(1, 0, 0, 1, -19721.91, -24849.98)">
		<path id="Tracé_1380-2" class="st1" d="M1919.9,47c0,0-43.8,18.3-78.5-0.3c-37.9-20.3-114.4-32.8-143.5-34.3
			c-70.3-3.6-106,8.6-175.3,25.6c-51.9,12.7-111,16.8-142.5,16.1c-80.9-1.8-65.3-34-231.3-17.5C918.9,59.4,1007.7,8.6,738,22.9
			c-135.4,7.2-164.9,31.6-295.3,36c-130.5,4.4-147.4-37.7-226.5-18.2C57.2,79.7,0,8.1,0,8.1l1920-4.9L1919.9,47z"/>
	</g>
</g>
<rect x="0" class="st1" width="1920" height="8"/>
<path class="st1" d="M7,3c0,0-26,9,41,22s84,6,84,6V7.8L7,3z"/>
<polygon class="st1" points="142.9,8 143,40 339,18 310,4 "/>
</svg>
