<svg xmlns="http://www.w3.org/2000/svg" xmlns:xlink="http://www.w3.org/1999/xlink" width="175.107" height="174.448" viewBox="0 0 175.107 174.448">
  <defs>
    <filter id="Tracé_95" x="0" y="0" width="175.107" height="174.448" filterUnits="userSpaceOnUse">
      <feOffset input="SourceAlpha"/>
      <feGaussianBlur stdDeviation="7" result="blur"/>
      <feFlood flood-opacity="0.078"/>
      <feComposite operator="in" in2="blur"/>
      <feComposite in="SourceGraphic"/>
    </filter>
  </defs>
  <g id="Groupe_1643" data-name="Groupe 1643" transform="translate(-930.906 -1038.763)">
    <g transform="matrix(1, 0, 0, 1, 930.91, 1038.76)" filter="url(#Tracé_95)">
      <path id="Tracé_95-2" data-name="Tracé 95" d="M19.556,0h93.995a19.508,19.508,0,0,1,19.556,19.459v93.529a19.508,19.508,0,0,1-19.556,19.459H19.556A19.508,19.508,0,0,1,0,112.988V19.459A19.508,19.508,0,0,1,19.556,0Z" transform="translate(21 21)" fill="#fff"/>
    </g>
    <g id="arrows" transform="translate(963.892 1089.609)">
      <path id="Tracé_105" data-name="Tracé 105" d="M387.28,40.5A11.263,11.263,0,0,0,376,51.724V72.3h3.76V62.948H394.8V72.3h3.76V51.724A11.263,11.263,0,0,0,387.28,40.5Zm-7.52,18.707V51.724a7.52,7.52,0,0,1,15.04,0v7.483Zm0,0" transform="translate(-287.642 -31.147)" fill="#fec34f"/>
      <path id="Tracé_106" data-name="Tracé 106" d="M21.16,184.5v3.741H8v3.741H32.44Zm0,0" transform="translate(-6.12 -141.475)" fill="#5cd6ef"/>
      <path id="Tracé_107" data-name="Tracé 107" d="M24.44,232.5H0l11.28,7.483v-3.741H24.44Zm0,0" transform="translate(0 -178.251)" fill="#5cd6ef"/>
      <path id="Tracé_108" data-name="Tracé 108" d="M389.16,184.5v3.741H376v3.741h24.44Zm0,0" transform="translate(-287.642 -141.475)" fill="#fec34f"/>
      <path id="Tracé_109" data-name="Tracé 109" d="M392.44,232.5H368l11.28,7.483v-3.741h13.16Zm0,0" transform="translate(-281.522 -178.251)" fill="#fec34f"/>
      <path id="Tracé_110" data-name="Tracé 110" d="M38.6,149.3H49.787v6.36H38.6Zm0,0" transform="translate(-29.53 -114.506)" fill="#5cd6ef"/>
      <path id="Tracé_111" data-name="Tracé 111" d="M26.376,40.5h-.8a1.6,1.6,0,0,0-1.6,1.59v6.36H16.788a3.188,3.188,0,0,0-3.2,3.18v2.021L12.319,51.24a2.35,2.35,0,0,0-3-1.112A2.243,2.243,0,0,0,8.261,53.22l3.351,6.4a11.145,11.145,0,0,0,3.294,3.926l.444.332a1.587,1.587,0,0,1,.639,1.271v.8h9.588V64.085a1.588,1.588,0,0,1,.319-.954l.16-.212a9.513,9.513,0,0,0,1.918-5.726V42.09A1.6,1.6,0,0,0,26.376,40.5Zm0,0" transform="translate(-6.119 -31.147)" fill="#5cd6ef"/>
      <path id="Tracé_112" data-name="Tracé 112" d="M72.6,74.5h.8v3.975h-.8Zm0,0" transform="translate(-55.54 -57.196)" fill="#34b3cc"/>
      <path id="Tracé_113" data-name="Tracé 113" d="M59,74.5h.8v3.975H59Zm0,0" transform="translate(-45.135 -57.196)" fill="#34b3cc"/>
      <path id="Tracé_114" data-name="Tracé 114" d="M45.4,74.5h.8v3.975h-.8Zm0,0" transform="translate(-34.73 -57.196)" fill="#34b3cc"/>
    </g>
    <g id="Groupe_942" data-name="Groupe 942" transform="translate(-180.304 858.498)">
      <path id="Tracé_1075" data-name="Tracé 1075" d="M46.024,50.513v-27.4A23.849,23.849,0,0,0,35.148,2.786a20.389,20.389,0,0,0-8.5-1.854L8.874,0S5.139.626,2.7,6.443A43.486,43.486,0,0,0,0,21.808V57.9c2.811,1.44,6.056-.782,6.056-4.126V34.855a2.521,2.521,0,0,1,2.422-2.61V66.777c3.2,1.992,7.267-.485,7.267-4.521v-27.4a2.521,2.521,0,0,1,2.422-2.61c.015,0,0-.812,0,39.75,3.232,2.011,7.267-.515,7.267-4.521V34.856a2.521,2.521,0,0,1,2.422-2.61v37.14c3.2,1.992,7.267-.485,7.267-4.521V33.074a1.79,1.79,0,0,1,.807-.887A4.457,4.457,0,0,1,37.5,31.86l.049,18.521A8.168,8.168,0,0,0,43.6,53.122,2.519,2.519,0,0,0,46.024,50.513Z" transform="translate(1223.638 319.183) rotate(177)" fill="#5cd6ef"/>
      <path id="Tracé_1076" data-name="Tracé 1076" d="M108.745,129.12a29.746,29.746,0,0,0,1.7,13.869" transform="translate(1105.446 189.186)" fill="none" stroke="#5cd6ef" stroke-miterlimit="10" stroke-width="3"/>
      <path id="Tracé_1077" data-name="Tracé 1077" d="M76.274,131.46c.418,5.774.418,10.787-1.164,12.93" transform="translate(1115.987 187.488)" fill="none" stroke="#5cd6ef" stroke-miterlimit="10" stroke-width="3"/>
      <circle id="Ellipse_302" data-name="Ellipse 302" cx="5" cy="5" r="5" transform="translate(1202.304 292.502)" fill="#fff"/>
      <ellipse id="Ellipse_303" data-name="Ellipse 303" cx="5.5" cy="5" rx="5.5" ry="5" transform="translate(1185.304 292.502)" fill="#fff"/>
      <circle id="Ellipse_304" data-name="Ellipse 304" cx="1.5" cy="1.5" r="1.5" transform="translate(1190.304 296.502)"/>
      <ellipse id="Ellipse_305" data-name="Ellipse 305" cx="1" cy="1.5" rx="1" ry="1.5" transform="translate(1206.304 296.502)"/>
      <path id="Tracé_1082" data-name="Tracé 1082" d="M3097.4,691.719c.725-.507,2.991,1.62,5.856,1.81s4.9-1.617,5.608-1.051c1.464,1.17-2.742,4.113-5.608,3.923S3095.993,692.7,3097.4,691.719Z" transform="translate(-1902.575 -385.312)" fill="#fff"/>
      <path id="Tracé_1075-2" data-name="Tracé 1075" d="M46.024,50.513v-27.4A23.849,23.849,0,0,0,35.148,2.786a20.389,20.389,0,0,0-8.5-1.854L8.874,0S5.139.626,2.7,6.443A43.486,43.486,0,0,0,0,21.808V57.9c2.811,1.44,6.056-.782,6.056-4.126V34.855a2.521,2.521,0,0,1,2.422-2.61V66.777c3.2,1.992,7.267-.485,7.267-4.521v-27.4a2.521,2.521,0,0,1,2.422-2.61c.015,0,0-.812,0,39.75,3.232,2.011,7.267-.515,7.267-4.521V34.856a2.521,2.521,0,0,1,2.422-2.61v37.14c3.2,1.992,7.267-.485,7.267-4.521V33.074a1.79,1.79,0,0,1,.807-.887A4.457,4.457,0,0,1,37.5,31.86l.049,18.521A8.168,8.168,0,0,0,43.6,53.122,2.519,2.519,0,0,0,46.024,50.513Z" transform="translate(1223.638 319.183) rotate(177)" fill="#5cd6ef"/>
      <path id="Tracé_1076-2" data-name="Tracé 1076" d="M108.745,129.12a29.746,29.746,0,0,0,1.7,13.869" transform="translate(1105.446 189.186)" fill="none" stroke="#5cd6ef" stroke-miterlimit="10" stroke-width="3"/>
      <path id="Tracé_1077-2" data-name="Tracé 1077" d="M76.274,131.46c.418,5.774.418,10.787-1.164,12.93" transform="translate(1115.987 187.488)" fill="none" stroke="#5cd6ef" stroke-miterlimit="10" stroke-width="3"/>
      <circle id="Ellipse_306" data-name="Ellipse 306" cx="5" cy="5" r="5" transform="translate(1202.304 292.502)" fill="#fff"/>
      <ellipse id="Ellipse_307" data-name="Ellipse 307" cx="5.5" cy="5" rx="5.5" ry="5" transform="translate(1185.304 292.502)" fill="#fff"/>
      <circle id="Ellipse_308" data-name="Ellipse 308" cx="1.5" cy="1.5" r="1.5" transform="translate(1190.304 296.502)"/>
      <ellipse id="Ellipse_309" data-name="Ellipse 309" cx="1" cy="1.5" rx="1" ry="1.5" transform="translate(1206.304 296.502)"/>
      <path id="Tracé_1083" data-name="Tracé 1083" d="M3097.4,691.719c.725-.507,2.991,1.62,5.856,1.81s4.9-1.617,5.608-1.051c1.464,1.17-2.742,4.113-5.608,3.923S3095.993,692.7,3097.4,691.719Z" transform="translate(-1902.575 -385.312)" fill="#fff"/>
      <path id="Tracé_1095" data-name="Tracé 1095" d="M129.055,101.25c-1.174.607-.809,3.066-12.055.389" transform="translate(1103.92 205.619)" fill="none" stroke="#5cd6ef" stroke-miterlimit="10" stroke-width="2"/>
      <path id="Union_44" data-name="Union 44" d="M1.958,5.3V4.133A2.1,2.1,0,0,1,1.713,4.1V5.3a.244.244,0,1,1-.489,0V3.954a2.077,2.077,0,0,1-.252-.135L.817,4.4A.245.245,0,1,1,.345,4.27l.212-.793A2.066,2.066,0,0,1,2.08,0,2.074,2.074,0,0,1,4.16,2.068a2.049,2.049,0,0,1-.294,1.06l.41.837c.09.184.065.381-.057.44s-.293-.043-.383-.228l-.306-.626a2.087,2.087,0,0,1-.349.272V5.059a.244.244,0,1,1-.489,0V4.045a2.075,2.075,0,0,1-.245.059V5.3a.245.245,0,1,1-.49,0Z" transform="translate(1232.213 309.569) rotate(-106)" fill="#5cd6ef"/>
      <path id="Union_45" data-name="Union 45" d="M1.958,5.3V4.133A2.1,2.1,0,0,1,1.713,4.1V5.3a.244.244,0,1,1-.489,0V3.954a2.077,2.077,0,0,1-.252-.135L.817,4.4A.245.245,0,1,1,.345,4.27l.212-.793A2.066,2.066,0,0,1,2.08,0,2.074,2.074,0,0,1,4.16,2.068a2.049,2.049,0,0,1-.294,1.06l.41.837c.09.184.065.381-.057.44s-.293-.043-.383-.228l-.306-.626a2.087,2.087,0,0,1-.349.272V5.059a.244.244,0,1,1-.489,0V4.045a2.075,2.075,0,0,1-.245.059V5.3a.245.245,0,1,1-.49,0Z" transform="translate(1232.213 309.569) rotate(-106)" fill="#5cd6ef"/>
      <path id="Tracé_1101" data-name="Tracé 1101" d="M3.32,92.25c.984.509.678,2.569,10.1.326" transform="translate(1165.57 214.687)" fill="none" stroke="#5cd6ef" stroke-miterlimit="10" stroke-width="2"/>
      <path id="Union_47" data-name="Union 47" d="M0,2.915A1.722,1.722,0,0,1,.467,1.735L.289,1.07a.2.2,0,1,1,.4-.106l.129.484a1.742,1.742,0,0,1,.211-.113V.205a.205.205,0,0,1,.41,0v1a1.756,1.756,0,0,1,.2-.024V.205a.205.205,0,1,1,.41,0v1a1.739,1.739,0,0,1,.2.049V.41a.205.205,0,1,1,.41,0V1.444a1.749,1.749,0,0,1,.292.228l.257-.525c.075-.155.219-.24.32-.191s.123.214.048.369l-.343.7a1.718,1.718,0,0,1,.246.888A1.742,1.742,0,0,1,0,2.915Z" transform="translate(1166.258 308.288) rotate(-74)" fill="#5cd6ef"/>
      <path id="Union_52" data-name="Union 52" d="M1.3,2.914V2.751a1.394,1.394,0,0,1-.163-.019v.182a.163.163,0,0,1-.326,0V2.631a1.385,1.385,0,0,1-.162-.086V2.59a.163.163,0,1,1-.326,0V2.265A1.366,1.366,0,0,1,0,1.377a1.385,1.385,0,0,1,2.769,0,1.363,1.363,0,0,1-.2.7l.123.251a.163.163,0,0,1-.292.142L2.35,2.363a1.39,1.39,0,0,1-.232.181v.208a.163.163,0,0,1-.326,0v-.06a1.383,1.383,0,0,1-.163.039v.183a.163.163,0,0,1-.326,0Z" transform="translate(1189.881 330.471) rotate(11)" fill="#5cd6ef"/>
      <path id="Union_53" data-name="Union 53" d="M0,1.7A1.366,1.366,0,0,1,.327.812V.487a.163.163,0,0,1,.326,0V.532A1.384,1.384,0,0,1,.815.446V.163a.163.163,0,1,1,.326,0V.345A1.394,1.394,0,0,1,1.3.326V.163a.163.163,0,0,1,.326,0V.345a1.383,1.383,0,0,1,.163.039V.325a.163.163,0,0,1,.326,0V.533A1.39,1.39,0,0,1,2.35.714L2.4.6A.162.162,0,0,1,2.7.743L2.574,1a1.363,1.363,0,0,1,.2.7A1.385,1.385,0,0,1,0,1.7Z" transform="translate(1217.521 333.491) rotate(169)" fill="#5cd6ef"/>
    </g>
  </g>
</svg>
