<svg xmlns="http://www.w3.org/2000/svg" xmlns:xlink="http://www.w3.org/1999/xlink" width="175" height="174" viewBox="0 0 175 174">
  <defs>
    <filter id="Rectangle_59" x="0" y="0" width="175" height="174" filterUnits="userSpaceOnUse">
      <feOffset input="SourceAlpha"/>
      <feGaussianBlur stdDeviation="7" result="blur"/>
      <feFlood flood-opacity="0.078"/>
      <feComposite operator="in" in2="blur"/>
      <feComposite in="SourceGraphic"/>
    </filter>
    <linearGradient id="linear-gradient" x1="0.391" y1="-0.395" x2="0.5" y2="1" gradientUnits="objectBoundingBox">
      <stop offset="0" stop-color="#5cd6ef"/>
      <stop offset="1" stop-color="#4ac3db"/>
    </linearGradient>
    <filter id="Tracé_91" x="24.683" y="32.053" width="107.579" height="53.152" filterUnits="userSpaceOnUse">
      <feOffset dy="3" input="SourceAlpha"/>
      <feGaussianBlur stdDeviation="3" result="blur-2"/>
      <feFlood flood-opacity="0.161"/>
      <feComposite operator="in" in2="blur-2"/>
      <feComposite in="SourceGraphic"/>
    </filter>
  </defs>
  <g id="Groupe_1642" data-name="Groupe 1642" transform="translate(-698 -1040)">
    <g transform="matrix(1, 0, 0, 1, 698, 1040)" filter="url(#Rectangle_59)">
      <rect id="Rectangle_59-2" data-name="Rectangle 59" width="133" height="132" rx="31" transform="translate(21 21)" fill="#fff"/>
    </g>
    <g transform="matrix(1, 0, 0, 1, 698, 1040)" filter="url(#Tracé_91)">
      <path id="Tracé_91-2" data-name="Tracé 91" d="M3.785,0H85.794a3.776,3.776,0,0,1,3.785,3.766V31.386a3.776,3.776,0,0,1-3.785,3.766H3.785A3.776,3.776,0,0,1,0,31.386V3.766A3.776,3.776,0,0,1,3.785,0Z" transform="translate(33.68 38.05)" fill="url(#linear-gradient)"/>
    </g>
    <g id="Groupe_1352" data-name="Groupe 1352" transform="translate(267.593 -156.293) rotate(13)">
      <path id="Tracé_303" data-name="Tracé 303" d="M2.178.02,10.183,0a2.16,2.16,0,0,1,2.167,2.167,2.186,2.186,0,0,1-2.178,2.178l-8.005.02A2.16,2.16,0,0,1,0,2.2,2.186,2.186,0,0,1,2.178.02Z" transform="translate(766.242 1148.286) rotate(45)" fill="#fec34f"/>
      <path id="Tracé_1269" data-name="Tracé 1269" d="M8.178,0A8.178,8.178,0,1,1,0,8.178,8.178,8.178,0,0,1,8.178,0Z" transform="translate(753 1138)" fill="#fec34f"/>
      <circle id="Ellipse_11" data-name="Ellipse 11" cx="5.271" cy="5.271" r="5.271" transform="translate(755.635 1140.922)" fill="#fff"/>
      <path id="Tracé_78" data-name="Tracé 78" d="M7654.755-284.241a2.429,2.429,0,0,1,1.667.761,2.179,2.179,0,0,1,.559,1.5" transform="translate(-6893.744 1428.084)" fill="#ffb554" stroke="#ffb554" stroke-linecap="round" stroke-width="1"/>
    </g>
    <g id="Groupe_30" data-name="Groupe 30" transform="translate(741.145 1089.705)">
      <path id="Tracé_79" data-name="Tracé 79" d="M7649.376-445.44l5.47,9.242,4.007-9.242,4.824,9.242,4.379-9.242" transform="translate(-7649.376 445.44)" fill="none" stroke="#fff" stroke-linecap="round" stroke-linejoin="round" stroke-width="3"/>
      <path id="Tracé_80" data-name="Tracé 80" d="M7649.376-445.44l5.47,9.242,4.007-9.242,4.824,9.242,4.379-9.242" transform="translate(-7623.512 445.44)" fill="none" stroke="#fff" stroke-linecap="round" stroke-linejoin="round" stroke-width="3"/>
      <path id="Tracé_81" data-name="Tracé 81" d="M7649.376-445.44l5.47,9.242,4.007-9.242,4.824,9.242,4.379-9.242" transform="translate(-7597.647 445.44)" fill="none" stroke="#fff" stroke-linecap="round" stroke-linejoin="round" stroke-width="3"/>
    </g>
    <path id="Tracé_1075" data-name="Tracé 1075" d="M38.972,42.772v-23.2a20.194,20.194,0,0,0-9.21-17.212,17.265,17.265,0,0,0-7.2-1.57L7.514,0S4.351.53,2.284,5.456A36.822,36.822,0,0,0,0,18.466V49.028a3.615,3.615,0,0,0,5.128-3.494V29.514A2.135,2.135,0,0,1,7.179,27.3V56.544c2.712,1.687,6.153-.41,6.153-3.828v-23.2a2.135,2.135,0,0,1,2.051-2.21c.013,0,0-.687,0,33.659,2.737,1.7,6.153-.436,6.153-3.828V29.514a2.135,2.135,0,0,1,2.051-2.21V58.754c2.712,1.687,6.154-.41,6.154-3.828V28.006a1.516,1.516,0,0,1,.683-.751,3.774,3.774,0,0,1,1.326-.278l.042,15.683a6.917,6.917,0,0,0,5.128,2.322A2.133,2.133,0,0,0,38.972,42.772Z" transform="translate(817.803 1180.424) rotate(177)" fill="#5cd6ef"/>
    <path id="Tracé_1076" data-name="Tracé 1076" d="M108.717,129.12a19.58,19.58,0,0,0,1.438,10.3" transform="matrix(1, 0.017, -0.017, 1, 703.447, 1048.673)" fill="none" stroke="#5cd6ef" stroke-miterlimit="10" stroke-width="3"/>
    <path id="Tracé_1077" data-name="Tracé 1077" d="M76.1,131.46c.354,4.356.354,8.138-.986,9.756" transform="translate(715.139 1048.765)" fill="none" stroke="#5cd6ef" stroke-miterlimit="10" stroke-width="3"/>
    <ellipse id="Ellipse_310" data-name="Ellipse 310" cx="4.5" cy="4" rx="4.5" ry="4" transform="translate(799 1158)" fill="#fff"/>
    <ellipse id="Ellipse_311" data-name="Ellipse 311" cx="4" cy="4" rx="4" ry="4" transform="translate(786 1158)" fill="#fff"/>
    <ellipse id="Ellipse_312" data-name="Ellipse 312" cx="1" cy="1" rx="1" ry="1" transform="translate(789 1162)"/>
    <ellipse id="Ellipse_313" data-name="Ellipse 313" cx="1" cy="1" rx="1" ry="1" transform="translate(803 1162)"/>
    <path id="Tracé_1084" data-name="Tracé 1084" d="M3097.353,691.708c.614-.429,2.533,1.372,4.96,1.532s4.149-1.369,4.748-.89c1.24.991-2.321,3.483-4.748,3.322S3096.166,692.538,3097.353,691.708Z" transform="translate(-2303.952 477.898)" fill="#fff"/>
    <path id="Tracé_259" data-name="Tracé 259" d="M0,0S6.068,6.352,8.75,6.881s-.262-6.3-.262-6.3" transform="translate(814.305 1164.486)" fill="none" stroke="#5cd6ef" stroke-width="2"/>
    <path id="Tracé_1103" data-name="Tracé 1103" d="M3.32,92.25c2.1,15.619,1.45,78.831,21.595,10.015" transform="translate(756.124 1053.541)" fill="none" stroke="#5cd6ef" stroke-miterlimit="10" stroke-width="2"/>
    <path id="Union_54" data-name="Union 54" d="M0,1.993A1.573,1.573,0,0,1,.394.952V.576a.2.2,0,0,1,.393,0V.624a1.687,1.687,0,0,1,.2-.1V.2a.2.2,0,1,1,.393,0V.4a1.733,1.733,0,0,1,.2-.022V.2a.2.2,0,0,1,.394,0V.4a1.713,1.713,0,0,1,.2.046V.387a.2.2,0,1,1,.393,0V.624a1.673,1.673,0,0,1,.28.212L2.9.706A.2.2,0,0,1,3.167.618a.186.186,0,0,1,.091.253l-.149.3a1.563,1.563,0,0,1,.236.826A1.643,1.643,0,0,1,1.672,3.605,1.643,1.643,0,0,1,0,1.993Z" transform="translate(813.693 1192.052) rotate(162)" fill="#5cd6ef"/>
    <path id="Tracé_1075-2" data-name="Tracé 1075" d="M38.972,42.772v-23.2a20.194,20.194,0,0,0-9.21-17.212,17.265,17.265,0,0,0-7.2-1.57L7.514,0S4.351.53,2.284,5.456A36.822,36.822,0,0,0,0,18.466V49.028a3.615,3.615,0,0,0,5.128-3.494V29.514A2.135,2.135,0,0,1,7.179,27.3V56.544c2.712,1.687,6.153-.41,6.153-3.828v-23.2a2.135,2.135,0,0,1,2.051-2.21c.013,0,0-.687,0,33.659,2.737,1.7,6.153-.436,6.153-3.828V29.514a2.135,2.135,0,0,1,2.051-2.21V58.754c2.712,1.687,6.154-.41,6.154-3.828V28.006a1.516,1.516,0,0,1,.683-.751,3.774,3.774,0,0,1,1.326-.278l.042,15.683a6.917,6.917,0,0,0,5.128,2.322A2.133,2.133,0,0,0,38.972,42.772Z" transform="translate(817.803 1180.424) rotate(177)" fill="#5cd6ef"/>
    <ellipse id="Ellipse_310-2" data-name="Ellipse 310" cx="4.5" cy="4" rx="4.5" ry="4" transform="translate(799 1158)" fill="#fff"/>
    <ellipse id="Ellipse_311-2" data-name="Ellipse 311" cx="4" cy="4" rx="4" ry="4" transform="translate(786 1158)" fill="#fff"/>
    <ellipse id="Ellipse_312-2" data-name="Ellipse 312" cx="1" cy="1" rx="1" ry="1" transform="translate(789 1161)"/>
    <path id="Tracé_1084-2" data-name="Tracé 1084" d="M3097.353,691.708c.614-.429,2.533,1.372,4.96,1.532s4.149-1.369,4.748-.89c1.24.991-2.321,3.483-4.748,3.322S3096.166,692.538,3097.353,691.708Z" transform="translate(-2303.952 477.898)" fill="#fff"/>
    <path id="Union_48" data-name="Union 48" d="M5.558,4.526c-.2-.095-.24-.411-.093-.708l.8-1.613c.148-.3.427-.46.626-.365s.239.412.093.708l-.8,1.613a.637.637,0,0,1-.5.393A.282.282,0,0,1,5.558,4.526ZM1.066,3.909l-.5-1.851a.394.394,0,0,1,.283-.482.4.4,0,0,1,.49.278l.5,1.851a.394.394,0,0,1-.283.482.4.4,0,0,1-.1.014A.4.4,0,0,1,1.066,3.909ZM4.4,3.442V.792a.4.4,0,0,1,.8,0v2.65a.4.4,0,1,1-.8,0ZM3.2,3.049V.4A.4.4,0,0,1,4,.4v2.65a.4.4,0,1,1-.8,0Zm-1.2,0V.4a.4.4,0,1,1,.8,0v2.65a.4.4,0,1,1-.8,0Z" transform="translate(754.84 1141.01) rotate(-17)" fill="#5cd6ef"/>
    <path id="Union_76" data-name="Union 76" d="M0,5.6A3.285,3.285,0,0,1,.91,3.335L.563,2.057a.394.394,0,0,1,.283-.482.4.4,0,0,1,.49.278l.253.931A3.411,3.411,0,0,1,2,2.567V.4a.4.4,0,1,1,.8,0V2.324a3.465,3.465,0,0,1,.4-.046V.4A.4.4,0,0,1,4,.4V2.324a3.431,3.431,0,0,1,.4.095V.792a.4.4,0,0,1,.8,0V2.777a3.4,3.4,0,0,1,.568.437l.5-1.009c.148-.3.427-.46.626-.365s.239.412.093.708L6.315,3.9A3.266,3.266,0,0,1,6.794,5.6,3.365,3.365,0,0,1,3.4,8.935,3.365,3.365,0,0,1,0,5.6Z" transform="translate(754.84 1141.01) rotate(-17)" fill="#5cd6ef"/>
    <path id="Union_77" data-name="Union 77" d="M0,4.35A2.665,2.665,0,0,1,.652,2.589L.4,1.6a.309.309,0,0,1,.2-.374.286.286,0,0,1,.351.216l.181.723a2.39,2.39,0,0,1,.3-.169V.286a.287.287,0,0,1,.573,0V1.8a2.305,2.305,0,0,1,.286-.036V.286a.287.287,0,0,1,.573,0V1.8a2.306,2.306,0,0,1,.286.073V.591a.287.287,0,0,1,.573,0V2.156a2.472,2.472,0,0,1,.408.339l.359-.783c.106-.23.307-.357.449-.284s.173.32.067.551l-.48,1.047A2.694,2.694,0,0,1,4.873,4.35,2.515,2.515,0,0,1,2.436,6.935,2.515,2.515,0,0,1,0,4.35Z" transform="translate(819.425 1160.922) rotate(-17)" fill="#5cd6ef"/>
    <path id="Union_78" data-name="Union 78" d="M0,1.993A1.573,1.573,0,0,1,.394.952V.576a.2.2,0,0,1,.393,0V.624a1.687,1.687,0,0,1,.2-.1V.2a.2.2,0,1,1,.393,0V.4a1.733,1.733,0,0,1,.2-.022V.2a.2.2,0,0,1,.394,0V.4a1.713,1.713,0,0,1,.2.046V.387a.2.2,0,1,1,.393,0V.624a1.673,1.673,0,0,1,.28.212L2.9.706A.2.2,0,0,1,3.167.618a.186.186,0,0,1,.091.253l-.149.3a1.563,1.563,0,0,1,.236.826A1.643,1.643,0,0,1,1.672,3.605,1.643,1.643,0,0,1,0,1.993Z" transform="matrix(-0.848, -0.53, 0.53, -0.848, 790.376, 1192.74)" fill="#5cd6ef"/>
    <ellipse id="Ellipse_402" data-name="Ellipse 402" cx="1" cy="1" rx="1" ry="1" transform="translate(803 1161)"/>
  </g>
</svg>
