<svg xmlns="http://www.w3.org/2000/svg" xmlns:xlink="http://www.w3.org/1999/xlink" width="176" height="174" viewBox="0 0 176 174">
  <defs>
    <filter id="Rectangle_58" x="0" y="0" width="176" height="174" filterUnits="userSpaceOnUse">
      <feOffset input="SourceAlpha"/>
      <feGaussianBlur stdDeviation="7" result="blur"/>
      <feFlood flood-opacity="0.078"/>
      <feComposite operator="in" in2="blur"/>
      <feComposite in="SourceGraphic"/>
    </filter>
  </defs>
  <g id="Groupe_1641" data-name="Groupe 1641" transform="translate(-465 -1040)">
    <g transform="matrix(1, 0, 0, 1, 465, 1040)" filter="url(#Rectangle_58)">
      <rect id="Rectangle_58-2" data-name="Rectangle 58" width="134" height="132" rx="31" transform="translate(21 21)" fill="#fff"/>
    </g>
    <g id="Groupe_33" data-name="Groupe 33" transform="translate(584.506 1134.41)">
      <line id="Ligne_10" data-name="Ligne 10" y2="5.049" transform="translate(8.267 19.911)" fill="none" stroke="#5cd6ef" stroke-linecap="round" stroke-width="3"/>
      <path id="Tracé_82" data-name="Tracé 82" d="M16.359,50s.358,9.715-8.168,9.745S-.008,50-.008,50Z" transform="translate(0.01 -38.313)" fill="#5cd6ef"/>
      <path id="Tracé_94" data-name="Tracé 94" d="M5.665,0a5.651,5.651,0,0,1,5.665,5.636v7.911A5.665,5.665,0,0,1,0,13.547V5.636A5.651,5.651,0,0,1,5.665,0Z" transform="translate(2.586 0)" fill="#fec34f"/>
      <line id="Ligne_11" data-name="Ligne 11" x2="7.856" transform="translate(4.339 25.611)" fill="none" stroke="#5cd6ef" stroke-linecap="round" stroke-width="3"/>
    </g>
    <g id="Groupe_961" data-name="Groupe 961" transform="translate(-133 238)">
      <path id="Tracé_1132" data-name="Tracé 1132" d="M59.215,64.99V29.737A30.684,30.684,0,0,0,45.222,3.584,26.233,26.233,0,0,0,34.282,1.2L11.417,0S6.612.805,3.47,8.29C1.231,13.62,0,21.5,0,28.058V74.5c3.617,1.852,7.791-1.006,7.791-5.309V44.845a3.244,3.244,0,0,1,3.117-3.357V85.915c4.12,2.563,9.35-.624,9.35-5.817V44.845a3.244,3.244,0,0,1,3.117-3.357c.02,0,0-1.044,0,51.142,4.159,2.587,9.35-.663,9.35-5.817V44.845a3.244,3.244,0,0,1,3.117-3.357V89.273c4.12,2.563,9.35-.624,9.35-5.817v-40.9a2.3,2.3,0,0,1,1.038-1.141,5.734,5.734,0,0,1,2.015-.422l.063,23.829A10.509,10.509,0,0,0,56.1,68.347,3.241,3.241,0,0,0,59.215,64.99Z" transform="translate(712.083 935.993) rotate(177)" fill="#5cd6ef"/>
      <path id="Tracé_1133" data-name="Tracé 1133" d="M108.8,129.12a38.271,38.271,0,0,0,2.185,17.844" transform="translate(591.131 805.743)" fill="none" stroke="#5cd6ef" stroke-miterlimit="10" stroke-width="3"/>
      <path id="Tracé_1134" data-name="Tracé 1134" d="M76.608,131.46c.537,7.428.537,13.878-1.5,16.636" transform="translate(595.106 804.229)" fill="none" stroke="#5cd6ef" stroke-miterlimit="10" stroke-width="3"/>
      <ellipse id="Ellipse_345" data-name="Ellipse 345" cx="6.5" cy="6" rx="6.5" ry="6" transform="translate(685 903)" fill="#fff"/>
      <ellipse id="Ellipse_346" data-name="Ellipse 346" cx="6.5" cy="6" rx="6.5" ry="6" transform="translate(663 903)" fill="#fff"/>
      <circle id="Ellipse_347" data-name="Ellipse 347" cx="2" cy="2" r="2" transform="translate(668 907)"/>
      <ellipse id="Ellipse_348" data-name="Ellipse 348" cx="1.5" cy="2" rx="1.5" ry="2" transform="translate(690 907)"/>
      <path id="Tracé_1135" data-name="Tracé 1135" d="M3097.472,691.742c.933-.652,3.848,2.085,7.535,2.328s6.3-2.08,7.215-1.353c1.884,1.506-3.527,5.291-7.215,5.047S3095.668,693,3097.472,691.742Z" transform="translate(-2422.467 227.813)" fill="#fff"/>
      <path id="Tracé_1136" data-name="Tracé 1136" d="M59.215,64.99V29.737A30.684,30.684,0,0,0,45.222,3.584,26.233,26.233,0,0,0,34.282,1.2L11.417,0S6.612.805,3.47,8.29C1.231,13.62,0,21.5,0,28.058V74.5c3.617,1.852,7.791-1.006,7.791-5.309V44.845a3.244,3.244,0,0,1,3.117-3.357V85.915c4.12,2.563,9.35-.624,9.35-5.817V44.845a3.244,3.244,0,0,1,3.117-3.357c.02,0,0-1.044,0,51.142,4.159,2.587,9.35-.663,9.35-5.817V44.845a3.244,3.244,0,0,1,3.117-3.357V89.273c4.12,2.563,9.35-.624,9.35-5.817v-40.9a2.3,2.3,0,0,1,1.038-1.141,5.734,5.734,0,0,1,2.015-.422l.063,23.829A10.509,10.509,0,0,0,56.1,68.347,3.241,3.241,0,0,0,59.215,64.99Z" transform="translate(712.083 935.993) rotate(177)" fill="#5cd6ef"/>
      <path id="Tracé_1137" data-name="Tracé 1137" d="M108.8,129.12a38.271,38.271,0,0,0,2.185,17.844" transform="translate(591.131 805.743)" fill="none" stroke="#5cd6ef" stroke-miterlimit="10" stroke-width="3"/>
      <path id="Tracé_1138" data-name="Tracé 1138" d="M76.608,131.46c.537,7.428.537,13.878-1.5,16.636" transform="translate(595.106 804.229)" fill="none" stroke="#5cd6ef" stroke-miterlimit="10" stroke-width="3"/>
      <ellipse id="Ellipse_349" data-name="Ellipse 349" cx="6.5" cy="6" rx="6.5" ry="6" transform="translate(685 903)" fill="#fff"/>
      <ellipse id="Ellipse_350" data-name="Ellipse 350" cx="6.5" cy="6" rx="6.5" ry="6" transform="translate(663 903)" fill="#fff"/>
      <circle id="Ellipse_351" data-name="Ellipse 351" cx="2" cy="2" r="2" transform="translate(668 907)"/>
      <ellipse id="Ellipse_352" data-name="Ellipse 352" cx="1.5" cy="2" rx="1.5" ry="2" transform="translate(690 907)"/>
      <path id="Tracé_1139" data-name="Tracé 1139" d="M3097.472,691.742c.933-.652,3.848,2.085,7.535,2.328s6.3-2.08,7.215-1.353c1.884,1.506-3.527,5.291-7.215,5.047S3095.668,693,3097.472,691.742Z" transform="translate(-2422.467 227.813)" fill="#fff"/>
      <path id="Tracé_1140" data-name="Tracé 1140" d="M132.51,101.25c-1.511.782-1.041,3.944-15.51.5" transform="translate(591.587 818.899)" fill="none" stroke="#5cd6ef" stroke-miterlimit="10" stroke-width="2"/>
      <path id="Union_61" data-name="Union 61" d="M2.519,6.822v-1.5A2.7,2.7,0,0,1,2.2,5.28V6.822a.315.315,0,0,1-.63,0V5.086a2.675,2.675,0,0,1-.324-.173l-.2.743a.315.315,0,0,1-.608-.163L.716,4.473A2.658,2.658,0,0,1,2.676,0,2.669,2.669,0,0,1,5.351,2.661a2.636,2.636,0,0,1-.378,1.363L5.5,5.1c.115.238.083.491-.074.567s-.377-.056-.493-.293L4.54,4.569a2.686,2.686,0,0,1-.448.349v1.59a.315.315,0,1,1-.629,0V5.2a2.671,2.671,0,0,1-.315.076V6.822a.315.315,0,1,1-.629,0Z" transform="translate(723.116 923.622) rotate(-106)" fill="#5cd6ef"/>
      <path id="Union_62" data-name="Union 62" d="M2.519,6.822v-1.5A2.7,2.7,0,0,1,2.2,5.28V6.822a.315.315,0,0,1-.63,0V5.086a2.675,2.675,0,0,1-.324-.173l-.2.743a.315.315,0,0,1-.608-.163L.716,4.473A2.658,2.658,0,0,1,2.676,0,2.669,2.669,0,0,1,5.351,2.661a2.636,2.636,0,0,1-.378,1.363L5.5,5.1c.115.238.083.491-.074.567s-.377-.056-.493-.293L4.54,4.569a2.686,2.686,0,0,1-.448.349v1.59a.315.315,0,1,1-.629,0V5.2a2.671,2.671,0,0,1-.315.076V6.822a.315.315,0,1,1-.629,0Z" transform="translate(723.116 923.622) rotate(-106)" fill="#5cd6ef"/>
      <path id="Tracé_1143" data-name="Tracé 1143" d="M3.32,92.25c1.266.655.872,3.305,13,.42" transform="translate(638.325 827.986)" fill="none" stroke="#5cd6ef" stroke-miterlimit="10" stroke-width="2"/>
      <path id="Union_63" data-name="Union 63" d="M0,3.75A2.215,2.215,0,0,1,.6,2.232L.372,1.377A.264.264,0,1,1,.881,1.24l.167.623a2.241,2.241,0,0,1,.272-.145V.264a.264.264,0,0,1,.527,0V1.556a2.259,2.259,0,0,1,.264-.031V.264a.264.264,0,0,1,.527,0V1.556a2.238,2.238,0,0,1,.264.063V.526a.264.264,0,0,1,.527,0V1.859a2.253,2.253,0,0,1,.375.292l.331-.675c.1-.2.282-.309.413-.245s.158.275.061.474l-.442.9A2.209,2.209,0,0,1,4.484,3.75,2.242,2.242,0,0,1,0,3.75Z" transform="translate(638.258 921.974) rotate(-74)" fill="#5cd6ef"/>
      <path id="Union_64" data-name="Union 64" d="M1.677,3.749v-.21a1.8,1.8,0,0,1-.209-.024v.234a.21.21,0,0,1-.419,0V3.386a1.779,1.779,0,0,1-.21-.112v.058a.21.21,0,1,1-.419,0v-.42A1.758,1.758,0,0,1,0,1.771a1.782,1.782,0,0,1,3.563,0,1.755,1.755,0,0,1-.251.907L3.47,3a.21.21,0,0,1-.377.183l-.07-.143a1.789,1.789,0,0,1-.3.233v.266a.209.209,0,1,1-.419,0V3.464a1.779,1.779,0,0,1-.21.05v.235a.21.21,0,0,1-.419,0Z" transform="translate(668.651 950.514) rotate(11)" fill="#5cd6ef"/>
      <path id="Union_65" data-name="Union 65" d="M0,2.188A1.758,1.758,0,0,1,.419,1.046V.626a.21.21,0,0,1,.419,0V.685a1.779,1.779,0,0,1,.21-.112V.21a.21.21,0,1,1,.419,0V.444A1.8,1.8,0,0,1,1.677.42V.21A.21.21,0,0,1,2.1.21V.444a1.776,1.776,0,0,1,.21.051V.419a.209.209,0,1,1,.419,0V.685a1.786,1.786,0,0,1,.3.233L3.093.774a.211.211,0,0,1,.281-.1.208.208,0,0,1,.1.278l-.159.325a1.756,1.756,0,0,1,.251.907A1.781,1.781,0,0,1,0,2.188Z" transform="translate(704.213 954.4) rotate(169)" fill="#5cd6ef"/>
      <path id="Tracé_1147" data-name="Tracé 1147" d="M.086,2.6c1.189-4.253,15.3-2.929,19.083,1.324s1.043,15.685-3.934,15.685S-1.1,6.855.086,2.6Z" transform="translate(681.01 908.414) rotate(141)"/>
      <path id="Tracé_1148" data-name="Tracé 1148" d="M.087,17.01c1.189,4.252,15.3,2.928,19.082-1.324S20.212,0,15.235,0-1.1,12.757.087,17.01Z" transform="translate(692.447 893.172) rotate(39)"/>
      <line id="Ligne_65" data-name="Ligne 65" x2="9.896" transform="translate(677.94 907.866)" fill="none" stroke="#000" stroke-width="3"/>
      <path id="Tracé_1150" data-name="Tracé 1150" d="M6.757.373A9.764,9.764,0,0,1,4.707,4.69,17.053,17.053,0,0,1,0,8.143" transform="translate(703.275 898.536)" fill="none" stroke="#000" stroke-linecap="round" stroke-width="1"/>
      <path id="Tracé_1149" data-name="Tracé 1149" d="M0,0A6.809,6.809,0,0,0,3.469,2.278a15.329,15.329,0,0,0,5.359,0" transform="translate(651.298 904.411)" fill="none" stroke="#000" stroke-linecap="round" stroke-width="1"/>
    </g>
    <path id="Tracé_116" data-name="Tracé 116" d="M343.662,122.44a.651.651,0,1,1,.914.926,5.186,5.186,0,0,0,0,7.344.65.65,0,1,1-.914.923,6.486,6.486,0,0,1,0-9.193Z" transform="matrix(0.017, 1, -1, 0.017, 713.689, 785.977)" fill="#5cd6ef"/>
    <path id="Tracé_117" data-name="Tracé 117" d="M389.544,77.314a.651.651,0,0,1,.917.923,7.759,7.759,0,0,0,0,11.013.651.651,0,0,1-.917.923,9.062,9.062,0,0,1,0-12.859Z" transform="matrix(0.017, 1, -1, 0.017, 669.57, 739.024)" fill="#5cd6ef"/>
  </g>
</svg>
