<svg xmlns="http://www.w3.org/2000/svg" xmlns:xlink="http://www.w3.org/1999/xlink" width="175" height="174" viewBox="0 0 175 174">
  <defs>
    <filter id="Rectangle_57" x="0" y="0" width="175" height="174" filterUnits="userSpaceOnUse">
      <feOffset input="SourceAlpha"/>
      <feGaussianBlur stdDeviation="7" result="blur"/>
      <feFlood flood-opacity="0.078"/>
      <feComposite operator="in" in2="blur"/>
      <feComposite in="SourceGraphic"/>
    </filter>
  </defs>
  <g id="Groupe_1640" data-name="Groupe 1640" transform="translate(-234 -1040)">
    <g transform="matrix(1, 0, 0, 1, 234, 1040)" filter="url(#Rectangle_57)">
      <rect id="Rectangle_57-2" data-name="Rectangle 57" width="133" height="132" rx="31" transform="translate(21 21)" fill="#fff"/>
    </g>
    <path id="Tracé_83" data-name="Tracé 83" d="M4.8,0H35.363a4.791,4.791,0,0,1,4.8,4.779V29.106a4.791,4.791,0,0,1-4.8,4.779H32.526v7.529l-9.618-7.529H4.8A4.791,4.791,0,0,1,0,29.106V4.779A4.791,4.791,0,0,1,4.8,0Z" transform="translate(263.346 1083.515)" fill="#fec34f"/>
    <path id="Tracé_84" data-name="Tracé 84" d="M8519.234,684.582l6.86-16.024,7.1,16.024" transform="translate(-8243.126 424.756)" fill="none" stroke="#fff" stroke-linecap="round" stroke-linejoin="round" stroke-width="3"/>
    <path id="Tracé_85" data-name="Tracé 85" d="M8523.949,691.726h7.476" transform="translate(-8244.882 411.653)" fill="none" stroke="#fff" stroke-linecap="round" stroke-width="3"/>
    <g id="Groupe_35" data-name="Groupe 35" transform="translate(350.802 1103.871)">
      <path id="Tracé_86" data-name="Tracé 86" d="M17.142,0a17.058,17.058,0,1,1,0,34.115c-3.74,0-10.116-3.3-10.116-3.3L.458,32.341l2.43-5.805S0,20.6,0,17.058A17.1,17.1,0,0,1,17.142,0Z" fill="#5cd6ef"/>
      <g id="Groupe_34" data-name="Groupe 34" transform="translate(11.179 9.544)">
        <path id="Tracé_87" data-name="Tracé 87" d="M8482,621.739s-.023,2.04.174,4.759a19.94,19.94,0,0,0,.762,4.77,11.427,11.427,0,0,0,5.01,5.514" transform="translate(-8476.035 -621.739)" fill="none" stroke="#fff" stroke-linecap="round" stroke-width="3"/>
        <path id="Tracé_88" data-name="Tracé 88" d="M8487.941,621.739s.024,2.04-.174,4.759a19.792,19.792,0,0,1-.761,4.77,11.431,11.431,0,0,1-5.011,5.514" transform="translate(-8481.996 -621.739)" fill="none" stroke="#fff" stroke-linecap="round" stroke-width="3"/>
        <path id="Tracé_89" data-name="Tracé 89" d="M8521.053,691.726H8531.4" transform="translate(-8520.286 -686.168)" fill="none" stroke="#fff" stroke-linecap="round" stroke-width="3"/>
      </g>
    </g>
    <g id="Groupe_1353" data-name="Groupe 1353" transform="translate(-877.304 859.498)">
      <path id="Tracé_1075" data-name="Tracé 1075" d="M46.024,50.513v-27.4A23.849,23.849,0,0,0,35.148,2.786a20.389,20.389,0,0,0-8.5-1.854L8.874,0S5.139.626,2.7,6.443A43.486,43.486,0,0,0,0,21.808V57.9c2.811,1.44,6.056-.782,6.056-4.126V34.855a2.521,2.521,0,0,1,2.422-2.61V66.777c3.2,1.992,7.267-.485,7.267-4.521v-27.4a2.521,2.521,0,0,1,2.422-2.61c.015,0,0-.812,0,39.75,3.232,2.011,7.267-.515,7.267-4.521V34.856a2.521,2.521,0,0,1,2.422-2.61v37.14c3.2,1.992,7.267-.485,7.267-4.521V33.074a1.79,1.79,0,0,1,.807-.887A4.457,4.457,0,0,1,37.5,31.86l.049,18.521A8.168,8.168,0,0,0,43.6,53.122,2.519,2.519,0,0,0,46.024,50.513Z" transform="translate(1223.638 319.183) rotate(177)" fill="#5cd6ef"/>
      <path id="Tracé_1076" data-name="Tracé 1076" d="M108.745,129.12a29.746,29.746,0,0,0,1.7,13.869" transform="translate(1105.446 189.186)" fill="none" stroke="#5cd6ef" stroke-miterlimit="10" stroke-width="3"/>
      <path id="Tracé_1077" data-name="Tracé 1077" d="M76.274,131.46c.418,5.774.418,10.787-1.164,12.93" transform="translate(1115.987 187.488)" fill="none" stroke="#5cd6ef" stroke-miterlimit="10" stroke-width="3"/>
      <circle id="Ellipse_302" data-name="Ellipse 302" cx="5" cy="5" r="5" transform="translate(1202.304 292.502)" fill="#fff"/>
      <ellipse id="Ellipse_303" data-name="Ellipse 303" cx="5.5" cy="5" rx="5.5" ry="5" transform="translate(1185.304 292.502)" fill="#fff"/>
      <circle id="Ellipse_304" data-name="Ellipse 304" cx="1.5" cy="1.5" r="1.5" transform="translate(1190.304 296.502)"/>
      <ellipse id="Ellipse_305" data-name="Ellipse 305" cx="1" cy="1.5" rx="1" ry="1.5" transform="translate(1206.304 296.502)"/>
      <path id="Tracé_1082" data-name="Tracé 1082" d="M3097.4,691.719c.725-.507,2.991,1.62,5.856,1.81s4.9-1.617,5.608-1.051c1.464,1.17-2.742,4.113-5.608,3.923S3095.993,692.7,3097.4,691.719Z" transform="translate(-1902.575 -385.312)" fill="#fff"/>
      <path id="Tracé_1075-2" data-name="Tracé 1075" d="M46.024,50.513v-27.4A23.849,23.849,0,0,0,35.148,2.786a20.389,20.389,0,0,0-8.5-1.854L8.874,0S5.139.626,2.7,6.443A43.486,43.486,0,0,0,0,21.808V57.9c2.811,1.44,6.056-.782,6.056-4.126V34.855a2.521,2.521,0,0,1,2.422-2.61V66.777c3.2,1.992,7.267-.485,7.267-4.521v-27.4a2.521,2.521,0,0,1,2.422-2.61c.015,0,0-.812,0,39.75,3.232,2.011,7.267-.515,7.267-4.521V34.856a2.521,2.521,0,0,1,2.422-2.61v37.14c3.2,1.992,7.267-.485,7.267-4.521V33.074a1.79,1.79,0,0,1,.807-.887A4.457,4.457,0,0,1,37.5,31.86l.049,18.521A8.168,8.168,0,0,0,43.6,53.122,2.519,2.519,0,0,0,46.024,50.513Z" transform="translate(1223.638 319.183) rotate(177)" fill="#5cd6ef"/>
      <path id="Tracé_1076-2" data-name="Tracé 1076" d="M108.745,129.12a29.746,29.746,0,0,0,1.7,13.869" transform="translate(1105.446 189.186)" fill="none" stroke="#5cd6ef" stroke-miterlimit="10" stroke-width="3"/>
      <path id="Tracé_1077-2" data-name="Tracé 1077" d="M76.274,131.46c.418,5.774.418,10.787-1.164,12.93" transform="translate(1115.987 187.488)" fill="none" stroke="#5cd6ef" stroke-miterlimit="10" stroke-width="3"/>
      <circle id="Ellipse_306" data-name="Ellipse 306" cx="5" cy="5" r="5" transform="translate(1202.304 292.502)" fill="#fff"/>
      <ellipse id="Ellipse_307" data-name="Ellipse 307" cx="5.5" cy="5" rx="5.5" ry="5" transform="translate(1185.304 292.502)" fill="#fff"/>
      <circle id="Ellipse_308" data-name="Ellipse 308" cx="1.5" cy="1.5" r="1.5" transform="translate(1190.304 296.502)"/>
      <path id="Tracé_1083" data-name="Tracé 1083" d="M3097.4,691.719c.725-.507,2.991,1.62,5.856,1.81s4.9-1.617,5.608-1.051c1.464,1.17-2.742,4.113-5.608,3.923S3095.993,692.7,3097.4,691.719Z" transform="translate(-1902.575 -385.312)" fill="#fff"/>
      <path id="Tracé_1095" data-name="Tracé 1095" d="M129.055,101.25c-1.174.607-.809,3.066-12.055.389" transform="translate(1103.92 205.619)" fill="none" stroke="#5cd6ef" stroke-miterlimit="10" stroke-width="2"/>
      <path id="Union_44" data-name="Union 44" d="M1.958,5.3V4.133A2.1,2.1,0,0,1,1.713,4.1V5.3a.244.244,0,1,1-.489,0V3.954a2.077,2.077,0,0,1-.252-.135L.817,4.4A.245.245,0,1,1,.345,4.27l.212-.793A2.066,2.066,0,0,1,2.08,0,2.074,2.074,0,0,1,4.16,2.068a2.049,2.049,0,0,1-.294,1.06l.41.837c.09.184.065.381-.057.44s-.293-.043-.383-.228l-.306-.626a2.087,2.087,0,0,1-.349.272V5.059a.244.244,0,1,1-.489,0V4.045a2.075,2.075,0,0,1-.245.059V5.3a.245.245,0,1,1-.49,0Z" transform="translate(1232.213 309.569) rotate(-106)" fill="#5cd6ef"/>
      <path id="Union_45" data-name="Union 45" d="M1.958,5.3V4.133A2.1,2.1,0,0,1,1.713,4.1V5.3a.244.244,0,1,1-.489,0V3.954a2.077,2.077,0,0,1-.252-.135L.817,4.4A.245.245,0,1,1,.345,4.27l.212-.793A2.066,2.066,0,0,1,2.08,0,2.074,2.074,0,0,1,4.16,2.068a2.049,2.049,0,0,1-.294,1.06l.41.837c.09.184.065.381-.057.44s-.293-.043-.383-.228l-.306-.626a2.087,2.087,0,0,1-.349.272V5.059a.244.244,0,1,1-.489,0V4.045a2.075,2.075,0,0,1-.245.059V5.3a.245.245,0,1,1-.49,0Z" transform="translate(1232.213 309.569) rotate(-106)" fill="#5cd6ef"/>
      <path id="Tracé_1101" data-name="Tracé 1101" d="M3.32,92.25c.984.509.678,2.569,10.1.326" transform="translate(1165.57 214.687)" fill="none" stroke="#5cd6ef" stroke-miterlimit="10" stroke-width="2"/>
      <path id="Union_47" data-name="Union 47" d="M0,2.915A1.722,1.722,0,0,1,.467,1.735L.289,1.07a.2.2,0,1,1,.4-.106l.129.484a1.742,1.742,0,0,1,.211-.113V.205a.205.205,0,0,1,.41,0v1a1.756,1.756,0,0,1,.2-.024V.205a.205.205,0,1,1,.41,0v1a1.739,1.739,0,0,1,.2.049V.41a.205.205,0,1,1,.41,0V1.444a1.749,1.749,0,0,1,.292.228l.257-.525c.075-.155.219-.24.32-.191s.123.214.048.369l-.343.7a1.718,1.718,0,0,1,.246.888A1.742,1.742,0,0,1,0,2.915Z" transform="translate(1166.258 308.288) rotate(-74)" fill="#5cd6ef"/>
      <path id="Union_52" data-name="Union 52" d="M1.3,2.914V2.751a1.394,1.394,0,0,1-.163-.019v.182a.163.163,0,0,1-.326,0V2.631a1.385,1.385,0,0,1-.162-.086V2.59a.163.163,0,1,1-.326,0V2.265A1.366,1.366,0,0,1,0,1.377a1.385,1.385,0,0,1,2.769,0,1.363,1.363,0,0,1-.2.7l.123.251a.163.163,0,0,1-.292.142L2.35,2.363a1.39,1.39,0,0,1-.232.181v.208a.163.163,0,0,1-.326,0v-.06a1.383,1.383,0,0,1-.163.039v.183a.163.163,0,0,1-.326,0Z" transform="translate(1189.881 330.471) rotate(11)" fill="#5cd6ef"/>
      <path id="Union_53" data-name="Union 53" d="M0,1.7A1.366,1.366,0,0,1,.327.812V.487a.163.163,0,0,1,.326,0V.532A1.384,1.384,0,0,1,.815.446V.163a.163.163,0,1,1,.326,0V.345A1.394,1.394,0,0,1,1.3.326V.163a.163.163,0,0,1,.326,0V.345a1.383,1.383,0,0,1,.163.039V.325a.163.163,0,0,1,.326,0V.533A1.39,1.39,0,0,1,2.35.714L2.4.6A.162.162,0,0,1,2.7.743L2.574,1a1.363,1.363,0,0,1,.2.7A1.385,1.385,0,0,1,0,1.7Z" transform="translate(1217.521 333.491) rotate(169)" fill="#5cd6ef"/>
      <circle id="Ellipse_401" data-name="Ellipse 401" cx="1.5" cy="1.5" r="1.5" transform="translate(1206.304 296.502)"/>
    </g>
  </g>
</svg>
