<svg id="Groupe_1680" data-name="Groupe 1680" xmlns="http://www.w3.org/2000/svg" width="336.925" height="423.634" viewBox="0 0 336.925 423.634">
  <g id="Groupe_932" data-name="Groupe 932" transform="translate(0 0)">
    <path id="Tracé_1075" data-name="Tracé 1075" d="M217.524,238.736v-129.5c0-41.032-20.665-76.868-51.4-96.069A96.366,96.366,0,0,0,125.935,4.4L41.941,0s-17.654,2.958-29.2,30.453C4.522,50.032,0,78.983,0,103.069V273.655c13.286,6.8,28.622-3.7,28.621-19.5V164.736c0-6.79,5.106-12.333,11.449-12.333V315.6c15.136,9.416,34.346-2.291,34.346-21.368v-129.5c0-6.812,5.125-12.333,11.448-12.333.072,0,0-3.836,0,187.868,15.276,9.5,34.346-2.436,34.346-21.367V164.736c0-6.79,5.106-12.333,11.449-12.333V327.938c15.136,9.416,34.346-2.291,34.346-21.368V156.319a8.462,8.462,0,0,1,3.812-4.192c2.8-1.435,7.4-1.549,7.4-1.549l.233,87.534a38.6,38.6,0,0,0,28.622,12.958C212.41,251.069,217.524,245.551,217.524,238.736Z" transform="translate(271.194 343.137) rotate(177)" fill="#5cd6ef"/>
    <path id="Tracé_1076" data-name="Tracé 1076" d="M109.432,129.12c-2.3,22.011-.194,43.892,8.027,65.547" transform="translate(117.115 209.869)" fill="none" stroke="#5cd6ef" stroke-miterlimit="10" stroke-width="3"/>
    <path id="Tracé_1077" data-name="Tracé 1077" d="M80.613,131.46c1.974,27.287,1.974,50.981-5.5,61.113" transform="translate(42.287 210.562)" fill="none" stroke="#5cd6ef" stroke-miterlimit="10" stroke-width="3"/>
    <ellipse id="Ellipse_302" data-name="Ellipse 302" cx="23" cy="23.5" rx="23" ry="23.5" transform="translate(170.925 220)" fill="#fff"/>
    <ellipse id="Ellipse_303" data-name="Ellipse 303" cx="23" cy="23.5" rx="23" ry="23.5" transform="translate(92.925 220)" fill="#fff"/>
    <ellipse id="Ellipse_304" data-name="Ellipse 304" cx="6.5" cy="7" rx="6.5" ry="7" transform="translate(109.925 237)"/>
    <ellipse id="Ellipse_305" data-name="Ellipse 305" cx="5.5" cy="7" rx="5.5" ry="7" transform="translate(189.925 237)"/>
    <path id="Tracé_1082" data-name="Tracé 1082" d="M3098.4,692.01c3.426-2.4,14.134,7.658,27.68,8.554s23.161-7.641,26.5-4.969c6.92,5.532-12.958,19.438-26.5,18.542S3091.772,696.645,3098.4,692.01Z" transform="translate(-2963.406 -409.257)" fill="#fff"/>
    <path id="Tracé_1075-2" data-name="Tracé 1075" d="M217.524,238.736v-129.5c0-41.032-20.665-76.868-51.4-96.069A96.366,96.366,0,0,0,125.935,4.4L41.941,0s-17.654,2.958-29.2,30.453C4.522,50.032,0,78.983,0,103.069V273.655c13.286,6.8,28.622-3.7,28.621-19.5V164.736c0-6.79,5.106-12.333,11.449-12.333V315.6c15.136,9.416,34.346-2.291,34.346-21.368v-129.5c0-6.812,5.125-12.333,11.448-12.333.072,0,0-3.836,0,187.868,15.276,9.5,34.346-2.436,34.346-21.367V164.736c0-6.79,5.106-12.333,11.449-12.333V327.938c15.136,9.416,34.346-2.291,34.346-21.368V156.319a8.462,8.462,0,0,1,3.812-4.192c2.8-1.435,7.4-1.549,7.4-1.549l.233,87.534a38.6,38.6,0,0,0,28.622,12.958C212.41,251.069,217.524,245.551,217.524,238.736Z" transform="translate(271.194 343.137) rotate(177)" fill="#5cd6ef"/>
    <path id="Tracé_1076-2" data-name="Tracé 1076" d="M109.432,129.12c-2.3,22.011-.194,43.892,8.027,65.547" transform="translate(117.115 209.869)" fill="none" stroke="#5cd6ef" stroke-miterlimit="10" stroke-width="3"/>
    <path id="Tracé_1077-2" data-name="Tracé 1077" d="M80.613,131.46c1.974,27.287,1.974,50.981-5.5,61.113" transform="translate(42.287 210.562)" fill="none" stroke="#5cd6ef" stroke-miterlimit="10" stroke-width="3"/>
    <ellipse id="Ellipse_306" data-name="Ellipse 306" cx="23" cy="23.5" rx="23" ry="23.5" transform="translate(170.925 220)" fill="#fff"/>
    <ellipse id="Ellipse_307" data-name="Ellipse 307" cx="23" cy="23.5" rx="23" ry="23.5" transform="translate(92.925 220)" fill="#fff"/>
    <ellipse id="Ellipse_308" data-name="Ellipse 308" cx="6.5" cy="7" rx="6.5" ry="7" transform="translate(109.925 237)"/>
    <ellipse id="Ellipse_405" data-name="Ellipse 405" cx="6.5" cy="7" rx="6.5" ry="7" transform="translate(187.925 237)"/>
    <path id="Tracé_1083" data-name="Tracé 1083" d="M3098.4,692.01c3.426-2.4,14.134,7.658,27.68,8.554s23.161-7.641,26.5-4.969c6.92,5.532-12.958,19.438-26.5,18.542S3091.772,696.645,3098.4,692.01Z" transform="translate(-2963.406 -409.257)" fill="#fff"/>
    <path id="Tracé_1095" data-name="Tracé 1095" d="M173.976,101.25c-5.551,2.871-3.825,14.49-56.976,1.841" transform="translate(141.351 183.686)" fill="none" stroke="#5cd6ef" stroke-miterlimit="10" stroke-width="2"/>
    <path id="Union_44" data-name="Union 44" d="M10.253,26.218a1,1,0,0,1-1-1V19.532A9.912,9.912,0,0,1,8.1,19.4v5.82a1,1,0,0,1-1,1H6.784a1,1,0,0,1-1-1V18.686a9.818,9.818,0,0,1-1.191-.637L3.821,20.93a1,1,0,0,1-1.225.707l-.3-.081a1,1,0,0,1-.707-1.225l1.044-3.9A9.764,9.764,0,0,1,9.829,0a9.8,9.8,0,0,1,9.83,9.775,9.686,9.686,0,0,1-1.387,5.009l1.937,3.957c.427.871.306,1.8-.268,2.08s-1.385-.2-1.812-1.075l-1.45-2.961a9.866,9.866,0,0,1-1.645,1.283v6a1,1,0,0,1-1,1h-.312a1,1,0,0,1-1-1V19.119a9.816,9.816,0,0,1-1.156.278v5.821a1,1,0,0,1-1,1Z" transform="translate(311.723 297.694) rotate(-106)" fill="#5cd6ef"/>
    <path id="Union_45" data-name="Union 45" d="M10.253,26.218a1,1,0,0,1-1-1V19.532A9.912,9.912,0,0,1,8.1,19.4v5.82a1,1,0,0,1-1,1H6.784a1,1,0,0,1-1-1V18.686a9.818,9.818,0,0,1-1.191-.637L3.821,20.93a1,1,0,0,1-1.225.707l-.3-.081a1,1,0,0,1-.707-1.225l1.044-3.9A9.764,9.764,0,0,1,9.829,0a9.8,9.8,0,0,1,9.83,9.775,9.686,9.686,0,0,1-1.387,5.009l1.937,3.957c.427.871.306,1.8-.268,2.08s-1.385-.2-1.812-1.075l-1.45-2.961a9.866,9.866,0,0,1-1.645,1.283v6a1,1,0,0,1-1,1h-.312a1,1,0,0,1-1-1V19.119a9.816,9.816,0,0,1-1.156.278v5.821a1,1,0,0,1-1,1Z" transform="translate(311.723 297.694) rotate(-106)" fill="#5cd6ef"/>
    <path id="Tracé_1101" data-name="Tracé 1101" d="M3.32,92.25c4.651,2.406,3.2,12.141,47.738,1.542" transform="translate(9.123 193.004)" fill="none" stroke="#5cd6ef" stroke-miterlimit="10" stroke-width="2"/>
    <path id="Union_47" data-name="Union 47" d="M0,13.777A8.136,8.136,0,0,1,2.205,8.2L1.364,5.059a.969.969,0,1,1,1.871-.5l.613,2.288a8.226,8.226,0,0,1,1-.534V.969a.969.969,0,1,1,1.938,0V5.715A8.294,8.294,0,0,1,7.752,5.6V.969a.969.969,0,0,1,1.938,0V5.715a8.212,8.212,0,0,1,.967.233V1.935a.969.969,0,1,1,1.938,0V6.829A8.268,8.268,0,0,1,13.973,7.9l1.214-2.481c.357-.729,1.037-1.132,1.518-.9s.581,1.012.225,1.742L15.308,9.581a8.115,8.115,0,0,1,1.162,4.2,8.235,8.235,0,0,1-16.47,0Z" transform="translate(0 291.639) rotate(-74)" fill="#5cd6ef"/>
  </g>
  <path id="Union_52" data-name="Union 52" d="M11.506,24.8a1,1,0,0,1-1-1v-1.63a11.242,11.242,0,0,1-1.311-.153V23.8a1,1,0,0,1-1,1H7.568a1,1,0,0,1-1-1V21.213a11.15,11.15,0,0,1-1.312-.7v.678a1,1,0,0,1-1,1H3.631a1,1,0,0,1-1-1v-2.94A11.014,11.014,0,0,1,0,11.1a11.16,11.16,0,0,1,22.319,0,11,11,0,0,1-1.573,5.683l1,2.028a1.3,1.3,0,0,1-.6,1.746,1.317,1.317,0,0,1-1.756-.6l-.442-.9a11.194,11.194,0,0,1-1.87,1.459V22.5a1,1,0,0,1-1,1h-.625a1,1,0,0,1-1-1V21.7a11.149,11.149,0,0,1-1.312.316V23.8a1,1,0,0,1-1,1Z" transform="translate(110.7 390.666) rotate(11)" fill="#5cd6ef"/>
  <path id="Union_53" data-name="Union 53" d="M0,13.707A11.014,11.014,0,0,1,2.63,6.552V3.611a1,1,0,0,1,1-1h.625a1,1,0,0,1,1,1v.678a11.151,11.151,0,0,1,1.311-.7V1a1,1,0,0,1,1-1h.626a1,1,0,0,1,1,1V2.782a11.239,11.239,0,0,1,1.312-.153V1a1,1,0,0,1,1-1h.626a1,1,0,0,1,1,1V2.784a11.149,11.149,0,0,1,1.312.316V2.308a1,1,0,0,1,1-1h.625a1,1,0,0,1,1,1V4.293a11.194,11.194,0,0,1,1.87,1.459l.442-.9a1.317,1.317,0,0,1,1.756-.6A1.3,1.3,0,0,1,21.74,6l-.994,2.028a11,11,0,0,1,1.573,5.684A11.159,11.159,0,0,1,0,13.707Z" transform="translate(250.593 419.376) rotate(169)" fill="#5cd6ef"/>
</svg>
