<svg xmlns="http://www.w3.org/2000/svg" width="83.574" height="63.633" viewBox="0 0 83.574 63.633">
  <path id="people" d="M65.377,122.809H18.2a2.7,2.7,0,0,1-2.7-2.7v-7.982a9.66,9.66,0,0,1,5.715-8.811c10.1-4.509,9.544-4.356,10.331-4.356h3.2a2.7,2.7,0,0,1,2.618,2.052,4.553,4.553,0,0,0,8.833,0,2.7,2.7,0,0,1,2.618-2.052c3.448,0,3.626-.068,4.3.234l9.232,4.122a9.661,9.661,0,0,1,5.715,8.811v7.982a2.7,2.7,0,0,1-2.7,2.7ZM41.853,59.176A16.468,16.468,0,1,0,58.321,75.644,16.486,16.486,0,0,0,41.853,59.176ZM15.875,76.79A10.369,10.369,0,1,0,26.244,87.159,10.38,10.38,0,0,0,15.875,76.79Zm51.823,0A10.369,10.369,0,1,0,78.067,87.159,10.38,10.38,0,0,0,67.7,76.79Zm11.983,24.7c-5.61-2.505-5.475-2.531-6.243-2.531-4.016,0-6.643-.028-8.42-.037a1.685,1.685,0,0,0-.786,3.179,9.685,9.685,0,0,1,2.983,2.25,11.661,11.661,0,0,1,2.947,8.6,1.683,1.683,0,0,0,1.684,1.684h9.03a2.7,2.7,0,0,0,2.7-2.7v-4.447a6.58,6.58,0,0,0-3.892-6ZM10.135,98.957c-.764,0-.614.017-6.243,2.531a6.58,6.58,0,0,0-3.892,6v4.447a2.7,2.7,0,0,0,2.7,2.7h9.029a1.683,1.683,0,0,0,1.684-1.685,11.607,11.607,0,0,1,2.948-8.6,9.71,9.71,0,0,1,2.957-2.238,1.685,1.685,0,0,0-.779-3.179c-1.788,0-4.414.026-8.4.026Z" transform="translate(0 -59.176)" fill="#4fbed3"/>
</svg>
