<svg xmlns="http://www.w3.org/2000/svg" width="27.897" height="33.767" viewBox="0 0 27.897 33.767">
  <path id="people" d="M118.466,92.943H93.431A1.431,1.431,0,0,1,92,91.512V87.277A5.126,5.126,0,0,1,95.033,82.6c5.359-2.393,5.065-2.312,5.482-2.312h1.7a1.431,1.431,0,0,1,1.389,1.089,2.416,2.416,0,0,0,4.687,0,1.431,1.431,0,0,1,1.389-1.089c1.83,0,1.924-.036,2.284.124l4.9,2.188a5.126,5.126,0,0,1,3.033,4.676v4.236A1.431,1.431,0,0,1,118.466,92.943ZM105.983,59.176a8.739,8.739,0,1,0,8.739,8.739A8.748,8.748,0,0,0,105.983,59.176ZM94.023,81.959Z" transform="translate(-92 -59.176)" fill="#364f6b"/>
</svg>
